<?xml version="1.0" encoding="UTF-8"?>
<svg width="324px" height="249px" viewBox="0 0 324 249" version="1.1" xmlns="http://www.w3.org/2000/svg" xmlns:xlink="http://www.w3.org/1999/xlink">
    <title>Group 24</title>
    <g id="Page-1" stroke="none" stroke-width="1" fill="none" fill-rule="evenodd">
        <g id="Group-24" transform="translate(0.000000, 1.000000)">
            <line x1="167.75" y1="1.33231707" x2="167.375" y2="110" id="Line-3" stroke="#D3D3D3" stroke-linecap="square"></line>
            <polygon id="Rectangle-Copy-17" fill="#107F65" transform="translate(140.000000, 195.000000) rotate(-450.000000) translate(-140.000000, -195.000000) " points="87.5 188 192.5 188 192.5 202 87.5 202"></polygon>
            <polygon id="Rectangle-Copy-18" fill="#722580" transform="translate(153.500000, 187.500000) rotate(-450.000000) translate(-153.500000, -187.500000) " points="93 180.5 214 180.5 214 194.5 93 194.5"></polygon>
            <polygon id="Rectangle-Copy-19" fill="#0062A6" transform="translate(167.000000, 197.000000) rotate(-450.000000) translate(-167.000000, -197.000000) " points="116.5 190 217.5 190 217.5 204 116.5 204"></polygon>
            <line x1="321.665217" y1="110.5" x2="168" y2="112" id="Line-3" stroke="#D3D3D3" stroke-linecap="square"></line>
            <polyline id="Path-5" stroke="#107F65" stroke-width="3" points="178 63.9666667 194.084359 101 227.954709 40.7366667 265.123609 88.5433333 321 0"></polyline>
            <polyline id="Path-5-Copy-2" stroke="#722580" stroke-width="3" points="178 57.7464789 194.084359 76 226.70859 48.9577465 265.123609 67.2112676 321 28"></polyline>
            <polyline id="Path-5-Copy" stroke="#0062A6" stroke-width="3" points="175 72.6666667 194.521465 86 227.663781 60 265.875787 73.6666667 322 14"></polyline>
            <path d="M74.311,13.0039036 L73.7305795,13 C114.196163,13 147,44.5639251 147,83.5 C147,122.349586 114.341736,153.859737 74.000125,153.999533 L74.0002343,110.916659 C74.007266,110.916664 74.0142983,110.916667 74.0213312,110.916667 C89.5973693,110.916667 102.224243,98.7670606 102.224243,83.7797619 C102.224243,68.8860535 89.7545774,56.7947075 74.3127839,56.6442762 L74.311,13.0039036 Z" id="Combined-Shape" fill="#722580"></path>
            <path d="M73.698,13.0039036 L73.6971318,56.6442727 C58.0406976,56.7945165 45.3976425,68.8859358 45.3976425,83.7797619 C45.3976425,98.7670606 58.1998894,110.916667 73.9922614,110.916667 C73.9949347,110.916667 73.9976079,110.916666 74.0002811,110.916666 L73.9997518,153.999484 C33.1042901,153.852542 -5.68434189e-14,122.34515 -5.68434189e-14,83.5 C-5.68434189e-14,44.5639251 33.2594458,13 74.2870513,13 L73.698,13.0039036 Z" id="Combined-Shape" fill="#0062A6"></path>
            <polygon id="Rectangle-Copy-20" fill="#107F65" transform="translate(195.500000, 206.500000) rotate(-450.000000) translate(-195.500000, -206.500000) " points="154 199.5 237 199.5 237 213.5 154 213.5"></polygon>
            <polygon id="Rectangle-Copy-23" fill="#107F65" transform="translate(251.000000, 195.500000) rotate(-450.000000) translate(-251.000000, -195.500000) " points="199 188.5 303 188.5 303 202.5 199 202.5"></polygon>
            <rect id="Rectangle-Copy-21" fill="#722580" transform="translate(209.500000, 201.500000) rotate(-450.000000) translate(-209.500000, -201.500000) " x="163" y="194.5" width="93" height="14"></rect>
            <polygon id="Rectangle-Copy-24" fill="#722580" transform="translate(265.000000, 201.000000) rotate(-450.000000) translate(-265.000000, -201.000000) " points="218.5 194 311.5 194 311.5 208 218.5 208"></polygon>
            <polygon id="Rectangle-Copy-22" fill="#0062A6" transform="translate(223.000000, 197.000000) rotate(-450.000000) translate(-223.000000, -197.000000) " points="172.5 190 273.5 190 273.5 204 172.5 204"></polygon>
            <polygon id="Rectangle-Copy-25" fill="#0062A6" transform="translate(279.000000, 188.000000) rotate(-450.000000) translate(-279.000000, -188.000000) " points="219.5 181 338.5 181 338.5 195 219.5 195"></polygon>
        </g>
    </g>
</svg>