<?xml version="1.0" encoding="UTF-8"?>
<svg width="399px" height="279px" viewBox="0 0 399 279" version="1.1" xmlns="http://www.w3.org/2000/svg" xmlns:xlink="http://www.w3.org/1999/xlink">
    <title>Group 26</title>
    <defs>
        <polygon id="path-1" points="0.0006 0.309198981 9.68985 0.309198981 9.68985 10 0.0006 10"></polygon>
        <polygon id="path-3" points="0.0903932601 0.0047265625 7.31345455 0.0047265625 7.31345455 10.5428984 0.0903932601 10.5428984"></polygon>
        <polygon id="path-5" points="0 0.638291176 7.94571241 0.638291176 7.94571241 10.5519603 0 10.5519603"></polygon>
        <polygon id="path-7" points="0.0903932601 0.00515625 7.31345455 0.00515625 7.31345455 11.5013438 0.0903932601 11.5013438"></polygon>
        <polygon id="path-9" points="0 0.696317647 7.94571241 0.696317647 7.94571241 11.5112294 0 11.5112294"></polygon>
    </defs>
    <g id="Page-1" stroke="none" stroke-width="1" fill="none" fill-rule="evenodd">
        <g id="Group-26">
            <g id="Group-6" transform="translate(357.000000, 272.500000) scale(-1, 1) translate(-357.000000, -272.500000) translate(352.000000, 267.000000)">
                <g id="Group-5" transform="translate(0.000000, 0.505300)">
                    <mask id="mask-2" fill="white">
                        <use xlink:href="#path-1"></use>
                    </mask>
                    <g id="Clip-4"></g>
                </g>
            </g>
            <g id="Group-21" transform="translate(116.000000, 94.000000)">
                <path d="M261.054393,2 C261.330536,2 261.580536,2.11192881 261.7615,2.29289322 C261.942464,2.47385763 262.054393,2.72385763 262.054393,3 L262.054393,3 L262.054393,168.769231 L22.1297071,168.769231 L22.1297071,3 C22.1297071,2.72385763 22.2416359,2.47385763 22.4226003,2.29289322 C22.6035647,2.11192881 22.8535647,2 23.1297071,2 L23.1297071,2 Z" id="Rectangle" stroke="#D3D3D3" stroke-width="4" fill="#F9F9F9"></path>
                <path d="M2,169.583333 L281,169.583333 C282.104569,169.583333 283,170.478764 283,171.583333 L283,180 C283,182.761424 280.761424,185 278,185 L5,185 C2.23857625,185 3.38176876e-16,182.761424 0,180 L0,171.583333 C-1.3527075e-16,170.478764 0.8954305,169.583333 2,169.583333 Z" id="Rectangle" fill="#D3D3D3"></path>
            </g>
            <g id="Group-17-Copy" transform="translate(145.000000, 102.000000)" fill="#F1F1F1" stroke="#E5E5E5">
                <rect id="Rectangle" x="0.5" y="0.5" width="226" height="153" rx="1"></rect>
            </g>
            <g id="Group-17-Copy-4" transform="translate(270.000000, 113.000000)" fill="#FFFFFF" stroke="#E5E5E5">
                <rect id="Rectangle" x="0.5" y="0.5" width="89" height="131" rx="1"></rect>
            </g>
            <g id="Group-17-Copy-5" transform="translate(157.000000, 113.000000)" fill="#FFFFFF" stroke="#E5E5E5">
                <rect id="Rectangle" x="0.5" y="0.5" width="106" height="82" rx="1"></rect>
            </g>
            <g id="Group-23" transform="translate(157.000000, 201.000000)">
                <g id="Group-17-Copy-7" fill="#FFFFFF" stroke="#E5E5E5">
                    <rect id="Rectangle" x="0.5" y="0.5" width="106" height="43" rx="1"></rect>
                </g>
                <rect id="Rectangle" stroke="#E5E5E5" fill="#F1F1F1" x="8.5" y="7.5" width="90" height="28" rx="1"></rect>
                <g id="Group-22" transform="translate(29.000000, 11.000000)">
                    <rect id="Rectangle" fill="#D3D3D3" x="1" y="5" width="6.57777778" height="2" rx="0.5"></rect>
                    <rect id="Rectangle-Copy-3" fill="#D3D3D3" x="1" y="10" width="6.57777778" height="2" rx="0.5"></rect>
                    <rect id="Rectangle-Copy-9" fill="#D3D3D3" x="1" y="15" width="6.57777778" height="2" rx="0.5"></rect>
                    <rect id="Rectangle-Copy-10" fill="#D3D3D3" x="1" y="20" width="6.57777778" height="2" rx="0.5"></rect>
                    <rect id="Rectangle-Copy-4" fill="#107F65" x="-8.2600593e-14" y="0" width="8.388889" height="2" rx="0.5"></rect>
                </g>
                <g id="Group-21" transform="translate(43.000000, 11.000000)">
                    <rect id="Rectangle-Copy-107" fill="#D3D3D3" x="1" y="5" width="6.57777778" height="2" rx="0.5"></rect>
                    <rect id="Rectangle-Copy-108" fill="#D3D3D3" x="1" y="10" width="6.57777778" height="2" rx="0.5"></rect>
                    <rect id="Rectangle-Copy-109" fill="#D3D3D3" x="1" y="15" width="6.57777778" height="2" rx="0.5"></rect>
                    <rect id="Rectangle-Copy-110" fill="#D3D3D3" x="1" y="20" width="6.57777778" height="2" rx="0.5"></rect>
                    <rect id="Rectangle-Copy-111" fill="#107F65" x="-8.2600593e-14" y="0" width="8.388889" height="2" rx="0.5"></rect>
                </g>
                <g id="Group-20" transform="translate(57.000000, 11.000000)">
                    <rect id="Rectangle-Copy-112" fill="#D3D3D3" x="1" y="5" width="6.57777778" height="2" rx="0.5"></rect>
                    <rect id="Rectangle-Copy-113" fill="#D3D3D3" x="1" y="10" width="6.57777778" height="2" rx="0.5"></rect>
                    <rect id="Rectangle-Copy-114" fill="#D3D3D3" x="1" y="15" width="6.57777778" height="2" rx="0.5"></rect>
                    <rect id="Rectangle-Copy-115" fill="#D3D3D3" x="1" y="20" width="6.57777778" height="2" rx="0.5"></rect>
                    <rect id="Rectangle-Copy-116" fill="#107F65" x="-8.2600593e-14" y="0" width="8.388889" height="2" rx="0.5"></rect>
                </g>
                <g id="Group-19" transform="translate(71.000000, 11.000000)">
                    <rect id="Rectangle-Copy-117" fill="#D3D3D3" x="1" y="5" width="6.57777778" height="2" rx="0.5"></rect>
                    <rect id="Rectangle-Copy-118" fill="#D3D3D3" x="1" y="10" width="6.57777778" height="2" rx="0.5"></rect>
                    <rect id="Rectangle-Copy-119" fill="#D3D3D3" x="1" y="15" width="6.57777778" height="2" rx="0.5"></rect>
                    <rect id="Rectangle-Copy-120" fill="#D3D3D3" x="1" y="20" width="6.57777778" height="2" rx="0.5"></rect>
                    <rect id="Rectangle-Copy-121" fill="#107F65" x="-8.2600593e-14" y="0" width="8.388889" height="2" rx="0.5"></rect>
                </g>
                <g id="Group-18" transform="translate(85.000000, 11.000000)">
                    <rect id="Rectangle-Copy-122" fill="#D3D3D3" x="1" y="5" width="6.57777778" height="2" rx="0.5"></rect>
                    <rect id="Rectangle-Copy-123" fill="#D3D3D3" x="1" y="10" width="6.57777778" height="2" rx="0.5"></rect>
                    <rect id="Rectangle-Copy-124" fill="#D3D3D3" x="1" y="15" width="6.57777778" height="2" rx="0.5"></rect>
                    <rect id="Rectangle-Copy-125" fill="#D3D3D3" x="1" y="20" width="6.57777778" height="2" rx="0.5"></rect>
                    <rect id="Rectangle-Copy-126" fill="#107F65" x="-8.2600593e-14" y="0" width="8.388889" height="2" rx="0.5"></rect>
                </g>
                <rect id="Rectangle-Copy-7" fill="#107F65" x="13" y="16" width="9" height="2" rx="0.5"></rect>
                <rect id="Rectangle-Copy-8" fill="#107F65" x="13" y="21.25" width="9" height="2" rx="0.5"></rect>
                <rect id="Rectangle-Copy-35" fill="#107F65" x="13" y="26" width="9" height="2" rx="0.5"></rect>
                <rect id="Rectangle-Copy-36" fill="#107F65" x="13" y="31" width="9" height="2" rx="0.5"></rect>
            </g>
            <g id="Group-16" transform="translate(165.000000, 123.000000)">
                <line x1="0.75" y1="0.192073171" x2="0.5" y2="64.5" id="Line-3" stroke="#D3D3D3" stroke-linecap="square"></line>
                <line x1="89.8065217" y1="63.25" x2="1" y2="64" id="Line-3" stroke="#D3D3D3" stroke-linecap="square"></line>
                <polyline id="Path-5" stroke="#107F65" points="6 36.7333333 15.3356766 58 34.994691 23.3933333 56.5682484 50.8466667 89 0"></polyline>
                <polyline id="Path-5-Copy-2" stroke="#722580" points="6 33.3521127 15.3356766 44 34.2714192 28.2253521 56.5682484 38.8732394 89 16"></polyline>
                <polyline id="Path-5-Copy" stroke="#0062A6" points="4 41.2222222 15.2879222 49 34.451846 33.8333333 56.5472238 41.8055556 89 7"></polyline>
            </g>
            <g id="Group-13" transform="translate(281.000000, 123.000000)">
                <polygon id="Rectangle-Copy-17" fill="#0062A6" transform="translate(28.500000, 5.000000) rotate(-360.000000) translate(-28.500000, -5.000000) " points="8.38495939e-14 0 57 0 57 10 8.38495939e-14 10"></polygon>
                <polygon id="Rectangle-Copy-20" fill="#0062A6" transform="translate(18.500000, 46.000000) rotate(-360.000000) translate(-18.500000, -46.000000) " points="-1.0269563e-15 41 37 41 37 51 -1.0269563e-15 51"></polygon>
                <polygon id="Rectangle-Copy-23" fill="#0062A6" transform="translate(30.500000, 87.000000) rotate(-360.000000) translate(-30.500000, -87.000000) " points="0 82 61 82 61 92 0 92"></polygon>
                <polygon id="Rectangle-Copy-18" fill="#722580" transform="translate(34.500000, 15.000000) rotate(-360.000000) translate(-34.500000, -15.000000) " points="6.33909591e-13 10 69 10 69 20 6.33909591e-13 20"></polygon>
                <rect id="Rectangle-Copy-21" fill="#722580" transform="translate(23.000000, 56.000000) rotate(-360.000000) translate(-23.000000, -56.000000) " x="0" y="51" width="46" height="10"></rect>
                <polygon id="Rectangle-Copy-24" fill="#722580" transform="translate(27.000000, 97.000000) rotate(-360.000000) translate(-27.000000, -97.000000) " points="2.15827356e-13 92 54 92 54 102 2.15827356e-13 102"></polygon>
                <polygon id="Rectangle-Copy-19" fill="#107F65" transform="translate(27.000000, 25.000000) rotate(-360.000000) translate(-27.000000, -25.000000) " points="1.13908882e-13 20 54 20 54 30 1.13908882e-13 30"></polygon>
                <polygon id="Rectangle-Copy-22" fill="#107F65" transform="translate(27.000000, 66.000000) rotate(-360.000000) translate(-27.000000, -66.000000) " points="1.19904087e-13 61 54 61 54 71 1.19904087e-13 71"></polygon>
                <polygon id="Rectangle-Copy-25" fill="#107F65" transform="translate(34.500000, 107.000000) rotate(-360.000000) translate(-34.500000, -107.000000) " points="8.33083602e-14 102 69 102 69 112 8.33083602e-14 112"></polygon>
                <line x1="0.376116109" y1="1" x2="0.623883891" y2="112.000003" id="Line-3" stroke="#D3D3D3" stroke-linecap="square"></line>
            </g>
            <rect id="Rectangle" stroke="#E5E5E5" fill="#FFFFFF" x="0.5" y="0.5" width="197" height="137" rx="1"></rect>
            <g id="Group-9" transform="translate(20.000000, 8.000000)">
                <path d="M10.3494594,11.9556801 L10.3893958,11.9709628 C10.4458578,11.9908304 10.4968112,12 10.5546502,12 C10.7736123,12 10.9622778,11.8700968 11.055922,11.6607234 L14.955926,0.845134997 C15.0137651,0.690779419 15.0151422,0.524197657 14.9573031,0.374426898 C14.8994641,0.223127866 14.7892945,0.106979114 14.6474511,0.0443199185 C14.577218,0.0152827305 14.5069849,0 14.4312433,0 L14.4243577,0 C14.19851,0.00458481915 13.9988276,0.155883851 13.9189546,0.386653082 L10.0396073,11.154865 C9.92668349,11.4788589 10.0630184,11.83189 10.3494594,11.9556801" id="Fill-1" fill="#6D7278"></path>
                <g id="Group-5" transform="translate(16.000000, 1.000000)">
                    <mask id="mask-4" fill="white">
                        <use xlink:href="#path-3"></use>
                    </mask>
                    <g id="Clip-4"></g>
                    <path d="M0.281192727,10.329 L0.298647273,10.3453281 C0.314356364,10.3616563 0.331810909,10.3747188 0.349265455,10.3894141 L0.357992727,10.3959453 C0.478429091,10.4906484 0.63552,10.5428984 0.801338182,10.5428984 C0.968901818,10.5428984 1.13122909,10.4873828 1.26388364,10.3828828 L7.06402909,5.78161719 C7.22286545,5.65589063 7.31362909,5.46811719 7.31362909,5.27054688 C7.31362909,5.08114063 7.21937455,4.89336719 7.06402909,4.77090625 L1.25341091,0.163109375 C1.14693818,0.0831015625 1.02301091,0.0341171875 0.893847273,0.0210546875 L0.881629091,0.0047265625 L0.743738182,0.0145234375 C0.553483636,0.02921875 0.38592,0.109226563 0.260247273,0.246382813 C0.00715636364,0.530492188 0.0455563636,0.941960938 0.34752,1.18361719 L5.50882909,5.27054688 L0.342283636,9.37380469 C0.0350836364,9.61709375 0.00192,10.0203984 0.281192727,10.329" id="Fill-3" fill="#6D7278" mask="url(#mask-4)"></path>
                </g>
                <g id="Group-8" transform="translate(0.000000, 1.000000)">
                    <mask id="mask-6" fill="white">
                        <use xlink:href="#path-5"></use>
                    </mask>
                    <g id="Clip-7"></g>
                    <path d="M6.656256,10.4075044 C6.796416,10.5043206 6.959616,10.5519603 7.151616,10.5519603 C7.383936,10.5519603 7.593216,10.4735853 7.742976,10.3306662 C8.027136,10.0571221 7.990656,9.67907794 7.656576,9.4501 L1.988736,5.60357794 L7.666176,1.75551912 C8.002176,1.52654118 8.040576,1.14849706 7.752576,0.873416176 C7.614336,0.742791176 7.428096,0.665952941 7.220736,0.653658824 L6.928896,0.638291176 L6.928896,0.682857353 C6.829056,0.707445588 6.734976,0.750475 6.648576,0.805798529 L0.274176,5.12564412 C0.101376,5.24243824 -0.000384,5.41762941 -0.000384,5.59896765 C-0.000384,5.78337941 0.099456,5.95703382 0.272256,6.07075441 L6.656256,10.4075044 Z" id="Fill-6" fill="#6D7278" mask="url(#mask-6)"></path>
                </g>
            </g>
            <g id="Group-9-Copy" transform="translate(20.000000, 113.000000)">
                <path d="M10.3494594,12.9519868 L10.3893958,12.968543 C10.4458578,12.9900662 10.4968112,13 10.5546502,13 C10.7736123,13 10.9622778,12.8592715 11.055922,12.6324503 L14.955926,0.915562914 C15.0137651,0.748344371 15.0151422,0.567880795 14.9573031,0.405629139 C14.8994641,0.241721854 14.7892945,0.11589404 14.6474511,0.048013245 C14.577218,0.0165562914 14.5069849,0 14.4312433,0 L14.4243577,0 C14.19851,0.00496688742 13.9988276,0.168874172 13.9189546,0.418874172 L10.0396073,12.0844371 C9.92668349,12.4354305 10.0630184,12.8178808 10.3494594,12.9519868" id="Fill-1" fill="#6D7278"></path>
                <g id="Group-5" transform="translate(16.000000, 1.000000)">
                    <mask id="mask-8" fill="white">
                        <use xlink:href="#path-7"></use>
                    </mask>
                    <g id="Clip-4"></g>
                    <path d="M0.281192727,11.268 L0.298647273,11.2858125 C0.314356364,11.303625 0.331810909,11.317875 0.349265455,11.3339063 L0.357992727,11.3410313 C0.478429091,11.4443438 0.63552,11.5013438 0.801338182,11.5013438 C0.968901818,11.5013438 1.13122909,11.4407813 1.26388364,11.3267813 L7.06402909,6.30721875 C7.22286545,6.1700625 7.31362909,5.96521875 7.31362909,5.7496875 C7.31362909,5.5430625 7.21937455,5.33821875 7.06402909,5.204625 L1.25341091,0.1779375 C1.14693818,0.09065625 1.02301091,0.03721875 0.893847273,0.02296875 L0.881629091,0.00515625 L0.743738182,0.01584375 C0.553483636,0.031875 0.38592,0.11915625 0.260247273,0.26878125 C0.00715636364,0.57871875 0.0455563636,1.02759375 0.34752,1.29121875 L5.50882909,5.7496875 L0.342283636,10.2259688 C0.0350836364,10.491375 0.00192,10.9313438 0.281192727,11.268" id="Fill-3" fill="#6D7278" mask="url(#mask-8)"></path>
                </g>
                <g id="Group-8" transform="translate(0.000000, 1.000000)">
                    <mask id="mask-10" fill="white">
                        <use xlink:href="#path-9"></use>
                    </mask>
                    <g id="Clip-7"></g>
                    <path d="M6.656256,11.3536412 C6.796416,11.4592588 6.959616,11.5112294 7.151616,11.5112294 C7.383936,11.5112294 7.593216,11.4257294 7.742976,11.2698176 C8.027136,10.9714059 7.990656,10.5589941 7.656576,10.3092 L1.988736,6.11299412 L7.666176,1.91511176 C8.002176,1.66531765 8.040576,1.25290588 7.752576,0.952817647 C7.614336,0.810317647 7.428096,0.726494118 7.220736,0.713082353 L6.928896,0.696317647 L6.928896,0.744935294 C6.829056,0.771758824 6.734976,0.8187 6.648576,0.879052941 L0.274176,5.59161176 C0.101376,5.71902353 -0.000384,5.91014118 -0.000384,6.10796471 C-0.000384,6.30914118 0.099456,6.49858235 0.272256,6.62264118 L6.656256,11.3536412 Z" id="Fill-6" fill="#6D7278" mask="url(#mask-10)"></path>
                </g>
            </g>
            <rect id="Rectangle-Copy-27" fill="#6D7278" x="20" y="30" width="158" height="5" rx="0.5"></rect>
            <rect id="Rectangle-Copy-31" fill="#6D7278" x="32" y="70" width="151" height="5" rx="0.5"></rect>
            <rect id="Rectangle-Copy-28" fill="#6D7278" x="32" y="40" width="91" height="5" rx="0.5"></rect>
            <rect id="Rectangle-Copy-32" fill="#6D7278" x="32" y="80" width="91" height="5" rx="0.5"></rect>
            <rect id="Rectangle-Copy-29" fill="#6D7278" x="32" y="50" width="75" height="5" rx="0.5"></rect>
            <rect id="Rectangle-Copy-33" fill="#6D7278" x="32" y="90" width="75" height="5" rx="0.5"></rect>
            <rect id="Rectangle-Copy-30" fill="#6D7278" x="32" y="60" width="122" height="5" rx="0.5"></rect>
            <rect id="Rectangle-Copy-34" fill="#6D7278" x="32" y="100" width="122" height="5" rx="0.5"></rect>
            <path id="Path-4" d="M165.148303,12.8599345 C184.510683,16.7657287 204.700771,25.5634357 220.544812,38.0696862 C239.682455,53.1756912 251.658537,72.7866142 254.232286,96.514987 L254.308134,97.2426515 L254.642,104.323 L258.505196,96.6289749 L259.845763,97.3019385 L254.698275,107.555913 L254.100085,108.747528 L253.392364,107.617524 L247.302351,97.8937201 L248.573606,97.0975342 L253.144,104.396 L252.812694,97.3526683 C250.452721,73.7670681 238.645287,54.2680025 219.615446,39.2470899 C204.21473,27.0907708 184.626278,18.4687857 165.76381,14.5178414 L164.851697,14.3303169 L165.148303,12.8599345 Z" fill="#0062A6" fill-rule="nonzero"></path>
        </g>
    </g>
</svg>