<svg xmlns="http://www.w3.org/2000/svg" xmlns:xlink="http://www.w3.org/1999/xlink" viewBox="0 0 540.83 119.01"><defs><style>.cls-1{fill:url(#linear-gradient);}.cls-2{fill:url(#linear-gradient-2);}.cls-3{fill:url(#linear-gradient-3);}.cls-4{fill:#4d4d4d;}</style><linearGradient id="linear-gradient" x1="13.3" y1="-3.05" x2="30.7" y2="87.31" gradientTransform="translate(-2.15 15.69) rotate(-0.95)" gradientUnits="userSpaceOnUse"><stop offset="0.14" stop-color="#005cb9"/><stop offset="0.29" stop-color="#0053af"/><stop offset="0.74" stop-color="#003d93"/><stop offset="1" stop-color="#003489"/></linearGradient><linearGradient id="linear-gradient-2" x1="45.46" y1="109.53" x2="84.52" y2="64.53" gradientTransform="translate(-2.15 15.69) rotate(-0.95)" gradientUnits="userSpaceOnUse"><stop offset="0.09" stop-color="#480852"/><stop offset="0.18" stop-color="#5a1367"/><stop offset="0.29" stop-color="#681c76"/><stop offset="0.42" stop-color="#70207f"/><stop offset="0.6" stop-color="#732282"/></linearGradient><linearGradient id="linear-gradient-3" x1="34.5" y1="-9.22" x2="102.29" y2="11.64" gradientTransform="translate(-2.15 15.69) rotate(-0.95)" gradientUnits="userSpaceOnUse"><stop offset="0.09" stop-color="#004a36"/><stop offset="0.58" stop-color="#007057"/><stop offset="0.85" stop-color="#008065"/></linearGradient></defs><title>Crunch_logoAsset 1</title><g id="Layer_2" data-name="Layer 2"><g id="Layer_1-2" data-name="Layer 1"><path class="cls-1" d="M46.1,99.1C36.46,88.49,13.58,60.23,16.72,34.36c1.23-10.17,6.29-19,15.08-26.29C12,20-4.62,44.84,1.17,67.95,5.83,86.61,21.46,104.3,46.1,99.1Z"/><path class="cls-2" d="M21.24,104.37a59.09,59.09,0,0,0,47,14.07c14.06-2,30-8.91,39.11-19.58L83.62,83.68C73.33,99.18,51,113.24,21.24,104.37Z"/><path class="cls-3" d="M27,23.71c34.1-15.3,58.31,8.66,58.31,8.66L104.86,10C93,2.65,51.79-13.83,27,23.71Z"/><path class="cls-4" d="M248.61,89,236,67.71H226V89H216V32h25c11.28,0,18.63,7.35,18.63,17.86,0,10.17-6.67,15.64-13.5,16.75L260.15,89Zm.86-39.14c0-5.47-4.1-9.06-9.74-9.06H226V58.91h13.67C245.36,58.91,249.47,55.32,249.47,49.85Z"/><path class="cls-4" d="M279.84,65.49V31h10.08V65.15c0,9.06,5,15,14.62,15s14.53-5.9,14.53-15V31h10.08V65.4C329.16,79.59,321,89,304.54,89S279.84,79.51,279.84,65.49Z"/><path class="cls-4" d="M388.9,89,359.16,48.31V89h-10V32h10.26l29.14,39.57V32h10V89Z"/><path class="cls-4" d="M418.36,59.51C418.36,42,431.43,30,448.27,30c11.54,0,18.63,6,22.91,12.82l-8.55,4.36a16.92,16.92,0,0,0-14.36-8.29c-11.28,0-19.66,8.63-19.66,20.6S437,80.1,448.27,80.1a16.74,16.74,0,0,0,14.36-8.29l8.55,4.36C466.82,83,459.81,89,448.27,89,431.43,89,418.36,77,418.36,59.51Z"/><path class="cls-4" d="M530.83,89V64.12H501.17V89h-10V32h10V55.32h29.66V32h10V89Z"/><path class="cls-4" d="M143.4,59.51C143.4,42,156.48,30,173.31,30c11.54,0,18.63,6,22.91,12.82l-8.55,4.36a16.92,16.92,0,0,0-14.36-8.29c-11.28,0-19.66,8.63-19.66,20.6S162,80.1,173.31,80.1a16.74,16.74,0,0,0,14.36-8.29l8.55,4.36C191.86,83,184.85,89,173.31,89,156.48,89,143.4,77,143.4,59.51Z"/></g></g></svg>