<?xml version="1.0" encoding="utf-8"?>
<!-- Generator: Adobe Illustrator 23.0.6, SVG Export Plug-In . SVG Version: 6.00 Build 0)  -->
<svg version="1.1" id="Layer_1" xmlns="http://www.w3.org/2000/svg" xmlns:xlink="http://www.w3.org/1999/xlink" x="0px" y="0px"
	 viewBox="0 0 708.2 119" style="enable-background:new 0 0 708.2 119;" xml:space="preserve">
<style type="text/css">
	.st0{clip-path:url(#SVGID_2_);fill:url(#SVGID_3_);}
	.st1{clip-path:url(#SVGID_5_);fill:url(#SVGID_6_);}
	.st2{clip-path:url(#SVGID_8_);fill:url(#SVGID_9_);}
	.st3{fill:#4D4E4E;}
</style>
<title>Crunch_Hori_colorAsset 1</title>
<g>
	<g>
		<defs>
			<path id="SVGID_1_" d="M1.2,68.2c4.7,18.7,20.3,36.5,45.1,31.2c-9.7-10.6-32.6-39-29.5-64.9C18,24.3,23.1,15.4,31.9,8.1
				C12,20.1-4.6,45,1.2,68.2"/>
		</defs>
		<clipPath id="SVGID_2_">
			<use xlink:href="#SVGID_1_"  style="overflow:visible;"/>
		</clipPath>
		
			<linearGradient id="SVGID_3_" gradientUnits="userSpaceOnUse" x1="144.6993" y1="150.5904" x2="149.6359" y2="150.5904" gradientTransform="matrix(3.8394 18.299 -18.299 3.8394 2211.6716 -3213.6758)">
			<stop  offset="0" style="stop-color:#215FAB"/>
			<stop  offset="0.14" style="stop-color:#215FAB"/>
			<stop  offset="0.29" style="stop-color:#1955A5"/>
			<stop  offset="0.74" style="stop-color:#20438D"/>
			<stop  offset="1" style="stop-color:#253D82"/>
		</linearGradient>
		<polygon class="st0" points="-24,12.2 -2.5,114.8 65.6,100.5 44.1,-2.1 		"/>
	</g>
	<g>
		<defs>
			<path id="SVGID_4_" d="M21.3,104.7c12.9,11.3,30.1,16.5,47.1,14.1c14.1-2,30.1-8.9,39.2-19.6L83.9,83.9
				C73.6,99.5,51.2,113.6,21.3,104.7"/>
		</defs>
		<clipPath id="SVGID_5_">
			<use xlink:href="#SVGID_4_"  style="overflow:visible;"/>
		</clipPath>
		
			<linearGradient id="SVGID_6_" gradientUnits="userSpaceOnUse" x1="132.5551" y1="138.7169" x2="137.4917" y2="138.7169" gradientTransform="matrix(7.784 -9.274 9.274 7.784 -2272.6816 274.6093)">
			<stop  offset="0" style="stop-color:#471852"/>
			<stop  offset="9.000000e-02" style="stop-color:#471852"/>
			<stop  offset="0.18" style="stop-color:#592467"/>
			<stop  offset="0.29" style="stop-color:#672977"/>
			<stop  offset="0.42" style="stop-color:#6F297F"/>
			<stop  offset="0.6" style="stop-color:#732A80"/>
			<stop  offset="1" style="stop-color:#732A80"/>
		</linearGradient>
		<polygon class="st1" points="72,163.7 126,99.3 57,41.4 3,105.8 		"/>
	</g>
	<g>
		<defs>
			<path id="SVGID_7_" d="M27.1,23.8c34.2-15.3,58.5,8.7,58.5,8.7L105.2,10C99,6.2,85.1,0,69.6,0C55.1,0,39.1,5.5,27.1,23.8"/>
		</defs>
		<clipPath id="SVGID_8_">
			<use xlink:href="#SVGID_7_"  style="overflow:visible;"/>
		</clipPath>
		
			<linearGradient id="SVGID_9_" gradientUnits="userSpaceOnUse" x1="136.3673" y1="145.1172" x2="141.3039" y2="145.1172" gradientTransform="matrix(13.8503 4.0118 -4.0118 13.8503 -1274.4196 -2550.6121)">
			<stop  offset="0" style="stop-color:#004B37"/>
			<stop  offset="9.000000e-02" style="stop-color:#004B37"/>
			<stop  offset="0.58" style="stop-color:#007158"/>
			<stop  offset="0.85" style="stop-color:#038065"/>
			<stop  offset="1" style="stop-color:#038065"/>
		</linearGradient>
		<polygon class="st2" points="18.4,30 99.1,53.3 113.9,2.5 33.1,-20.9 		"/>
	</g>
	<g>
		<defs>
			<rect id="SVGID_10_" width="130.9" height="119.4"/>
		</defs>
		<clipPath id="SVGID_11_">
			<use xlink:href="#SVGID_10_"  style="overflow:visible;"/>
		</clipPath>
	</g>
	<g>
		<path class="st3" d="M145.3,60.1c0-18,13.4-30.2,30.2-30.2c12.3,0,19.5,6.1,23.9,13.1l-8.8,4.5c-2.8-4.8-8.4-8.5-15.2-8.5
			c-11.1,0-19.7,8.8-19.7,21.1c0,12.3,8.6,21.1,19.7,21.1c6.7,0,12.4-3.6,15.2-8.5l8.8,4.5c-4.5,7-11.7,13.1-23.9,13.1
			C158.7,90.3,145.3,78.1,145.3,60.1z"/>
		<path class="st3" d="M236.9,67.5h-10.2v21.8h-10.3V30.9h25.7c11.6,0,19.1,7.5,19.1,18.3c0,10.4-6.8,16-13.8,17.2l14.3,23h-11.8
			L236.9,67.5z M240.7,39.9h-14v18.6h14c5.8,0,10-3.7,10-9.3S246.5,39.9,240.7,39.9z"/>
		<path class="st3" d="M280.2,30.9h10.3v35c0,9.3,5.2,15.3,15,15.3c9.7,0,14.9-6,14.9-15.3v-35h10.3v35.3c0,14.5-8.3,24.2-25.2,24.2
			c-17,0-25.3-9.7-25.3-24.1V30.9z"/>
		<path class="st3" d="M362.2,46.7v42.6h-10.3V30.9h10.5l29.9,41.4V30.9h10.2v58.4h-9.9L362.2,46.7z"/>
		<path class="st3" d="M421.1,60.1c0-18,13.4-30.2,30.2-30.2c12.3,0,19.5,6.1,23.9,13.1l-8.8,4.5c-2.8-4.8-8.4-8.5-15.2-8.5
			c-11.1,0-19.7,8.8-19.7,21.1c0,12.3,8.6,21.1,19.7,21.1c6.7,0,12.4-3.6,15.2-8.5l8.8,4.5c-4.5,7-11.7,13.1-23.9,13.1
			C434.5,90.3,421.1,78.1,421.1,60.1z"/>
		<path class="st3" d="M532.9,63.8h-30.4v25.5h-10.2V30.9h10.2v23.9h30.4V30.9h10.2v58.4h-10.2V63.8z"/>
		<path class="st3" d="M568.8,78c3.3,0,6.1,2.8,6.1,6.1c0,3.3-2.8,6.1-6.1,6.1s-6.1-2.8-6.1-6.1C562.7,80.8,565.5,78,568.8,78z"/>
		<path class="st3" d="M594.6,30.9h10.2v58.4h-10.2V30.9z"/>
		<path class="st3" d="M653.3,29.9c17.5,0,29.9,12.8,29.9,30.2c0,17.4-12.4,30.2-29.9,30.2c-17.5,0-29.9-12.8-29.9-30.2
			C623.4,42.7,635.7,29.9,653.3,29.9z M653.3,39c-11.8,0-19.4,9-19.4,21.1c0,12,7.5,21.1,19.4,21.1c11.7,0,19.4-9.1,19.4-21.1
			C672.6,48,665,39,653.3,39z"/>
	</g>
</g>
</svg>
