<?xml version="1.0" standalone="no"?>
<!DOCTYPE svg PUBLIC "-//W3C//DTD SVG 20010904//EN"
 "http://www.w3.org/TR/2001/REC-SVG-20010904/DTD/svg10.dtd">
<svg version="1.0" xmlns="http://www.w3.org/2000/svg"
 width="240.000000pt" height="240.000000pt" viewBox="0 0 240.000000 240.000000"
 preserveAspectRatio="xMidYMid meet">
<metadata>
Created by potrace 1.11, written by Peter Selinger 2001-2013
</metadata>
<g transform="translate(0.000000,240.000000) scale(0.100000,-0.100000)"
fill="#000000" stroke="none">
<path d="M1257 2180 c-107 -23 -247 -89 -335 -160 -54 -44 -188 -197 -180
-205 2 -2 41 10 88 26 118 39 216 53 335 46 170 -10 344 -74 478 -176 l64 -48
162 186 162 186 -88 43 c-224 109 -476 146 -686 102z"/>
<path d="M730 2009 c-143 -107 -282 -272 -355 -422 -137 -282 -108 -586 79
-823 78 -100 162 -159 280 -199 61 -21 93 -25 178 -24 57 0 111 3 120 7 14 6
3 23 -59 97 -154 185 -306 442 -363 615 -94 284 -52 535 122 725 33 36 58 65
56 65 -1 0 -28 -19 -58 -41z"/>
<path d="M1646 765 c-110 -144 -289 -265 -466 -315 -136 -39 -385 -36 -516 6
-34 10 48 -56 125 -102 294 -173 668 -176 1003 -8 132 67 294 193 272 213 -18
17 -374 241 -382 241 -5 0 -22 -16 -36 -35z"/>
</g>
</svg>
