<svg id="Group_943" data-name="Group 943" xmlns="http://www.w3.org/2000/svg" xmlns:xlink="http://www.w3.org/1999/xlink" width="211.962" height="138.642" viewBox="0 0 211.962 138.642">
  <defs>
    <clipPath id="clip-path">
      <rect id="Rectangle_278" data-name="Rectangle 278" width="211.962" height="138.642" fill="#f1f1f1"/>
    </clipPath>
  </defs>
  <g id="Group_942" data-name="Group 942" clip-path="url(#clip-path)">
    <path id="Path_517" data-name="Path 517" d="M181.711,62.782a1.379,1.379,0,0,1-1.171-1.315c0-14.054-5.793-25.271-16.311-31.584a33.005,33.005,0,0,0-31.474-1.27,1.379,1.379,0,0,1-1.852-.6A50.891,50.891,0,0,0,85.034,0h0a50.383,50.383,0,0,0-37.8,16.856A51.964,51.964,0,0,0,33.8,56.776a1.394,1.394,0,0,1-1.136,1.512,40.565,40.565,0,0,0,7.848,80.354H168.827c24.995,0,43.134-15.939,43.134-37.9,0-18.445-13.285-35.12-30.251-37.963" fill="#f1f1f1"/>
  </g>
</svg>
