<svg xmlns="http://www.w3.org/2000/svg" xmlns:xlink="http://www.w3.org/1999/xlink" width="212.506" height="157.976" viewBox="0 0 212.506 157.976">
  <defs>
    <clipPath id="clip-path">
      <rect id="Rectangle_278" data-name="Rectangle 278" width="211.962" height="138.642" fill="#f1f1f1"/>
    </clipPath>
    <clipPath id="clip-path-2">
      <rect id="Rectangle_266" data-name="Rectangle 266" width="63.917" height="53.234" fill="#117e64"/>
    </clipPath>
    <clipPath id="clip-path-3">
      <rect id="Rectangle_283" data-name="Rectangle 283" width="6.576" height="15.8" fill="#fff"/>
    </clipPath>
  </defs>
  <g id="Group_959" data-name="Group 959" transform="translate(-973 -2519.241)">
    <g id="Group_943" data-name="Group 943" transform="translate(973 2525.686)">
      <g id="Group_942" data-name="Group 942" clip-path="url(#clip-path)">
        <path id="Path_517" data-name="Path 517" d="M181.711,62.782a1.379,1.379,0,0,1-1.171-1.315c0-14.054-5.793-25.271-16.311-31.584a33.005,33.005,0,0,0-31.474-1.27,1.379,1.379,0,0,1-1.852-.6A50.891,50.891,0,0,0,85.034,0h0a50.383,50.383,0,0,0-37.8,16.856A51.964,51.964,0,0,0,33.8,56.776a1.394,1.394,0,0,1-1.136,1.512,40.565,40.565,0,0,0,7.848,80.354H168.827c24.995,0,43.134-15.939,43.134-37.9,0-18.445-13.285-35.12-30.251-37.963" fill="#f1f1f1"/>
      </g>
    </g>
    <g id="Group_32" data-name="Group 32" transform="translate(1117.134 2519.241)">
      <g id="Group_31" data-name="Group 31" clip-path="url(#clip-path-2)">
        <path id="Path_524" data-name="Path 524" d="M63.916,34.849a6.436,6.436,0,0,1-6.429,6.443H27.475l-1.249,1.163-11.7,10.779V41.293h-8.1A6.436,6.436,0,0,1,0,34.844V6.429A6.436,6.436,0,0,1,6.429,0H57.488a6.436,6.436,0,0,1,6.429,6.429v28.42Z" transform="translate(0)" fill="#117e64"/>
      </g>
    </g>
    <path id="Path_521" data-name="Path 521" d="M65.06,0a4.177,4.177,0,1,0,4.162,4.2A4.18,4.18,0,0,0,65.06,0Z" transform="translate(1084.055 2535.339)" fill="#b3c7c3"/>
    <path id="Path_522" data-name="Path 522" d="M4.234,0A4.166,4.166,0,1,0,7.174,1.26,4.185,4.185,0,0,0,4.234,0Z" transform="translate(1130.187 2535.34)" fill="#b3c7c3"/>
    <path id="Path_523" data-name="Path 523" d="M125.912,0a4.177,4.177,0,1,0,4.12,4.148A4.176,4.176,0,0,0,125.912,0" transform="translate(1037.968 2535.34)" fill="#fff"/>
    <g id="Group_947" data-name="Group 947" transform="translate(1141.984 2622.504)">
      <path id="Path_525" data-name="Path 525" d="M21.761,0A12.131,12.131,0,0,0,9.52,12.01v8.007H4.76A4.735,4.735,0,0,0,0,24.687V50.042a4.735,4.735,0,0,0,4.76,4.67h34a4.735,4.735,0,0,0,4.76-4.67V24.687a4.735,4.735,0,0,0-4.76-4.67H34V12.01A12.131,12.131,0,0,0,21.761,0Zm0,2.669a9.382,9.382,0,0,1,9.52,9.34v8.007H12.24V12.01a9.382,9.382,0,0,1,9.52-9.34Z" transform="translate(0 0)" fill="#0c5d9e"/>
      <g id="Group_946" data-name="Group 946" transform="translate(18.473 28.644)">
        <g id="Group_945" data-name="Group 945" clip-path="url(#clip-path-3)">
          <path id="Path_526" data-name="Path 526" d="M6.576,3.28A3.288,3.288,0,1,0,1.4,5.986a.412.412,0,0,1,.158.395l-1.5,8.985a.37.37,0,0,0,.375.434H6.1a.378.378,0,0,0,.375-.434L4.975,6.38a.428.428,0,0,1,.158-.395A3.219,3.219,0,0,0,6.576,3.28Z" transform="translate(0 0.001)" fill="#fff"/>
        </g>
      </g>
    </g>
    <g id="Group_950" data-name="Group 950" transform="translate(1004.138 2547.694)">
      <path id="Rectangle_291" data-name="Rectangle 291" d="M1,0H29.233a1,1,0,0,1,1,1V64.245a0,0,0,0,1,0,0H0a0,0,0,0,1,0,0V1A1,1,0,0,1,1,0Z" transform="translate(14.172 22.675)" fill="#54155f"/>
      <path id="Rectangle_292" data-name="Rectangle 292" d="M1,0H29.233a1,1,0,0,1,1,1V86.919a0,0,0,0,1,0,0H0a0,0,0,0,1,0,0V1A1,1,0,0,1,1,0Z" transform="translate(50.073)" fill="#ba98c0"/>
      <path id="Rectangle_293" data-name="Rectangle 293" d="M1,0H29.233a1,1,0,0,1,1,1V47.239a0,0,0,0,1,0,0H0a0,0,0,0,1,0,0V1A1,1,0,0,1,1,0Z" transform="translate(85.975 39.681)" fill="#6f237e"/>
      <line id="Line_45" data-name="Line 45" x2="136.048" transform="translate(0 85.975)" fill="none" stroke="#1d1d26" stroke-width="2"/>
    </g>
  </g>
</svg>
