<svg xmlns="http://www.w3.org/2000/svg" width="232.905" height="154.976" viewBox="0 0 232.905 154.976">
  <g id="Group_957" data-name="Group 957" transform="translate(-78 -2519.241)">
    <g id="Group_954" data-name="Group 954">
      <rect id="Rectangle_295" data-name="Rectangle 295" width="207.02" height="154.976" rx="4" transform="translate(103.885 2519.241)" fill="#f1f1f1"/>
      <rect id="Rectangle_296" data-name="Rectangle 296" width="112.184" height="126.062" rx="4" transform="translate(116.607 2531.962)" fill="#fff"/>
      <rect id="Rectangle_298" data-name="Rectangle 298" width="56.67" height="61.296" rx="4" transform="translate(241.513 2531.962)" fill="#fff"/>
      <g id="Group_951" data-name="Group 951" transform="translate(78 2550.651)">
        <path id="Rectangle_291" data-name="Rectangle 291" d="M1,0H30.325a1,1,0,0,1,1,1V66.565a0,0,0,0,1,0,0H0a0,0,0,0,1,0,0V1A1,1,0,0,1,1,0Z" transform="translate(14.683 23.494)" fill="#0d61a4"/>
        <path id="Rectangle_292" data-name="Rectangle 292" d="M1,0H30.325a1,1,0,0,1,1,1V90.058a0,0,0,0,1,0,0H0a0,0,0,0,1,0,0V1A1,1,0,0,1,1,0Z" transform="translate(51.881)" fill="#084c80"/>
        <path id="Rectangle_293" data-name="Rectangle 293" d="M1,0H30.325a1,1,0,0,1,1,1V48.945a0,0,0,0,1,0,0H0a0,0,0,0,1,0,0V1A1,1,0,0,1,1,0Z" transform="translate(89.079 41.114)" fill="#4c8cb8"/>
        <line id="Line_45" data-name="Line 45" x2="140.961" transform="translate(0 89.079)" fill="none" stroke="#084c80" stroke-width="2"/>
      </g>
      <rect id="Rectangle_299" data-name="Rectangle 299" width="56.67" height="53.201" rx="4" transform="translate(241.513 2607.137)" fill="#fff"/>
      <path id="Subtraction_5" data-name="Subtraction 5" d="M19.661,39.322a19.807,19.807,0,0,1-3.962-.4,19.553,19.553,0,0,1-7.03-2.958,19.718,19.718,0,0,1-7.123-8.65A19.562,19.562,0,0,1,.4,23.624,19.853,19.853,0,0,1,.4,15.7a19.553,19.553,0,0,1,2.958-7.03,19.718,19.718,0,0,1,8.65-7.123A19.561,19.561,0,0,1,15.7.4a19.853,19.853,0,0,1,7.925,0,19.554,19.554,0,0,1,7.03,2.958,19.718,19.718,0,0,1,7.123,8.65A19.562,19.562,0,0,1,38.923,15.7a19.853,19.853,0,0,1,0,7.925,19.553,19.553,0,0,1-2.958,7.03,19.719,19.719,0,0,1-8.65,7.123,19.564,19.564,0,0,1-3.691,1.146A19.807,19.807,0,0,1,19.661,39.322Zm0-25.591a5.826,5.826,0,0,0-2.308.472,5.906,5.906,0,0,0-1.885,1.288,6.054,6.054,0,0,0,0,8.5,5.906,5.906,0,0,0,1.885,1.287,5.878,5.878,0,0,0,4.616,0,5.906,5.906,0,0,0,1.885-1.287,6.054,6.054,0,0,0,0-8.5A5.907,5.907,0,0,0,21.969,14.2,5.827,5.827,0,0,0,19.661,13.731Z" transform="translate(250.187 2614.72)" fill="#117e64"/>
      <path id="Subtraction_7" data-name="Subtraction 7" d="M0,39.321H0V25.746H.01a5.81,5.81,0,0,0,2.3-.471,5.9,5.9,0,0,0,1.885-1.288,6,6,0,0,0,1.27-1.909,6.043,6.043,0,0,0,.467-2.339A6.033,6.033,0,0,0,5.463,17.4a5.985,5.985,0,0,0-1.27-1.91A5.929,5.929,0,0,0,2.309,14.2,5.832,5.832,0,0,0,0,13.731V0A19.848,19.848,0,0,1,3.963.4,19.565,19.565,0,0,1,7.654,1.545a19.662,19.662,0,0,1,3.339,1.812,19.786,19.786,0,0,1,2.91,2.4,19.76,19.76,0,0,1,2.4,2.909,19.586,19.586,0,0,1,1.813,3.34A19.54,19.54,0,0,1,19.261,15.7a19.755,19.755,0,0,1,.4,3.962,19.761,19.761,0,0,1-.4,3.963,19.54,19.54,0,0,1-1.145,3.691A19.562,19.562,0,0,1,16.3,30.653a19.716,19.716,0,0,1-2.4,2.91,19.713,19.713,0,0,1-2.91,2.4,19.61,19.61,0,0,1-3.339,1.813,19.647,19.647,0,0,1-3.691,1.146A19.851,19.851,0,0,1,0,39.321Z" transform="translate(269.848 2614.721)" fill="#6c227a"/>
      <rect id="Rectangle_301" data-name="Rectangle 301" width="39.322" height="7.015" transform="translate(250.187 2540.637)" fill="#0d61a5"/>
      <rect id="Rectangle_302" data-name="Rectangle 302" width="21.311" height="4.626" transform="translate(250.187 2554.7)" fill="#0d61a5"/>
      <rect id="Rectangle_305" data-name="Rectangle 305" width="28.913" height="4.626" transform="translate(250.187 2571.678)" fill="#0d61a5"/>
      <rect id="Rectangle_303" data-name="Rectangle 303" width="35.853" height="4.626" transform="translate(250.187 2562.611)" fill="#0d61a5"/>
      <rect id="Rectangle_304" data-name="Rectangle 304" width="35.853" height="4.626" transform="translate(250.187 2579.589)" fill="#0d61a5"/>
    </g>
  </g>
</svg>
