<svg xmlns="http://www.w3.org/2000/svg" xmlns:xlink="http://www.w3.org/1999/xlink" width="274.978" height="171.976" viewBox="0 0 274.978 171.976">
  <defs>
    <clipPath id="clip-path">
      <rect id="Rectangle_285" data-name="Rectangle 285" width="55.38" height="30.648" fill="#ba98c0"/>
    </clipPath>
  </defs>
  <g id="Group_958" data-name="Group 958" transform="translate(-499.444 -2525.241)">
    <path id="Path_530" data-name="Path 530" d="M8,0H159.74a8,8,0,0,1,8,8V98.278a8,8,0,0,1-8,8H8a8,8,0,0,1-8-8V8A8,8,0,0,1,8,0Z" transform="translate(518.331 2541.001)" fill="#f1f1f1"/>
    <g id="Group_949" data-name="Group 949" transform="translate(499.444 2525.241)">
      <g id="Group_948" data-name="Group 948" transform="translate(0 0)" clip-path="url(#clip-path)">
        <path id="Path_527" data-name="Path 527" d="M6.263,30.531l.113.039a1.487,1.487,0,0,0,.468.074,1.559,1.559,0,0,0,1.421-.866L19.317,2.158a1.531,1.531,0,0,0,0-1.2,1.566,1.566,0,0,0-.878-.843A1.723,1.723,0,0,0,17.83,0h-.02a1.553,1.553,0,0,0-1.432.987L5.384,28.486a1.562,1.562,0,0,0,.878,2.045" transform="translate(15.304 0.002)" fill="#ba98c0"/>
        <path id="Path_528" data-name="Path 528" d="M10.478,25.375l.039.039a1.446,1.446,0,0,0,.113.105l.02.016a1.537,1.537,0,0,0,.991.351,1.6,1.6,0,0,0,1.034-.382l12.969-11a1.586,1.586,0,0,0,0-2.416L12.652,1.077a1.55,1.55,0,0,0-.8-.34L11.821.7l-.308.023a1.569,1.569,0,0,0-1.081.554,1.587,1.587,0,0,0,.2,2.24l11.54,9.769L10.615,23.092a1.569,1.569,0,0,0-.137,2.283" transform="translate(29.177 2.028)" fill="#ba98c0"/>
        <path id="Path_529" data-name="Path 529" d="M13.531,25.5a1.483,1.483,0,0,0,1.007.367,1.543,1.543,0,0,0,1.2-.562,1.566,1.566,0,0,0-.176-2.236L4.043,13.3l11.54-9.772a1.56,1.56,0,0,0,.176-2.24A1.55,1.55,0,0,0,14.678.728L14.085.689V.8a1.74,1.74,0,0,0-.57.312L.558,12.085A1.583,1.583,0,0,0,0,13.287a1.548,1.548,0,0,0,.554,1.2Z" transform="translate(0 2.002)" fill="#ba98c0"/>
      </g>
    </g>
    <rect id="Rectangle_286" data-name="Rectangle 286" width="136.492" height="10.244" transform="translate(536.258 2563.571)" fill="#0f775e"/>
    <rect id="Rectangle_287" data-name="Rectangle 287" width="102.437" height="10.244" transform="translate(536.258 2584.059)" fill="#0f775e"/>
    <rect id="Rectangle_288" data-name="Rectangle 288" width="128.046" height="10.244" transform="translate(536.258 2601.985)" fill="#0f775e"/>
    <rect id="Rectangle_307" data-name="Rectangle 307" width="128.046" height="10.244" transform="translate(536.258 2619.912)" fill="#0f775e"/>
    <rect id="Rectangle_289" data-name="Rectangle 289" width="139.57" height="81.949" rx="4" transform="translate(622.048 2606.304)" fill="#d3d3d3"/>
    <rect id="Rectangle_290" data-name="Rectangle 290" width="139.57" height="79.388" rx="4" transform="translate(634.853 2617.828)" fill="#f1f1f1"/>
    <line id="Line_36" data-name="Line 36" x2="114.601" transform="translate(647.017 2686.735)" fill="none" stroke="#0d61a5" stroke-width="2"/>
    <line id="Line_37" data-name="Line 37" x2="114.601" transform="translate(647.017 2672.888)" fill="none" stroke="#0d61a5" stroke-width="2"/>
    <line id="Line_38" data-name="Line 38" x2="114.601" transform="translate(647.017 2659.041)" fill="none" stroke="#0d61a5" stroke-width="2"/>
    <line id="Line_39" data-name="Line 39" x2="114.601" transform="translate(647.017 2645.193)" fill="none" stroke="#0d61a5" stroke-width="2"/>
    <line id="Line_40" data-name="Line 40" x2="114.601" transform="translate(647.017 2631.346)" fill="none" stroke="#0d61a5" stroke-width="2"/>
    <line id="Line_41" data-name="Line 41" y1="55.462" transform="translate(723.845 2631.273)" fill="none" stroke="#0d61a5" stroke-width="2"/>
    <line id="Line_44" data-name="Line 44" y1="55.462" transform="translate(762.258 2631.273)" fill="none" stroke="#0d60a4" stroke-width="2"/>
    <line id="Line_42" data-name="Line 42" y1="55.462" transform="translate(685.431 2631.273)" fill="none" stroke="#0d61a5" stroke-width="2"/>
    <line id="Line_43" data-name="Line 43" y1="55.462" transform="translate(647.017 2631.273)" fill="none" stroke="#0d60a4" stroke-width="2"/>
  </g>
</svg>
