<?xml version="1.0" encoding="UTF-8"?>
<!DOCTYPE svg PUBLIC "-//W3C//DTD SVG 1.1//EN" "http://www.w3.org/Graphics/SVG/1.1/DTD/svg11.dtd">
<!-- Creator: CorelDRAW X5 -->
<svg xmlns="http://www.w3.org/2000/svg" xml:space="preserve" width="210mm" height="47.9158mm" style="shape-rendering:geometricPrecision; text-rendering:geometricPrecision; image-rendering:optimizeQuality; fill-rule:evenodd; clip-rule:evenodd"
viewBox="0 0 21000 4792"
 xmlns:xlink="http://www.w3.org/1999/xlink">
 <defs>
  <style type="text/css">
   <![CDATA[
    .fil0 {fill:black;fill-rule:nonzero}
    .fil1 {fill:#00EF00;fill-rule:nonzero}
   ]]>
  </style>
 </defs>
 <g id="Layer_x0020_1">
  <metadata id="CorelCorpID_0Corel-Layer"/>
  <g id="_348462120">
   <path id="Shape" class="fil0" d="M18915 3086c0,-455 345,-773 839,-773 494,0 839,318 839,773 0,311 -163,560 -423,684l-423 -422 0 511c-488,0 -833,-318 -833,-773m1753 1706l0 -521 -224 -226c342,-196 556,-540 556,-959 0,-655 -524,-1130 -1246,-1130 -722,0 -1246,475 -1246,1130 0,655 524,1130 1246,1130 107,0 211,-10 309,-33l605 609zm-3835 -642l1529 0 0 -350 -556 0 0 -1428 556 0 0 -350 -1529 0 0 350 556 0 0 1428 -556 0 0 350zm-1906 0l400 0 0 -884c0,-249 153,-390 416,-390 263,0 413,141 413,390l0 884 403 0 0 -904c0,-422 -267,-684 -693,-684 -263,0 -462,98 -573,272l0 -223 -368 0 0 1539 0 0zm-1135 -1300c286,0 446,121 481,364l-979 0c49,-236 221,-364 498,-364m23 1349c459,0 777,-196 839,-511l-420 0c-46,138 -189,213 -420,213 -306,0 -491,-141 -530,-399l1379 0 0 -154c0,-478 -342,-786 -872,-786 -546,0 -898,321 -898,819 0,488 371,819 921,819m-1887 0c498,0 791,-196 791,-530 0,-311 -254,-390 -589,-429l-397 -46c-156,-16 -237,-52 -237,-157 0,-124 127,-190 377,-190 277,0 400,69 433,239l387 0c-26,-341 -309,-524 -813,-524 -488,0 -771,196 -771,530 0,311 254,390 589,429l397 46c156,16 241,52 241,157 0,121 -140,190 -400,190 -293,0 -423,-79 -455,-246l-390 0c36,341 325,530 839,530m-1526 -49l400 0 0 -2128 -400 0 0 2128zm-1135 -1300c286,0 446,121 481,364l-979 0c49,-236 221,-364 498,-364m23 1349c459,0 777,-196 839,-511l-420 0c-46,138 -189,213 -420,213 -306,0 -491,-141 -530,-399l1379 0 0 -154c0,-478 -342,-786 -872,-786 -547,0 -898,321 -898,819 0,488 371,819 921,819m-1591 -49l400 0 0 -1539 -400 0 0 1539zm-7 -1729l410 0 0 -399 -410 0 0 399zm-2664 1729l416 0 0 -1516 1506 1516 358 0 0 -2128 -416 0 0 1516 -1506 -1516 -358 0 0 2128z"/>
   <path id="Shape_0" class="fil1" d="M4239 4205l0 -2102 -2120 -2102 0 2102 2120 2102zm-2120 0l0 -2102 -2120 -2102 0 2102 2120 2102z"/>
  </g>
 </g>
</svg>
