<svg xmlns="http://www.w3.org/2000/svg" width="200" height="43"><g fill="#FF6352" fill-rule="evenodd"><path d="M14.948 24.675L0 .705h9.659l9.604 16.374L28.67.704h9.493L23.159 24.73v17.363h-8.21V24.675zm68.194 17.417v-4.488c-1.076 1.6-2.491 2.86-4.245 3.782a11.783 11.783 0 01-5.553 1.384c-1.986 0-3.768-.443-5.345-1.328-1.578-.882-2.719-2.127-3.424-3.727-.706-1.6-1.057-3.81-1.057-6.632V12.11h7.821v13.778c0 4.216.143 6.798.432 7.75.288.948.811 1.701 1.573 2.258.76.554 1.725.832 2.895.832 1.337 0 2.533-.372 3.59-1.114 1.058-.745 1.783-1.666 2.172-2.768.39-1.102.585-3.797.585-8.088V12.11h7.822v29.982h-7.266zm30.986-15.216v-6.972h17.761v16.485c-1.726 1.695-4.227 3.186-7.502 4.474-3.275 1.29-6.594 1.935-9.952 1.935-4.267 0-7.99-.908-11.163-2.725-3.173-1.817-5.558-4.412-7.153-7.79-1.597-3.378-2.395-7.056-2.395-11.026 0-4.31.891-8.139 2.672-11.49 1.781-3.35 4.39-5.918 7.823-7.706C106.837.687 110.092 0 113.99 0c5.066 0 9.024 1.076 11.873 3.231s4.681 5.135 5.498 8.936l-8.184 1.554c-.576-2.034-1.656-3.638-3.243-4.813-1.587-1.18-3.568-1.767-5.944-1.767-3.6 0-6.462 1.159-8.587 3.475-2.126 2.313-3.186 5.748-3.186 10.303 0 4.913 1.075 8.596 3.227 11.051 2.154 2.456 4.974 3.684 8.463 3.684 1.726 0 3.455-.344 5.192-1.03 1.735-.686 3.224-1.519 4.468-2.498v-5.25h-9.438zm61.416 15.216L163.629 12.11h8.212l5.568 15.302 1.615 5.108c.426-1.297.695-2.152.806-2.568.262-.847.54-1.693.836-2.54l5.623-15.302h8.046l-11.748 29.982h-7.043zm20.5-39.614a4 4 0 011.947.52c.632.344 1.126.84 1.479 1.483a4.12 4.12 0 01.53 2.014c0 .691-.174 1.356-.522 1.995a3.702 3.702 0 01-1.463 1.487 3.971 3.971 0 01-1.971.529 3.966 3.966 0 01-1.968-.529 3.725 3.725 0 01-1.467-1.487 4.099 4.099 0 01-.525-1.995c0-.699.178-1.37.532-2.014a3.682 3.682 0 011.482-1.484 4.006 4.006 0 011.946-.519zm0 .665c-.555 0-1.097.144-1.623.433-.526.29-.938.703-1.235 1.24a3.425 3.425 0 00-.446 1.679c0 .578.146 1.133.439 1.662.29.53.699.945 1.224 1.24a3.28 3.28 0 001.64.445 3.29 3.29 0 001.644-.445 3.099 3.099 0 001.222-1.24c.29-.53.435-1.084.435-1.662 0-.582-.147-1.141-.443-1.679a3.065 3.065 0 00-1.235-1.24 3.334 3.334 0 00-1.622-.433zM30.47 26.678c0-2.635.64-5.183 1.921-7.651 1.28-2.464 3.094-4.347 5.443-5.647 2.346-1.298 4.968-1.947 7.863-1.947 4.472 0 8.138 1.472 10.996 4.417 2.858 2.946 4.287 6.666 4.287 11.167 0 4.535-1.444 8.293-4.33 11.278-2.885 2.984-6.518 4.475-10.898 4.475-2.71 0-5.293-.62-7.752-1.864-2.46-1.242-4.328-3.063-5.609-5.463-1.28-2.4-1.921-5.32-1.921-8.765zm8.017.423c0 2.974.697 5.25 2.088 6.833 1.393 1.58 3.109 2.371 5.15 2.371 2.042 0 3.754-.79 5.136-2.371 1.382-1.583 2.074-3.878 2.074-6.89 0-2.937-.692-5.194-2.074-6.775-1.382-1.582-3.094-2.37-5.136-2.37-2.041 0-3.757.788-5.15 2.37-1.391 1.581-2.088 3.858-2.088 6.832zm95.715-.423c0-2.635.639-5.183 1.92-7.651 1.28-2.464 3.094-4.347 5.443-5.647 2.348-1.298 4.968-1.947 7.863-1.947 4.473 0 8.138 1.472 10.997 4.417 2.857 2.946 4.286 6.666 4.286 11.167 0 4.535-1.443 8.293-4.327 11.278-2.887 2.984-6.52 4.475-10.9 4.475-2.71 0-5.294-.62-7.752-1.864-2.46-1.242-4.33-3.063-5.61-5.463-1.281-2.4-1.92-5.32-1.92-8.765zm8.017.423c0 2.974.696 5.25 2.088 6.833 1.391 1.58 3.108 2.371 5.15 2.371 2.04 0 3.752-.79 5.136-2.371 1.38-1.583 2.074-3.878 2.074-6.89 0-2.937-.693-5.194-2.074-6.775-1.384-1.582-3.096-2.37-5.136-2.37-2.042 0-3.759.788-5.15 2.37-1.392 1.581-2.088 3.858-2.088 6.832zm52.089-18.388v-4.32h1.463c.5 0 .863.04 1.085.12.225.08.404.22.536.418.133.198.2.409.2.632 0 .317-.112.591-.334.825-.222.234-.516.366-.884.394.15.064.272.14.362.228.172.17.382.457.63.858l.52.845h-.84l-.378-.68c-.297-.536-.536-.87-.719-1.006-.125-.099-.31-.149-.55-.149h-.405v1.835h-.686zm.686-2.431h.835c.398 0 .67-.06.816-.181a.59.59 0 00.217-.479.582.582 0 00-.105-.343.621.621 0 00-.291-.227c-.124-.048-.353-.074-.69-.074h-.782v1.304z"/></g></svg>