<?xml version="1.0" encoding="UTF-8"?>
<svg width="388px" height="247px" viewBox="0 0 388 247" version="1.1" xmlns="http://www.w3.org/2000/svg" xmlns:xlink="http://www.w3.org/1999/xlink">
    <title>Group 8</title>
    <defs>
        <polygon id="path-1" points="0.0006 0.309198981 9.68985 0.309198981 9.68985 10 0.0006 10"></polygon>
        <polygon id="path-3" points="0 0.14034965 17.7867789 0.14034965 17.7867789 3.92664336 0 3.92664336"></polygon>
        <polygon id="path-5" points="0 0.14034965 17.7867789 0.14034965 17.7867789 3.92664336 0 3.92664336"></polygon>
        <polygon id="path-7" points="0 0.14034965 17.7867789 0.14034965 17.7867789 3.92664336 0 3.92664336"></polygon>
    </defs>
    <g id="Page-1" stroke="none" stroke-width="1" fill="none" fill-rule="evenodd">
        <g id="Audience:-brnads" transform="translate(-374.000000, -466.000000)">
            <g id="Group-8" transform="translate(374.000000, 466.000000)">
                <g id="Group-5-Copy-2" transform="translate(136.000000, 141.852540)"></g>
                <g id="Group-8-Copy-2" transform="translate(126.000000, 141.852540)"></g>
                <g id="Group-21-Copy-2" transform="translate(28.000000, 0.000000)">
                    <path d="M261.054393,2 C261.330536,2 261.580536,2.11192881 261.7615,2.29289322 C261.942464,2.47385763 262.054393,2.72385763 262.054393,3 L262.054393,3 L262.054393,168.769231 L22.1297071,168.769231 L22.1297071,3 C22.1297071,2.72385763 22.2416359,2.47385763 22.4226003,2.29289322 C22.6035647,2.11192881 22.8535647,2 23.1297071,2 L23.1297071,2 Z" id="Rectangle" stroke="#D3D3D3" stroke-width="4" fill="#F9F9F9"></path>
                    <path d="M2,169.583333 L281,169.583333 C282.104569,169.583333 283,170.478764 283,171.583333 L283,180 C283,182.761424 280.761424,185 278,185 L5,185 C2.23857625,185 3.38176876e-16,182.761424 0,180 L0,171.583333 C-1.3527075e-16,170.478764 0.8954305,169.583333 2,169.583333 Z" id="Rectangle" fill="#D3D3D3"></path>
                </g>
                <g id="Group-17-Copy-3" transform="translate(57.000000, 8.000000)" fill="#F1F1F1" stroke="#E5E5E5">
                    <rect id="Rectangle" x="0.5" y="0.5" width="226" height="153" rx="1"></rect>
                </g>
                <g id="Group-6-Copy-3" transform="translate(269.000000, 178.500000) scale(-1, 1) translate(-269.000000, -178.500000) translate(264.000000, 173.000000)">
                    <g id="Group-5" transform="translate(0.000000, 0.505300)">
                        <mask id="mask-2" fill="white">
                            <use xlink:href="#path-1"></use>
                        </mask>
                        <g id="Clip-4"></g>
                    </g>
                </g>
                <g id="Group-17-Copy-9" transform="translate(182.000000, 19.000000)" fill="#FFFFFF" stroke="#E5E5E5">
                    <rect id="Rectangle" x="0.5" y="0.5" width="89" height="131" rx="1"></rect>
                </g>
                <g id="Group-23-Copy-2" transform="translate(69.000000, 107.000000)">
                    <g id="Group-17-Copy-7" fill="#FFFFFF" stroke="#E5E5E5">
                        <rect id="Rectangle" x="0.5" y="0.5" width="106" height="43" rx="1"></rect>
                    </g>
                    <rect id="Rectangle" stroke="#E5E5E5" fill="#F1F1F1" x="8.5" y="7.5" width="90" height="28" rx="1"></rect>
                    <g id="Group-22" transform="translate(29.000000, 11.000000)">
                        <rect id="Rectangle" fill="#D3D3D3" x="1" y="5" width="6.57777778" height="2" rx="0.5"></rect>
                        <rect id="Rectangle-Copy-3" fill="#D3D3D3" x="1" y="10" width="6.57777778" height="2" rx="0.5"></rect>
                        <rect id="Rectangle-Copy-9" fill="#D3D3D3" x="1" y="15" width="6.57777778" height="2" rx="0.5"></rect>
                        <rect id="Rectangle-Copy-10" fill="#D3D3D3" x="1" y="20" width="6.57777778" height="2" rx="0.5"></rect>
                        <rect id="Rectangle-Copy-4" fill="#107F65" x="-8.2600593e-14" y="0" width="8.388889" height="2" rx="0.5"></rect>
                    </g>
                    <g id="Group-21" transform="translate(43.000000, 11.000000)">
                        <rect id="Rectangle-Copy-107" fill="#D3D3D3" x="1" y="5" width="6.57777778" height="2" rx="0.5"></rect>
                        <rect id="Rectangle-Copy-108" fill="#D3D3D3" x="1" y="10" width="6.57777778" height="2" rx="0.5"></rect>
                        <rect id="Rectangle-Copy-109" fill="#D3D3D3" x="1" y="15" width="6.57777778" height="2" rx="0.5"></rect>
                        <rect id="Rectangle-Copy-110" fill="#D3D3D3" x="1" y="20" width="6.57777778" height="2" rx="0.5"></rect>
                        <rect id="Rectangle-Copy-111" fill="#107F65" x="-8.2600593e-14" y="0" width="8.388889" height="2" rx="0.5"></rect>
                    </g>
                    <g id="Group-20" transform="translate(57.000000, 11.000000)">
                        <rect id="Rectangle-Copy-112" fill="#D3D3D3" x="1" y="5" width="6.57777778" height="2" rx="0.5"></rect>
                        <rect id="Rectangle-Copy-113" fill="#D3D3D3" x="1" y="10" width="6.57777778" height="2" rx="0.5"></rect>
                        <rect id="Rectangle-Copy-114" fill="#D3D3D3" x="1" y="15" width="6.57777778" height="2" rx="0.5"></rect>
                        <rect id="Rectangle-Copy-115" fill="#D3D3D3" x="1" y="20" width="6.57777778" height="2" rx="0.5"></rect>
                        <rect id="Rectangle-Copy-116" fill="#107F65" x="-8.2600593e-14" y="0" width="8.388889" height="2" rx="0.5"></rect>
                    </g>
                    <g id="Group-19" transform="translate(71.000000, 11.000000)">
                        <rect id="Rectangle-Copy-117" fill="#D3D3D3" x="1" y="5" width="6.57777778" height="2" rx="0.5"></rect>
                        <rect id="Rectangle-Copy-118" fill="#D3D3D3" x="1" y="10" width="6.57777778" height="2" rx="0.5"></rect>
                        <rect id="Rectangle-Copy-119" fill="#D3D3D3" x="1" y="15" width="6.57777778" height="2" rx="0.5"></rect>
                        <rect id="Rectangle-Copy-120" fill="#D3D3D3" x="1" y="20" width="6.57777778" height="2" rx="0.5"></rect>
                        <rect id="Rectangle-Copy-121" fill="#107F65" x="-8.2600593e-14" y="0" width="8.388889" height="2" rx="0.5"></rect>
                    </g>
                    <g id="Group-18" transform="translate(85.000000, 11.000000)">
                        <rect id="Rectangle-Copy-122" fill="#D3D3D3" x="1" y="5" width="6.57777778" height="2" rx="0.5"></rect>
                        <rect id="Rectangle-Copy-123" fill="#D3D3D3" x="1" y="10" width="6.57777778" height="2" rx="0.5"></rect>
                        <rect id="Rectangle-Copy-124" fill="#D3D3D3" x="1" y="15" width="6.57777778" height="2" rx="0.5"></rect>
                        <rect id="Rectangle-Copy-125" fill="#D3D3D3" x="1" y="20" width="6.57777778" height="2" rx="0.5"></rect>
                        <rect id="Rectangle-Copy-126" fill="#107F65" x="-8.2600593e-14" y="0" width="8.388889" height="2" rx="0.5"></rect>
                    </g>
                    <rect id="Rectangle-Copy-7" fill="#107F65" x="13" y="16" width="9" height="2" rx="0.5"></rect>
                    <rect id="Rectangle-Copy-8" fill="#107F65" x="13" y="21.25" width="9" height="2" rx="0.5"></rect>
                    <rect id="Rectangle-Copy-35" fill="#107F65" x="13" y="26" width="9" height="2" rx="0.5"></rect>
                    <rect id="Rectangle-Copy-36" fill="#107F65" x="13" y="31" width="9" height="2" rx="0.5"></rect>
                </g>
                <g id="Group-13-Copy-2" transform="translate(193.000000, 29.000000)">
                    <polygon id="Rectangle-Copy-17" fill="#0062A6" transform="translate(28.500000, 5.000000) rotate(-360.000000) translate(-28.500000, -5.000000) " points="8.38495939e-14 0 57 0 57 10 8.38495939e-14 10"></polygon>
                    <polygon id="Rectangle-Copy-20" fill="#0062A6" transform="translate(18.500000, 46.000000) rotate(-360.000000) translate(-18.500000, -46.000000) " points="-1.0269563e-15 41 37 41 37 51 -1.0269563e-15 51"></polygon>
                    <polygon id="Rectangle-Copy-23" fill="#0062A6" transform="translate(30.500000, 87.000000) rotate(-360.000000) translate(-30.500000, -87.000000) " points="0 82 61 82 61 92 0 92"></polygon>
                    <polygon id="Rectangle-Copy-18" fill="#722580" transform="translate(34.500000, 15.000000) rotate(-360.000000) translate(-34.500000, -15.000000) " points="6.33909591e-13 10 69 10 69 20 6.33909591e-13 20"></polygon>
                    <rect id="Rectangle-Copy-21" fill="#722580" transform="translate(23.000000, 56.000000) rotate(-360.000000) translate(-23.000000, -56.000000) " x="0" y="51" width="46" height="10"></rect>
                    <polygon id="Rectangle-Copy-24" fill="#722580" transform="translate(27.000000, 97.000000) rotate(-360.000000) translate(-27.000000, -97.000000) " points="2.15827356e-13 92 54 92 54 102 2.15827356e-13 102"></polygon>
                    <polygon id="Rectangle-Copy-19" fill="#107F65" transform="translate(27.000000, 25.000000) rotate(-360.000000) translate(-27.000000, -25.000000) " points="1.13908882e-13 20 54 20 54 30 1.13908882e-13 30"></polygon>
                    <polygon id="Rectangle-Copy-22" fill="#107F65" transform="translate(27.000000, 66.000000) rotate(-360.000000) translate(-27.000000, -66.000000) " points="1.19904087e-13 61 54 61 54 71 1.19904087e-13 71"></polygon>
                    <polygon id="Rectangle-Copy-25" fill="#107F65" transform="translate(34.500000, 107.000000) rotate(-360.000000) translate(-34.500000, -107.000000) " points="8.33083602e-14 102 69 102 69 112 8.33083602e-14 112"></polygon>
                    <line x1="0.376116109" y1="1" x2="0.623883891" y2="112.000003" id="Line-3" stroke="#D3D3D3" stroke-linecap="square"></line>
                </g>
                <g id="Group-17-Copy-10" transform="translate(69.000000, 19.000000)" fill="#FFFFFF" stroke="#E5E5E5">
                    <rect id="Rectangle" x="0.5" y="0.5" width="106" height="82" rx="1"></rect>
                </g>
                <g id="Group-16-Copy-3" transform="translate(77.000000, 29.000000)">
                    <line x1="0.75" y1="0.192073171" x2="0.5" y2="64.5" id="Line-3" stroke="#D3D3D3" stroke-linecap="square"></line>
                    <line x1="89.8065217" y1="63.25" x2="1" y2="64" id="Line-3" stroke="#D3D3D3" stroke-linecap="square"></line>
                    <polyline id="Path-5" stroke="#107F65" points="6 36.7333333 15.3356766 58 34.994691 23.3933333 56.5682484 50.8466667 89 0"></polyline>
                    <polyline id="Path-5-Copy-2" stroke="#722580" points="6 33.3521127 15.3356766 44 34.2714192 28.2253521 56.5682484 38.8732394 89 16"></polyline>
                    <polyline id="Path-5-Copy" stroke="#0062A6" points="4 41.2222222 15.2879222 49 34.451846 33.8333333 56.5472238 41.8055556 89 7"></polyline>
                </g>
                <g id="Group-12-Copy-9" transform="translate(31.000000, 155.000000)" fill="#FFFFFF" stroke="#D3D3D3">
                    <circle id="Oval" cx="32" cy="32" r="31.5"></circle>
                </g>
                <g id="Group-12-Copy-10" transform="translate(138.000000, 156.000000)" fill="#FFFFFF" stroke="#D3D3D3">
                    <circle id="Oval" cx="32" cy="32" r="31.5"></circle>
                </g>
                <rect id="Rectangle-Copy-53" stroke="#BBBBBB" fill="#F1F1F1" x="116.5" y="214.5" width="106" height="32" rx="2"></rect>
                <rect id="Rectangle-Copy-51" stroke="#BBBBBB" fill="#F1F1F1" x="0.5" y="214.5" width="73" height="32" rx="2"></rect>
                <text id="Trackers-Copy-2" font-family="ProximaNova-Regular, Proxima Nova" font-size="16" font-weight="normal" line-spacing="21" fill="#6D7278">
                    <tspan x="7" y="236">Trackers</tspan>
                </text>
                <text id="Custom-data" font-family="ProximaNova-Regular, Proxima Nova" font-size="16" font-weight="normal" line-spacing="21" fill="#6D7278">
                    <tspan x="125" y="236">Custom data</tspan>
                </text>
                <g id="Group-12-Copy-11" transform="translate(244.000000, 155.000000)" fill="#FFFFFF" stroke="#D3D3D3">
                    <circle id="Oval" cx="32" cy="32" r="31.5"></circle>
                </g>
                <rect id="Rectangle-Copy-52" stroke="#BBBBBB" fill="#F1F1F1" x="264.5" y="214.5" width="123" height="32" rx="2"></rect>
                <text id="Syndicated-data" font-family="ProximaNova-Regular, Proxima Nova" font-size="16" font-weight="normal" line-spacing="21" fill="#6D7278">
                    <tspan x="269" y="237">Syndicated data</tspan>
                </text>
                <path d="M76.5080161,201.272515 L48.4926464,201.272515 C47.2047661,201.270528 46.1560447,200.221583 46.1540573,198.934241 L46.1540573,178.374519 L76.5080161,178.375844 C77.7958963,178.375844 78.8446177,179.424127 78.8466052,180.712131 L78.8466052,198.934903 C78.8446177,200.221583 77.7958963,201.270528 76.5080161,201.272515 L76.5080161,201.272515 Z M57.0367776,174.154237 L59.6185005,177.221607 L46.1540573,177.221607 L46.1540573,174.154237 L57.0367776,174.154237 Z M76.5073536,177.221607 L61.1269898,177.221607 L57.7482917,173.205286 C57.6376559,173.07483 57.4760084,173 57.306411,173 L45.5770286,173 C45.4239935,173 45.2789082,173.059599 45.1689349,173.169526 C45.0602866,173.278792 45,173.423154 45,173.578112 L45,198.934241 C45.001325,200.856645 46.5681134,202.423441 48.4926464,202.426752 L76.5073536,202.426752 C78.4312241,202.423441 79.998675,200.856645 80,198.934241 L80,180.712131 C79.998675,178.788402 78.4312241,177.222931 76.5073536,177.221607 L76.5073536,177.221607 Z" id="Fill-1-Copy-5" fill="#107F65"></path>
                <path d="M183.508016,201.272515 L155.492646,201.272515 C154.204766,201.270528 153.156045,200.221583 153.154057,198.934241 L153.154057,178.374519 L183.508016,178.375844 C184.795896,178.375844 185.844618,179.424127 185.846605,180.712131 L185.846605,198.934903 C185.844618,200.221583 184.795896,201.270528 183.508016,201.272515 L183.508016,201.272515 Z M164.036778,174.154237 L166.618501,177.221607 L153.154057,177.221607 L153.154057,174.154237 L164.036778,174.154237 Z M183.507354,177.221607 L168.12699,177.221607 L164.748292,173.205286 C164.637656,173.07483 164.476008,173 164.306411,173 L152.577029,173 C152.423993,173 152.278908,173.059599 152.168935,173.169526 C152.060287,173.278792 152,173.423154 152,173.578112 L152,198.934241 C152.001325,200.856645 153.568113,202.423441 155.492646,202.426752 L183.507354,202.426752 C185.431224,202.423441 186.998675,200.856645 187,198.934241 L187,180.712131 C186.998675,178.788402 185.431224,177.222931 183.507354,177.221607 L183.507354,177.221607 Z" id="Fill-1-Copy-5" fill="#0062A6"></path>
                <path d="M290.508016,201.272515 L262.492646,201.272515 C261.204766,201.270528 260.156045,200.221583 260.154057,198.934241 L260.154057,178.374519 L290.508016,178.375844 C291.795896,178.375844 292.844618,179.424127 292.846605,180.712131 L292.846605,198.934903 C292.844618,200.221583 291.795896,201.270528 290.508016,201.272515 L290.508016,201.272515 Z M271.036778,174.154237 L273.618501,177.221607 L260.154057,177.221607 L260.154057,174.154237 L271.036778,174.154237 Z M290.507354,177.221607 L275.12699,177.221607 L271.748292,173.205286 C271.637656,173.07483 271.476008,173 271.306411,173 L259.577029,173 C259.423993,173 259.278908,173.059599 259.168935,173.169526 C259.060287,173.278792 259,173.423154 259,173.578112 L259,198.934241 C259.001325,200.856645 260.568113,202.423441 262.492646,202.426752 L290.507354,202.426752 C292.431224,202.423441 293.998675,200.856645 294,198.934241 L294,180.712131 C293.998675,178.788402 292.431224,177.222931 290.507354,177.221607 L290.507354,177.221607 Z" id="Fill-1-Copy-5" fill="#722580"></path>
                <circle id="Oval-Copy-4" stroke="#D3D3D3" fill="#FFFFFF" cx="63" cy="151" r="16.5"></circle>
                <circle id="Oval-Copy-5" stroke="#D3D3D3" fill="#FFFFFF" cx="170" cy="151" r="16.5"></circle>
                <circle id="Oval-Copy-6" stroke="#D3D3D3" fill="#FFFFFF" cx="277" cy="151" r="16.5"></circle>
                <g id="Group-6-Copy-6" transform="translate(54.000000, 144.000000)">
                    <g id="Group-3">
                        <mask id="mask-4" fill="white">
                            <use xlink:href="#path-3"></use>
                        </mask>
                        <g id="Clip-2"></g>
                        <path d="M14.4201474,0.14034965 L3.36688421,0.14034965 C1.50972632,0.14034965 -6.31578947e-05,1.64486014 -6.31578947e-05,3.49520979 C-6.31578947e-05,3.73342657 0.193831579,3.92664336 0.432568421,3.92664336 C0.671621053,3.92664336 0.8652,3.73342657 0.8652,3.49520979 C0.8652,2.12097902 1.98751579,1.00258741 3.36688421,1.00258741 L14.4201474,1.00258741 C15.7992,1.00258741 16.9215158,2.12097902 16.9215158,3.49520979 C16.9215158,3.73342657 17.1154105,3.92664336 17.3541474,3.92664336 L17.3541474,3.92664336 C17.5932,3.92664336 17.7867789,3.73342657 17.7867789,3.49520979 C17.7867789,1.64486014 16.2769895,0.14034965 14.4201474,0.14034965" id="Fill-1" fill="#444444" mask="url(#mask-4)"></path>
                    </g>
                    <path d="M8.55122872,3.37678739 C8.38697325,3.23021439 8.14240837,3.23913622 7.98906286,3.39941061 L4.21391449,7.34668511 C4.05087124,7.51715588 4.04965902,7.79341411 4.21179311,7.96420352 C4.3739272,8.13467428 4.63667534,8.13467428 4.79911249,7.96515943 L7.86541667,4.75903446 L7.86541667,14.2907401 C7.86541667,14.5316296 8.05149206,14.7272727 8.28060117,14.7272727 C8.51001333,14.7272727 8.69608872,14.5316296 8.69608872,14.2907401 L8.69608872,4.65547746 L12.4057773,7.98778265 C12.4836623,8.05852005 12.5800336,8.09261421 12.6751927,8.09261421 L12.6754957,8.09261421 C12.7933839,8.09261421 12.9100598,8.04035775 12.9909753,7.9390312 C13.1403811,7.75613359 13.1197734,7.48083127 12.9458202,7.32406189 L8.55122872,3.37678739 Z" id="Fill-4" fill="#444444"></path>
                </g>
                <g id="Group-6-Copy-7" transform="translate(161.000000, 144.000000)">
                    <g id="Group-3">
                        <mask id="mask-6" fill="white">
                            <use xlink:href="#path-5"></use>
                        </mask>
                        <g id="Clip-2"></g>
                        <path d="M14.4201474,0.14034965 L3.36688421,0.14034965 C1.50972632,0.14034965 -6.31578947e-05,1.64486014 -6.31578947e-05,3.49520979 C-6.31578947e-05,3.73342657 0.193831579,3.92664336 0.432568421,3.92664336 C0.671621053,3.92664336 0.8652,3.73342657 0.8652,3.49520979 C0.8652,2.12097902 1.98751579,1.00258741 3.36688421,1.00258741 L14.4201474,1.00258741 C15.7992,1.00258741 16.9215158,2.12097902 16.9215158,3.49520979 C16.9215158,3.73342657 17.1154105,3.92664336 17.3541474,3.92664336 L17.3541474,3.92664336 C17.5932,3.92664336 17.7867789,3.73342657 17.7867789,3.49520979 C17.7867789,1.64486014 16.2769895,0.14034965 14.4201474,0.14034965" id="Fill-1" fill="#444444" mask="url(#mask-6)"></path>
                    </g>
                    <path d="M8.55122872,3.37678739 C8.38697325,3.23021439 8.14240837,3.23913622 7.98906286,3.39941061 L4.21391449,7.34668511 C4.05087124,7.51715588 4.04965902,7.79341411 4.21179311,7.96420352 C4.3739272,8.13467428 4.63667534,8.13467428 4.79911249,7.96515943 L7.86541667,4.75903446 L7.86541667,14.2907401 C7.86541667,14.5316296 8.05149206,14.7272727 8.28060117,14.7272727 C8.51001333,14.7272727 8.69608872,14.5316296 8.69608872,14.2907401 L8.69608872,4.65547746 L12.4057773,7.98778265 C12.4836623,8.05852005 12.5800336,8.09261421 12.6751927,8.09261421 L12.6754957,8.09261421 C12.7933839,8.09261421 12.9100598,8.04035775 12.9909753,7.9390312 C13.1403811,7.75613359 13.1197734,7.48083127 12.9458202,7.32406189 L8.55122872,3.37678739 Z" id="Fill-4" fill="#444444"></path>
                </g>
                <g id="Group-6-Copy-8" transform="translate(268.000000, 144.000000)">
                    <g id="Group-3">
                        <mask id="mask-8" fill="white">
                            <use xlink:href="#path-7"></use>
                        </mask>
                        <g id="Clip-2"></g>
                        <path d="M14.4201474,0.14034965 L3.36688421,0.14034965 C1.50972632,0.14034965 -6.31578947e-05,1.64486014 -6.31578947e-05,3.49520979 C-6.31578947e-05,3.73342657 0.193831579,3.92664336 0.432568421,3.92664336 C0.671621053,3.92664336 0.8652,3.73342657 0.8652,3.49520979 C0.8652,2.12097902 1.98751579,1.00258741 3.36688421,1.00258741 L14.4201474,1.00258741 C15.7992,1.00258741 16.9215158,2.12097902 16.9215158,3.49520979 C16.9215158,3.73342657 17.1154105,3.92664336 17.3541474,3.92664336 L17.3541474,3.92664336 C17.5932,3.92664336 17.7867789,3.73342657 17.7867789,3.49520979 C17.7867789,1.64486014 16.2769895,0.14034965 14.4201474,0.14034965" id="Fill-1" fill="#444444" mask="url(#mask-8)"></path>
                    </g>
                    <path d="M8.55122872,3.37678739 C8.38697325,3.23021439 8.14240837,3.23913622 7.98906286,3.39941061 L4.21391449,7.34668511 C4.05087124,7.51715588 4.04965902,7.79341411 4.21179311,7.96420352 C4.3739272,8.13467428 4.63667534,8.13467428 4.79911249,7.96515943 L7.86541667,4.75903446 L7.86541667,14.2907401 C7.86541667,14.5316296 8.05149206,14.7272727 8.28060117,14.7272727 C8.51001333,14.7272727 8.69608872,14.5316296 8.69608872,14.2907401 L8.69608872,4.65547746 L12.4057773,7.98778265 C12.4836623,8.05852005 12.5800336,8.09261421 12.6751927,8.09261421 L12.6754957,8.09261421 C12.7933839,8.09261421 12.9100598,8.04035775 12.9909753,7.9390312 C13.1403811,7.75613359 13.1197734,7.48083127 12.9458202,7.32406189 L8.55122872,3.37678739 Z" id="Fill-4" fill="#444444"></path>
                </g>
            </g>
        </g>
    </g>
</svg>