<?xml version="1.0" encoding="UTF-8"?>
<svg width="376px" height="282px" viewBox="0 0 376 282" version="1.1" xmlns="http://www.w3.org/2000/svg" xmlns:xlink="http://www.w3.org/1999/xlink">
    <title>Group 11</title>
    <defs>
        <rect id="path-1" x="0" y="0" width="124" height="211"></rect>
        <filter x="-8.1%" y="-3.8%" width="116.1%" height="109.5%" filterUnits="objectBoundingBox" id="filter-2">
            <feOffset dx="0" dy="2" in="SourceAlpha" result="shadowOffsetOuter1"></feOffset>
            <feGaussianBlur stdDeviation="3" in="shadowOffsetOuter1" result="shadowBlurOuter1"></feGaussianBlur>
            <feComposite in="shadowBlurOuter1" in2="SourceAlpha" operator="out" result="shadowBlurOuter1"></feComposite>
            <feColorMatrix values="0 0 0 0 0   0 0 0 0 0   0 0 0 0 0  0 0 0 0.245204259 0" type="matrix" in="shadowBlurOuter1"></feColorMatrix>
        </filter>
    </defs>
    <g id="Page-1" stroke="none" stroke-width="1" fill="none" fill-rule="evenodd">
        <g id="Group-11" transform="translate(6.000000, 0.000000)">
            <rect id="Rectangle" fill="#D3D3D3" x="65" y="0" width="305" height="39" rx="4"></rect>
            <g id="Group-17-Copy" transform="translate(65.000000, 19.000000)" fill="#F9F9F9" stroke="#E5E5E5">
                <rect id="Rectangle" x="0.5" y="0.5" width="304" height="176" rx="1"></rect>
            </g>
            <circle id="Oval" fill="#BBBBBB" cx="75" cy="10" r="3"></circle>
            <circle id="Oval-Copy-9" fill="#BBBBBB" cx="83" cy="10" r="3"></circle>
            <circle id="Oval-Copy-10" fill="#BBBBBB" cx="91" cy="10" r="3"></circle>
            <g id="Group-13-Copy-4" transform="translate(249.000000, 106.000000) rotate(-90.000000) translate(-249.000000, -106.000000) translate(187.000000, 18.000000)">
                <polygon id="Rectangle-Copy-17" fill="#722580" transform="translate(52.000000, 7.000000) rotate(-360.000000) translate(-52.000000, -7.000000) " points="1 0 103 0 103 14 1 14"></polygon>
                <polygon id="Rectangle-Copy-20" fill="#722580" transform="translate(35.000000, 73.000000) rotate(-360.000000) translate(-35.000000, -73.000000) " points="1 66 69 66 69 80 1 80"></polygon>
                <polygon id="Rectangle-Copy-23" fill="#722580" transform="translate(56.000000, 140.500000) rotate(-360.000000) translate(-56.000000, -140.500000) " points="1.5 133.5 110.5 133.5 110.5 147.5 1.5 147.5"></polygon>
                <polygon id="Rectangle-Copy-18" fill="#107F65" transform="translate(62.000000, 20.500000) rotate(-360.000000) translate(-62.000000, -20.500000) " points="0.5 13.5 123.5 13.5 123.5 27.5 0.5 27.5"></polygon>
                <rect id="Rectangle-Copy-21" fill="#107F65" transform="translate(42.000000, 87.500000) rotate(-360.000000) translate(-42.000000, -87.500000) " x="1.5" y="80.5" width="81" height="14"></rect>
                <polygon id="Rectangle-Copy-24" fill="#107F65" transform="translate(48.000000, 153.500000) rotate(-360.000000) translate(-48.000000, -153.500000) " points="1.5 146.5 94.5 146.5 94.5 160.5 1.5 160.5"></polygon>
                <polygon id="Rectangle-Copy-19" fill="#0062A6" transform="translate(48.000000, 34.500000) rotate(-360.000000) translate(-48.000000, -34.500000) " points="1.5 27.5 94.5 27.5 94.5 41.5 1.5 41.5"></polygon>
                <polygon id="Rectangle-Copy-22" fill="#0062A6" transform="translate(48.000000, 100.500000) rotate(-360.000000) translate(-48.000000, -100.500000) " points="1.5 93.5 94.5 93.5 94.5 107.5 1.5 107.5"></polygon>
                <polygon id="Rectangle-Copy-25" fill="#0062A6" transform="translate(62.000000, 168.500000) rotate(-360.000000) translate(-62.000000, -168.500000) " points="0.5 161.5 123.5 161.5 123.5 175.5 0.5 175.5"></polygon>
                <line x1="0.75" y1="1.17469714" x2="0.8125" y2="174.454089" id="Line-3" stroke="#D3D3D3" stroke-linecap="square"></line>
            </g>
            <g id="Group-12" transform="translate(0.000000, 63.000000)">
                <g id="Rectangle">
                    <use fill="black" fill-opacity="1" filter="url(#filter-2)" xlink:href="#path-1"></use>
                    <rect stroke="#E5E5E5" stroke-width="1" stroke-linejoin="square" fill="#F9F9F9" fill-rule="evenodd" x="0.5" y="0.5" width="123" height="210"></rect>
                </g>
                <text id="Demographics" font-family="ProximaNova-Semibold, Proxima Nova" font-size="12" font-weight="500" line-spacing="21" fill="#6D7278">
                    <tspan x="7" y="14">Demographics</tspan>
                </text>
                <text id="Purchase-decision" font-family="ProximaNova-Semibold, Proxima Nova" font-size="12" font-weight="500" line-spacing="21" fill="#6D7278">
                    <tspan x="7" y="121">Purchase decision</tspan>
                </text>
                <text id="Gender" font-family="ProximaNova-Regular, Proxima Nova" font-size="12" font-weight="normal" line-spacing="21" fill="#6D7278">
                    <tspan x="7" y="31">Gender</tspan>
                </text>
                <text id="Awareness" font-family="ProximaNova-Regular, Proxima Nova" font-size="12" font-weight="normal" line-spacing="21" fill="#6D7278">
                    <tspan x="7" y="138">Awareness</tspan>
                </text>
                <text id="Income" font-family="ProximaNova-Regular, Proxima Nova" font-size="12" font-weight="normal" line-spacing="21" fill="#6D7278">
                    <tspan x="7" y="69">Income</tspan>
                </text>
                <text id="Last-purchased" font-family="ProximaNova-Regular, Proxima Nova" font-size="12" font-weight="normal" line-spacing="21" fill="#6D7278">
                    <tspan x="7" y="176">Last purchased</tspan>
                </text>
                <text id="Education" font-family="ProximaNova-Regular, Proxima Nova" font-size="12" font-weight="normal" line-spacing="21" fill="#6D7278">
                    <tspan x="7" y="50">Education</tspan>
                </text>
                <text id="Prefered-brand" font-family="ProximaNova-Regular, Proxima Nova" font-size="12" font-weight="normal" line-spacing="21" fill="#6D7278">
                    <tspan x="7" y="157">Prefered brand</tspan>
                </text>
                <text id="Marital-status" font-family="ProximaNova-Regular, Proxima Nova" font-size="12" font-weight="normal" line-spacing="21" fill="#6D7278">
                    <tspan x="7" y="88">Marital status</tspan>
                </text>
                <text id="Intend-to-purchase" font-family="ProximaNova-Regular, Proxima Nova" font-size="12" font-weight="normal" line-spacing="21" fill="#6D7278">
                    <tspan x="7" y="195">Intend to purchase</tspan>
                </text>
            </g>
            <rect id="Rectangle-Copy" fill="#D3D3D3" x="74" y="28" width="48" height="5" rx="0.5"></rect>
            <rect id="Rectangle-Copy-15" fill="#D3D3D3" x="74" y="37" width="38" height="5" rx="0.5"></rect>
            <rect id="Rectangle-Copy-16" fill="#D3D3D3" x="74" y="46" width="38" height="5" rx="0.5"></rect>
            <rect id="Rectangle-Copy-43" fill="#D3D3D3" x="74" y="55" width="46" height="5" rx="0.5"></rect>
            <line x1="131.5" y1="19.5" x2="131.5" y2="193.5" id="Line-9" stroke="#D3D3D3" stroke-linecap="square"></line>
        </g>
    </g>
</svg>