<?xml version="1.0" encoding="UTF-8"?>
<svg width="597px" height="244px" viewBox="0 0 597 244" version="1.1" xmlns="http://www.w3.org/2000/svg" xmlns:xlink="http://www.w3.org/1999/xlink">
    <title>Group 17</title>
    <g id="Page-1" stroke="none" stroke-width="1" fill="none" fill-rule="evenodd">
        <g id="Group-17">
            <g id="Group-17-Copy-13" transform="translate(368.000000, 42.000000)" fill="#F9F9F9" stroke="#E5E5E5">
                <rect id="Rectangle" x="0.5" y="0.5" width="228" height="134" rx="1"></rect>
            </g>
            <g id="Group-5" transform="translate(388.000000, 62.000000)">
                <rect id="Rectangle" fill="#D3D3D3" x="57" y="21" width="17" height="8" rx="0.5"></rect>
                <rect id="Rectangle-Copy" fill="#D3D3D3" x="111" y="21" width="17" height="8" rx="0.5"></rect>
                <rect id="Rectangle-Copy-2" fill="#D3D3D3" x="165" y="21" width="17" height="8" rx="0.5"></rect>
                <rect id="Rectangle-Copy-3" fill="#D3D3D3" x="57" y="44" width="17" height="8" rx="0.5"></rect>
                <rect id="Rectangle-Copy-11" fill="#D3D3D3" x="111" y="44" width="17" height="8" rx="0.5"></rect>
                <rect id="Rectangle-Copy-13" fill="#D3D3D3" x="165" y="44" width="17" height="8" rx="0.5"></rect>
                <rect id="Rectangle-Copy-9" fill="#D3D3D3" x="57" y="64" width="17" height="8" rx="0.5"></rect>
                <rect id="Rectangle-Copy-12" fill="#D3D3D3" x="111" y="64" width="17" height="8" rx="0.5"></rect>
                <rect id="Rectangle-Copy-38" fill="#D3D3D3" x="165" y="64" width="17" height="8" rx="0.5"></rect>
                <rect id="Rectangle-Copy-10" fill="#D3D3D3" x="57" y="85" width="17" height="8" rx="0.5"></rect>
                <rect id="Rectangle-Copy-37" fill="#D3D3D3" x="111" y="85" width="17" height="8" rx="0.5"></rect>
                <rect id="Rectangle-Copy-39" fill="#D3D3D3" x="165" y="85" width="17" height="8" rx="0.5"></rect>
                <rect id="Rectangle-Copy-4" fill="#107F65" x="46" y="0" width="37" height="8" rx="0.5"></rect>
                <rect id="Rectangle-Copy-7" fill="#107F65" x="0" y="21" width="37" height="8" rx="0.5"></rect>
                <rect id="Rectangle-Copy-8" fill="#107F65" x="0" y="44" width="37" height="8" rx="0.5"></rect>
                <rect id="Rectangle-Copy-35" fill="#107F65" x="0" y="64" width="37" height="8" rx="0.5"></rect>
                <rect id="Rectangle-Copy-36" fill="#107F65" x="0" y="85" width="37" height="8" rx="0.5"></rect>
                <rect id="Rectangle-Copy-5" fill="#107F65" x="99" y="0" width="37" height="8" rx="0.5"></rect>
                <rect id="Rectangle-Copy-6" fill="#107F65" x="153" y="0" width="37" height="8" rx="0.5"></rect>
            </g>
            <rect id="Rectangle-Copy-40" stroke="#BBBBBB" fill="#F1F1F1" x="0.5" y="155.5" width="265" height="88" rx="2"></rect>
            <line x1="1.5" y1="199.5" x2="265.5" y2="199.5" id="Line-7" stroke="#BBBBBB" stroke-linecap="square"></line>
            <g id="Group-14">
                <rect id="Rectangle-Copy-40" stroke="#BBBBBB" fill="#F1F1F1" x="0.5" y="0.5" width="265" height="44" rx="2"></rect>
                <text id="Brand_tracker_latest" font-family="ProximaNova-Regular, Proxima Nova" font-size="22" font-weight="normal" line-spacing="21" fill="#6D7278">
                    <tspan x="51" y="32">Brand_tracker_latest</tspan>
                </text>
                <path d="M30.0663573,17.4604092 L25.2322506,17.4604092 L25.2322506,12.8411306 L30.0663573,17.4604092 Z M30.875,33.9090909 L15.125,33.9090909 L15.125,12.0909091 L24.1077726,12.0909091 L24.1077726,18.0056106 C24.1077726,18.2916262 24.37558,18.5513183 24.6700116,18.5513183 L30.875,18.5513183 L30.875,33.9090909 Z M31.437239,35 C31.7316705,35 32,34.740308 32,34.4547986 L32,18.0395275 C32,17.8299515 31.9243039,17.7190888 31.7890951,17.5793714 L25.0918213,11.1786965 C24.937819,11.0369542 24.8041763,11.0010124 24.599536,11 L14.562239,11 C14.2678074,11 14,11.259692 14,11.5452014 L14,34.4542923 C14,34.7398017 14.2678074,35 14.562239,35 L31.437239,35 Z" id="Fill-1" fill="#0062A6"></path>
            </g>
            <text id="2019-brand_tracker" font-family="ProximaNova-Regular, Proxima Nova" font-size="22" font-weight="normal" line-spacing="21" fill="#6D7278">
                <tspan x="51" y="187">2019 brand_tracker</tspan>
            </text>
            <text id="2018-brand_tracker" font-family="ProximaNova-Regular, Proxima Nova" font-size="22" font-weight="normal" line-spacing="21" fill="#6D7278">
                <tspan x="51" y="231">2018 brand_tracker</tspan>
            </text>
            <path d="M265.363636,22.8572388 C274.883466,23.1915198 316.640605,29.6853847 316.640605,73.6853847 C316.640605,99.6388367 331.548282,112.077042 361.363636,111" id="Path-4-Copy-2" stroke="#0062A6" stroke-width="1.5"></path>
            <path d="M265.363636,110.857239 C274.883466,111.19152 316.640605,117.685385 316.640605,161.685385 C316.640605,187.638837 331.548282,200.077042 361.363636,199" id="Path-4-Copy-3" stroke="#0062A6" stroke-width="1.5" transform="translate(313.363636, 154.960806) scale(1, -1) translate(-313.363636, -154.960806) "></path>
            <g id="Group-11-Copy" transform="translate(351.000000, 94.000000)">
                <circle id="Oval" fill="#0063AB" cx="15.5" cy="15.5" r="15.5"></circle>
                <line x1="15.5" y1="8.39473684" x2="15.5" y2="22.6052632" id="Line-6" stroke="#FFFFFF" stroke-linecap="square"></line>
                <line x1="22.6190476" y1="15.5" x2="7.38095238" y2="15.5" id="Line-6" stroke="#FFFFFF" stroke-linecap="square"></line>
            </g>
            <path d="M30.0663573,171.460409 L25.2322506,171.460409 L25.2322506,166.841131 L30.0663573,171.460409 Z M30.875,187.909091 L15.125,187.909091 L15.125,166.090909 L24.1077726,166.090909 L24.1077726,172.005611 C24.1077726,172.291626 24.37558,172.551318 24.6700116,172.551318 L30.875,172.551318 L30.875,187.909091 Z M31.437239,189 C31.7316705,189 32,188.740308 32,188.454799 L32,172.039528 C32,171.829951 31.9243039,171.719089 31.7890951,171.579371 L25.0918213,165.178696 C24.937819,165.036954 24.8041763,165.001012 24.599536,165 L14.562239,165 C14.2678074,165 14,165.259692 14,165.545201 L14,188.454292 C14,188.739802 14.2678074,189 14.562239,189 L31.437239,189 Z" id="Fill-1" fill="#0062A6"></path>
            <path d="M30.0663573,216.460409 L25.2322506,216.460409 L25.2322506,211.841131 L30.0663573,216.460409 Z M30.875,232.909091 L15.125,232.909091 L15.125,211.090909 L24.1077726,211.090909 L24.1077726,217.005611 C24.1077726,217.291626 24.37558,217.551318 24.6700116,217.551318 L30.875,217.551318 L30.875,232.909091 Z M31.437239,234 C31.7316705,234 32,233.740308 32,233.454799 L32,217.039528 C32,216.829951 31.9243039,216.719089 31.7890951,216.579371 L25.0918213,210.178696 C24.937819,210.036954 24.8041763,210.001012 24.599536,210 L14.562239,210 C14.2678074,210 14,210.259692 14,210.545201 L14,233.454292 C14,233.739802 14.2678074,234 14.562239,234 L31.437239,234 Z" id="Fill-1" fill="#0062A6"></path>
        </g>
    </g>
</svg>