<svg xmlns="http://www.w3.org/2000/svg" width="347.435" height="215.592" viewBox="0 0 347.435 215.592">
  <g id="Group_986" data-name="Group 986" transform="translate(-113.636 -2224.365)">
    <g id="Group_972" data-name="Group 972" transform="translate(-136.413 -89.939)">
      <rect id="Rectangle_320" data-name="Rectangle 320" width="187.57" height="110.133" rx="4" transform="translate(250.049 2314.304)" fill="#ccc"/>
      <rect id="Rectangle_289" data-name="Rectangle 289" width="187.57" height="110.133" rx="4" transform="translate(267.52 2329.087)" fill="#d3d3d3"/>
      <g id="Group_971" data-name="Group 971" transform="translate(284.727 2344.574)">
        <rect id="Rectangle_290" data-name="Rectangle 290" width="187.57" height="106.691" rx="4" fill="#f1f1f1"/>
        <line id="Line_36" data-name="Line 36" x2="154.014" transform="translate(16.349 92.606)" fill="none" stroke="#0c6752" stroke-width="2"/>
        <line id="Line_37" data-name="Line 37" x2="154.014" transform="translate(16.349 73.996)" fill="none" stroke="#0c6752" stroke-width="2"/>
        <line id="Line_38" data-name="Line 38" x2="154.014" transform="translate(16.349 55.386)" fill="none" stroke="#0c6752" stroke-width="2"/>
        <line id="Line_39" data-name="Line 39" x2="154.014" transform="translate(16.349 36.777)" fill="none" stroke="#0c6752" stroke-width="2"/>
        <line id="Line_40" data-name="Line 40" x2="154.014" transform="translate(16.349 18.167)" fill="none" stroke="#0c6752" stroke-width="2"/>
        <line id="Line_41" data-name="Line 41" y1="74.537" transform="translate(119.598 18.069)" fill="none" stroke="#0c6752" stroke-width="2"/>
        <line id="Line_44" data-name="Line 44" y1="74.537" transform="translate(171.222 18.069)" fill="none" stroke="#0c6752" stroke-width="2"/>
        <line id="Line_42" data-name="Line 42" y1="74.537" transform="translate(67.973 18.069)" fill="none" stroke="#0c6752" stroke-width="2"/>
        <line id="Line_43" data-name="Line 43" y1="74.537" transform="translate(16.349 18.069)" fill="none" stroke="#0c6752" stroke-width="2"/>
      </g>
    </g>
    <path id="Path_534" data-name="Path 534" d="M8,0H159.74a8,8,0,0,1,8,8V98.278a8,8,0,0,1-8,8H8a8,8,0,0,1-8-8V8A8,8,0,0,1,8,0Z" transform="translate(293.331 2333.679)" fill="#fff"/>
    <g id="Group_951" data-name="Group 951" transform="translate(376.504 2365.475) rotate(90)">
      <path id="Rectangle_291" data-name="Rectangle 291" d="M1,0H13.939a1,1,0,0,1,1,1V79.425a0,0,0,0,1,0,0H0a0,0,0,0,1,0,0V1A1,1,0,0,1,1,0Z" transform="translate(8.442 -22.221)" fill="#8eb7ad"/>
      <path id="Rectangle_292" data-name="Rectangle 292" d="M1,0H13.939a1,1,0,0,1,1,1V99.122a0,0,0,0,1,0,0H0a0,0,0,0,1,0,0V1A1,1,0,0,1,1,0Z" transform="translate(26.182 -41.918)" fill="#107f65"/>
      <path id="Rectangle_293" data-name="Rectangle 293" d="M1,0H13.939a1,1,0,0,1,1,1V87.166a0,0,0,0,1,0,0H0a0,0,0,0,1,0,0V1A1,1,0,0,1,1,0Z" transform="translate(43.922 -29.961)" fill="#0c6752"/>
      <line id="Line_45" data-name="Line 45" x2="50.283" transform="translate(8.191 56.801)" fill="none" stroke="#084c80" stroke-width="2"/>
    </g>
    <rect id="Rectangle_286" data-name="Rectangle 286" width="115.45" height="7.244" transform="translate(319.299 2351.25)" fill="#0f775e"/>
  </g>
</svg>
