<?xml version="1.0" encoding="UTF-8"?>
<svg width="320px" height="181px" viewBox="0 0 320 181" version="1.1" xmlns="http://www.w3.org/2000/svg" xmlns:xlink="http://www.w3.org/1999/xlink">
    <title>Group 19</title>
    <g id="Page-1" stroke="none" stroke-width="1" fill="none" fill-rule="evenodd">
        <g id="Group-19">
            <g id="Group-17-Copy" transform="translate(240.000000, 1.000000)" fill="#F1F1F1" stroke="#E5E5E5">
                <rect id="Rectangle" x="0.5" y="0.5" width="79" height="82" rx="1"></rect>
            </g>
            <g id="Group-17-Copy-4" transform="translate(240.000000, 98.000000)" fill="#F1F1F1" stroke="#E5E5E5">
                <rect id="Rectangle" x="0.5" y="0.5" width="79" height="82" rx="1"></rect>
            </g>
            <g id="Group-17-Copy-3" fill="#F1F1F1" stroke="#E5E5E5">
                <rect id="Rectangle" x="0.5" y="0.5" width="220" height="180" rx="1"></rect>
            </g>
            <rect id="Rectangle" fill="#D3D3D3" x="75" y="35" width="16" height="8" rx="0.5"></rect>
            <rect id="Rectangle-Copy" fill="#D3D3D3" x="126" y="35" width="16" height="8" rx="0.5"></rect>
            <rect id="Rectangle-Copy-2" fill="#D3D3D3" x="177" y="35" width="16" height="8" rx="0.5"></rect>
            <rect id="Rectangle-Copy-3" fill="#D3D3D3" x="75" y="56" width="16" height="8" rx="0.5"></rect>
            <rect id="Rectangle-Copy-11" fill="#D3D3D3" x="126" y="56" width="16" height="8" rx="0.5"></rect>
            <rect id="Rectangle-Copy-13" fill="#D3D3D3" x="177" y="56" width="16" height="8" rx="0.5"></rect>
            <rect id="Rectangle-Copy-9" fill="#D3D3D3" x="75" y="75" width="16" height="8" rx="0.5"></rect>
            <rect id="Rectangle-Copy-12" fill="#D3D3D3" x="126" y="75" width="16" height="8" rx="0.5"></rect>
            <rect id="Rectangle-Copy-38" fill="#D3D3D3" x="177" y="75" width="16" height="8" rx="0.5"></rect>
            <rect id="Rectangle-Copy-10" fill="#D3D3D3" x="75" y="95" width="16" height="8" rx="0.5"></rect>
            <rect id="Rectangle-Copy-32" fill="#D3D3D3" x="75" y="114" width="16" height="8" rx="0.5"></rect>
            <rect id="Rectangle-Copy-64" fill="#D3D3D3" x="75" y="135" width="16" height="8" rx="0.5"></rect>
            <rect id="Rectangle-Copy-103" fill="#D3D3D3" x="75" y="156" width="16" height="8" rx="0.5"></rect>
            <rect id="Rectangle-Copy-37" fill="#D3D3D3" x="126" y="95" width="16" height="8" rx="0.5"></rect>
            <rect id="Rectangle-Copy-40" fill="#D3D3D3" x="126" y="114" width="16" height="8" rx="0.5"></rect>
            <rect id="Rectangle-Copy-71" fill="#D3D3D3" x="126" y="135" width="16" height="8" rx="0.5"></rect>
            <rect id="Rectangle-Copy-104" fill="#D3D3D3" x="126" y="156" width="16" height="8" rx="0.5"></rect>
            <rect id="Rectangle-Copy-39" fill="#D3D3D3" x="177" y="95" width="16" height="8" rx="0.5"></rect>
            <rect id="Rectangle-Copy-48" fill="#D3D3D3" x="177" y="114" width="16" height="8" rx="0.5"></rect>
            <rect id="Rectangle-Copy-101" fill="#D3D3D3" x="177" y="135" width="16" height="8" rx="0.5"></rect>
            <rect id="Rectangle-Copy-105" fill="#D3D3D3" x="177" y="156" width="16" height="8" rx="0.5"></rect>
            <rect id="Rectangle-Copy-4" fill="#107F65" x="65" y="15" width="35" height="8" rx="0.5"></rect>
            <rect id="Rectangle-Copy-7" fill="#107F65" x="21" y="35" width="35" height="8" rx="0.5"></rect>
            <rect id="Rectangle-Copy-8" fill="#107F65" x="21" y="56" width="35" height="8" rx="0.5"></rect>
            <rect id="Rectangle-Copy-35" fill="#107F65" x="21" y="75" width="35" height="8" rx="0.5"></rect>
            <rect id="Rectangle-Copy-36" fill="#107F65" x="21" y="95" width="35" height="8" rx="0.5"></rect>
            <rect id="Rectangle-Copy-56" fill="#107F65" x="21" y="114" width="35" height="8" rx="0.5"></rect>
            <rect id="Rectangle-Copy-102" fill="#107F65" x="21" y="135" width="35" height="8" rx="0.5"></rect>
            <rect id="Rectangle-Copy-106" fill="#107F65" x="21" y="156" width="35" height="8" rx="0.5"></rect>
            <rect id="Rectangle-Copy-5" fill="#107F65" x="115" y="15" width="35" height="8" rx="0.5"></rect>
            <rect id="Rectangle-Copy-6" fill="#107F65" x="166" y="15" width="35" height="8" rx="0.5"></rect>
            <path d="M280.265,17.302 L280.068044,17.3012048 C293.837583,17.3012048 305,28.7179437 305,42.8012048 C305,56.8844659 293.837583,68.3012048 280.068044,68.3012048 L280,68.3 L279.999728,52.7164109 C280.055365,52.7173833 280.111117,52.7178715 280.166981,52.7178715 C285.46716,52.7178715 289.763805,48.3233331 289.763805,42.9023953 C289.763805,37.5152275 285.520526,33.1417109 280.265916,33.0874299 L280.265,17.302 Z" id="Combined-Shape" fill="#722580"></path>
            <path d="M279.735,17.302 L279.734084,33.0874299 C274.479474,33.1417109 270.236195,37.5152275 270.236195,42.9023953 C270.236195,48.3233331 274.53284,52.7178715 279.833019,52.7178715 C279.889046,52.7178715 279.94496,52.7173804 280.000759,52.7164023 L280,68.3 L279.931956,68.3012048 C266.300112,68.3012048 255.223509,57.111659 255.00334,43.2228939 L255,42.8012048 C255,28.7179437 266.162417,17.3012048 279.931956,17.3012048 L279.735,17.302 Z" id="Combined-Shape" fill="#0062A6"></path>
            <text id="38%" font-family="Helvetica" font-size="30" font-weight="normal" line-spacing="21" fill="#D3D3D3">
                <tspan x="251" y="164">38%</tspan>
            </text>
            <text id="KPI" font-family="ProximaNova-Semibold, Proxima Nova" font-size="12" font-weight="500" fill="#107F65">
                <tspan x="246" y="114">KPI</tspan>
            </text>
        </g>
    </g>
</svg>