<?xml version="1.0" encoding="UTF-8"?>
<svg width="322px" height="172px" viewBox="0 0 322 172" version="1.1" xmlns="http://www.w3.org/2000/svg" xmlns:xlink="http://www.w3.org/1999/xlink">
    <title>Group 6</title>
    <g id="Page-1" stroke="none" stroke-width="1" fill="none" fill-rule="evenodd">
        <g id="Survey-analytics-" transform="translate(-269.000000, -1475.000000)">
            <g id="Group-6" transform="translate(269.000000, 1475.000000)">
                <g id="Group-11" transform="translate(60.000000, 0.000000)">
                    <polygon id="Rectangle-Copy-17" fill="#0062A6" transform="translate(28.500000, 104.000000) rotate(-90.000000) translate(-28.500000, -104.000000) " points="-38 95 95 95 95 113 -38 113"></polygon>
                    <polygon id="Rectangle-Copy-20" fill="#0062A6" transform="translate(115.000000, 127.000000) rotate(-90.000000) translate(-115.000000, -127.000000) " points="71 118 159 118 159 136 71 136"></polygon>
                    <polygon id="Rectangle-Copy-23" fill="#0062A6" transform="translate(202.500000, 100.000000) rotate(-90.000000) translate(-202.500000, -100.000000) " points="132 91 273 91 273 109 132 109"></polygon>
                    <polygon id="Rectangle-Copy-18" fill="#722580" transform="translate(46.000000, 91.000000) rotate(-90.000000) translate(-46.000000, -91.000000) " points="-34 82 126 82 126 100 -34 100"></polygon>
                    <rect id="Rectangle-Copy-21" fill="#722580" transform="translate(132.500000, 118.000000) rotate(-90.000000) translate(-132.500000, -118.000000) " x="80" y="109" width="105" height="18"></rect>
                    <polygon id="Rectangle-Copy-24" fill="#722580" transform="translate(220.000000, 110.000000) rotate(-90.000000) translate(-220.000000, -110.000000) " points="159 101 281 101 281 119 159 119"></polygon>
                    <polygon id="Rectangle-Copy-19" fill="#107F65" transform="translate(64.000000, 110.000000) rotate(-90.000000) translate(-64.000000, -110.000000) " points="3 101 125 101 125 119 3 119"></polygon>
                    <polygon id="Rectangle-Copy-22" fill="#107F65" transform="translate(150.000000, 110.000000) rotate(-90.000000) translate(-150.000000, -110.000000) " points="89 101 211 101 211 119 89 119"></polygon>
                    <polygon id="Rectangle-Copy-25" fill="#107F65" transform="translate(237.000000, 91.000000) rotate(-90.000000) translate(-237.000000, -91.000000) " points="157 82 317 82 317 100 157 100"></polygon>
                    <line x1="1.5" y1="0.880208333" x2="0.75" y2="169" id="Line-3" stroke="#D3D3D3" stroke-linecap="square"></line>
                    <line x1="261" y1="171" x2="1" y2="171" id="Line-3" stroke="#D3D3D3" stroke-linecap="square"></line>
                </g>
                <g id="Group-8" transform="translate(0.000000, 11.000000)">
                    <g id="Group-17-Copy-2" fill="#F1F1F1" stroke="#E5E5E5">
                        <rect id="Rectangle" x="0.5" y="0.5" width="67" height="36" rx="1"></rect>
                    </g>
                    <g id="Group-7" transform="translate(0.000000, 29.000000)">
                        <path d="M33.4666824,27.4918386 L33.4666824,27.4934182 C32.118107,30.0887464 29.4271636,32.7914892 26.4537797,32.9810445 C26.3342857,32.9889426 26.270659,32.9952611 26.2054804,32.9952611 L19.3384535,32.9921019 L18.5640702,32.9968407 C18.290941,32.9984204 18.014708,33 17.7400269,33 C16.3930033,33 15.0351167,32.9510315 13.7920684,32.5987746 C12.1765712,32.1406826 11.0778469,30.9543823 9.91394407,29.6969987 C9.61908868,29.3747547 9.33044077,29.0683069 9.03403351,28.7665981 L2.16545473,21.7720071 C1.41279755,21.0074673 1,19.9870279 1,18.9034034 C1,17.8197789 1.41279755,16.8009191 2.16545473,16.0347997 L2.33460862,15.8641999 C3.08571393,15.0980805 4.0866704,14.6763199 5.15125355,14.6763199 C6.2158367,14.6763199 7.22144878,15.104399 7.98652093,15.8831554 C8.13084488,16.0269015 8.34810675,16.0679719 8.54364243,15.9905701 C8.73297063,15.9084295 8.8555684,15.7204538 8.8555684,15.5087837 L8.85401653,4.2823704 C8.85401653,2.55267819 10.2351813,1.14523 11.9344794,1.14523 C13.413412,1.14523 14.6859458,2.22253602 14.959075,3.70580633 L14.9637306,6.19371978 C14.9637306,6.24584749 14.9745937,6.30113446 14.9978718,6.36747882 L15.0149424,6.47647312 L15.0149424,6.7671246 C15.0149424,7.05461682 15.2446192,7.28998133 15.5286115,7.28998133 C15.8110519,7.28998133 16.0407287,7.05461682 16.0407287,6.7671246 L16.0407287,4.28079077 C16.0407287,4.07701881 16.0221063,3.87640611 15.9941726,3.68053229 L15.9910689,3.13556077 C15.9910689,1.40586856 17.3722336,0 19.0715318,0 C20.77083,0 22.1519947,1.40586856 22.1519947,3.13556077 L22.1519947,7.33894979 C22.1519947,7.48427553 22.2094139,7.61854387 22.3133893,7.71490115 C22.6951494,8.26303193 23.3034826,7.95342492 23.3034826,7.48743478 L23.3034826,4.17653535 C23.3034826,2.71064095 24.4751448,1.51802211 25.9152806,1.51802211 C27.3569683,1.51802211 28.5286305,2.71064095 28.5286305,4.17653535 L28.5286305,6.2174142 C28.4820744,6.49384903 28.4603482,6.70709875 28.4603482,6.91876885 L28.4603482,8.44626873 C28.4603482,8.63266478 28.5581161,8.80010531 28.7195106,8.89488296 C29.1493787,9.19659183 29.5559688,8.88382557 29.5559688,8.48891867 L29.5668319,6.35010292 C29.8213387,5.34545977 30.7090086,4.64252549 31.72238,4.64252549 C32.956117,4.64252549 33.9586254,5.66454454 33.9586254,6.92034848 L33.9586254,15.3508209 C33.9586254,15.3982098 33.9679366,15.4408597 33.9772478,15.4835096 L33.9834553,23.3547939 C33.9834553,23.6043751 33.986559,23.8444785 33.9912147,24.0830022 C34.0144927,25.3261692 34.0331152,26.3987363 33.4666824,27.4918386" id="Fill-1" fill="#FFFFFF"></path>
                        <path d="M33.1361583,27.6493945 L33.1361583,27.6509251 C31.8019915,30.1657588 29.1397991,32.7846756 26.198184,32.9683519 C26.0799667,32.976005 26.0170198,32.9821276 25.9525376,32.9821276 L19.1588806,32.9790663 L18.392771,32.9836582 C18.12256,32.9851889 17.8492784,32.9867195 17.5775321,32.9867195 C16.2449006,32.9867195 14.9015221,32.9392698 13.6717551,32.5979381 C12.0735184,32.1540539 10.9865333,31.0045469 9.83506602,29.7861613 C9.54336097,29.4739117 9.25779708,29.1769684 8.96455674,28.8846171 L2.16936439,22.1069644 C1.42474887,21.3661369 1.0163618,20.3773466 1.0163618,19.3273308 C1.0163618,18.2773151 1.42474887,17.2900554 2.16936439,16.5476973 L2.33671097,16.3823887 C3.0797912,15.6400306 4.07005308,15.231351 5.12326183,15.231351 C6.17647059,15.231351 7.17133833,15.6461532 7.92823617,16.4007563 C8.07101812,16.5400441 8.28595868,16.5798406 8.47940518,16.5048395 C8.66671053,16.4252465 8.78799842,16.2431009 8.78799842,16.0379958 L8.78646313,5.15977131 C8.78646313,3.48372575 10.152871,2.11992977 11.8340132,2.11992977 C13.2971444,2.11992977 14.5560819,3.16382299 14.8262929,4.60108945 L14.8308988,7.01183991 C14.8308988,7.06235088 14.8416458,7.11592311 14.8646752,7.18020979 L14.8815634,7.28582362 L14.8815634,7.5674605 C14.8815634,7.8460361 15.1087862,8.07410075 15.3897443,8.07410075 C15.669167,8.07410075 15.8963899,7.8460361 15.8963899,7.5674605 L15.8963899,5.15824067 C15.8963899,4.96078873 15.8779664,4.76639806 15.8503312,4.57659929 L15.8472606,4.04853014 C15.8472606,2.37248458 17.2136685,1.01021924 18.8948107,1.01021924 C20.575953,1.01021924 21.9423608,2.37248458 21.9423608,4.04853014 L21.9423608,8.12155044 C21.9423608,8.26236888 21.9991666,8.39247288 22.102031,8.48584162 C22.4797122,9.01697204 23.0815458,8.71696754 23.0815458,8.26543015 L23.0815458,5.05721875 C23.0815458,3.63678927 24.2406896,2.48115968 25.6654384,2.48115968 C27.0917226,2.48115968 28.2508663,3.63678927 28.2508663,5.05721875 L28.2508663,7.03479944 C28.2048077,7.3026606 28.1833136,7.50929636 28.1833136,7.71440148 L28.1833136,9.19452573 C28.1833136,9.37514068 28.2800368,9.53738802 28.439707,9.62922613 C28.8649822,9.92157745 29.2672281,9.61851168 29.2672281,9.23585288 L29.2779752,7.1633728 C29.5297627,6.1898888 30.4079484,5.50875613 31.4104926,5.50875613 C32.6310479,5.50875613 33.6228451,6.49907712 33.6228451,7.71593211 L33.6228451,15.8849322 C33.6228451,15.9308513 33.6320568,15.9721785 33.6412686,16.0135056 L33.6474097,23.6406609 C33.6474097,23.8825012 33.6504803,24.1151578 33.6550862,24.3462837 C33.6781155,25.5508936 33.696539,26.5901949 33.1361583,27.6493945 L33.1361583,27.6493945 Z M35,24.3233242 L34.6729833,24.3294467 C34.6699127,24.1044433 34.6683774,23.8748481 34.6683774,23.6391302 L34.6683774,14.224193 C34.6683774,14.178274 34.6591657,14.1369468 34.6499539,14.0956197 L34.6438128,7.71287084 C34.6438128,5.93733399 33.1960346,4.49394499 31.4150985,4.49394499 C30.8316884,4.49394499 30.2544194,4.65619232 29.7477738,4.96231936 L29.3025398,5.23171116 L29.2534105,4.71588709 C29.0768522,2.86381848 27.5369566,1.46787917 25.6700443,1.46787917 C24.7181647,1.46787917 23.8200202,1.83676226 23.1398868,2.50718048 L22.8051937,2.83779769 L22.6117472,2.40921983 C21.9577137,0.944401927 20.5007238,0 18.9009519,0 C17.3533798,0 15.960872,0.86021699 15.2669211,2.24697249 L15.0627276,2.65718273 L14.741852,2.3296268 C13.968066,1.5428803 12.9378866,1.10971053 11.8386191,1.10971053 C9.59709611,1.10971053 7.7747072,2.92810516 7.7747072,5.16130194 L7.7747072,14.9512448 L7.30490854,14.7231801 C6.62016932,14.3895016 5.88630083,14.2211318 5.12326183,14.2211318 C3.80137737,14.2211318 2.5562574,14.7338946 1.61819538,15.6660514 L1.45238409,15.8328906 C0.51585735,16.7665781 0,18.0063927 0,19.3273308 C0,20.6467384 0.51585735,21.8865529 1.4508488,22.8233017 L8.25064701,29.6009544 C8.52699917,29.8764687 8.79567487,30.1626975 9.06435057,30.445865 C10.2941176,31.7484356 11.5300259,33.0555981 13.4000088,33.5729528 C14.8170812,33.9678567 16.3124534,34 17.6005615,34 L25.9556082,33.9938775 C26.0154845,33.9938775 26.0738255,33.9908162 26.1321665,33.9877549 L26.2181427,33.983163 C29.8306795,33.756629 32.6786419,30.6846441 34.035838,28.1223608 C34.7144361,26.8427497 34.6960126,25.6243641 34.6745186,24.3355693 L35,24.3233242 Z" id="Fill-1" fill="#E5E5E5"></path>
                    </g>
                    <text id="Age" font-family="ProximaNova-Regular, Proxima Nova" font-size="22" font-weight="normal" line-spacing="21" fill="#D3D3D3">
                        <tspan x="14" y="29">Age</tspan>
                    </text>
                </g>
            </g>
        </g>
    </g>
</svg>