<?xml version="1.0" encoding="UTF-8"?>
<svg width="432px" height="217px" viewBox="0 0 432 217" version="1.1" xmlns="http://www.w3.org/2000/svg" xmlns:xlink="http://www.w3.org/1999/xlink">
    <title>Group 15</title>
    <g id="Page-1" stroke="none" stroke-width="1" fill="none" fill-rule="evenodd">
        <g id="Survey-analytics-" transform="translate(-806.000000, -1664.000000)">
            <g id="Group-15" transform="translate(806.000000, 1665.000000)">
                <g id="Group-12" transform="translate(278.000000, 137.000000)">
                    <circle id="Oval" stroke="#D3D3D3" fill="#FFFFFF" cx="28" cy="28" r="27.5"></circle>
                    <circle id="Oval" fill="#E5E5E5" cx="28" cy="20" r="9"></circle>
                    <path d="M47.7572125,45.348877 C50.4470055,35.456668 37.1667261,30 27.9932206,30 C18.8301371,30 6.14230793,36.2790913 8.22767151,45.9567871 C9.37931921,51.3013209 19.0952149,55.7894302 27.9515485,56 C36.5200688,56.2037267 46.1190753,51.3734282 47.7572125,45.348877 Z" id="Oval" fill="#E5E5E5"></path>
                </g>
                <g id="Group-12-Copy" transform="translate(192.000000, 137.000000)">
                    <circle id="Oval" stroke="#D3D3D3" fill="#FFFFFF" cx="28" cy="28" r="27.5"></circle>
                    <circle id="Oval" fill="#E5E5E5" cx="28" cy="20" r="9"></circle>
                    <path d="M47.7572125,45.348877 C50.4470055,35.456668 37.1667261,30 27.9932206,30 C18.8301371,30 6.14230793,36.2790913 8.22767151,45.9567871 C9.37931921,51.3013209 19.0952149,55.7894302 27.9515485,56 C36.5200688,56.2037267 46.1190753,51.3734282 47.7572125,45.348877 Z" id="Oval" fill="#E5E5E5"></path>
                </g>
                <g id="Group-12-Copy-2" transform="translate(105.000000, 137.000000)">
                    <circle id="Oval" stroke="#D3D3D3" fill="#FFFFFF" cx="28" cy="28" r="27.5"></circle>
                    <circle id="Oval" fill="#E5E5E5" cx="28" cy="20" r="9"></circle>
                    <path d="M47.7572125,45.348877 C50.4470055,35.456668 37.1667261,30 27.9932206,30 C18.8301371,30 6.14230793,36.2790913 8.22767151,45.9567871 C9.37931921,51.3013209 19.0952149,55.7894302 27.9515485,56 C36.5200688,56.2037267 46.1190753,51.3734282 47.7572125,45.348877 Z" id="Oval" fill="#E5E5E5"></path>
                </g>
                <path d="M306,136.5 L306,126 C306,124.895431 305.104569,124 304,124 L220.444977,124 L220.444977,124 L135,124 C133.895431,124 133,124.895431 133,126 L133,137 L133,137" id="Path" stroke="#D3D3D3"></path>
                <path d="M377,96.5 L377,86 C377,84.8954305 376.104569,84 375,84 L221.220623,84 L221.220623,84 L64,84 C62.8954305,84 62,84.8954305 62,86 L62,97 L62,97" id="Path" stroke="#D3D3D3" transform="translate(219.500000, 90.500000) scale(1, -1) translate(-219.500000, -90.500000) "></path>
                <line x1="220.5" y1="136.5" x2="220.5" y2="83.5" id="Line-4" stroke="#D3D3D3" stroke-linecap="square"></line>
                <g id="Group-14" transform="translate(147.000000, 6.000000)">
                    <g id="Group-17-Copy" transform="translate(0.000000, -0.000000)" fill="#FFFFFF" stroke="#E5E5E5">
                        <rect id="Rectangle" x="0.5" y="0.5" width="144" height="76" rx="1"></rect>
                    </g>
                    <g id="Group-5" transform="translate(14.000000, 9.000000)">
                        <rect id="Rectangle" fill="#D3D3D3" x="35.4" y="13.1818182" width="10.4888889" height="5.27272727" rx="0.5"></rect>
                        <rect id="Rectangle-Copy" fill="#D3D3D3" x="68.8333333" y="13.1818182" width="10.4888889" height="5.27272727" rx="0.5"></rect>
                        <rect id="Rectangle-Copy-2" fill="#D3D3D3" x="102.266667" y="13.1818182" width="10.4888889" height="5.27272727" rx="0.5"></rect>
                        <rect id="Rectangle-Copy-3" fill="#D3D3D3" x="35.4" y="27.0227273" width="10.4888889" height="5.27272727" rx="0.5"></rect>
                        <rect id="Rectangle-Copy-11" fill="#D3D3D3" x="68.8333333" y="27.0227273" width="10.4888889" height="5.27272727" rx="0.5"></rect>
                        <rect id="Rectangle-Copy-13" fill="#D3D3D3" x="102.266667" y="27.0227273" width="10.4888889" height="5.27272727" rx="0.5"></rect>
                        <rect id="Rectangle-Copy-9" fill="#D3D3D3" x="35.4" y="39.5454545" width="10.4888889" height="5.27272727" rx="0.5"></rect>
                        <rect id="Rectangle-Copy-12" fill="#D3D3D3" x="68.8333333" y="39.5454545" width="10.4888889" height="5.27272727" rx="0.5"></rect>
                        <rect id="Rectangle-Copy-38" fill="#D3D3D3" x="102.266667" y="39.5454545" width="10.4888889" height="5.27272727" rx="0.5"></rect>
                        <rect id="Rectangle-Copy-10" fill="#D3D3D3" x="35.4" y="52.7272727" width="10.4888889" height="5.27272727" rx="0.5"></rect>
                        <rect id="Rectangle-Copy-37" fill="#D3D3D3" x="68.8333333" y="52.7272727" width="10.4888889" height="5.27272727" rx="0.5"></rect>
                        <rect id="Rectangle-Copy-39" fill="#D3D3D3" x="102.266667" y="52.7272727" width="10.4888889" height="5.27272727" rx="0.5"></rect>
                        <rect id="Rectangle-Copy-4" fill="#107F65" x="28.8444444" y="0" width="22.9444444" height="5.27272727" rx="0.5"></rect>
                        <rect id="Rectangle-Copy-7" fill="#107F65" x="0" y="13.1818182" width="22.9444444" height="5.27272727" rx="0.5"></rect>
                        <rect id="Rectangle-Copy-8" fill="#107F65" x="0" y="27.0227273" width="22.9444444" height="5.27272727" rx="0.5"></rect>
                        <rect id="Rectangle-Copy-35" fill="#107F65" x="0" y="39.5454545" width="22.9444444" height="5.27272727" rx="0.5"></rect>
                        <rect id="Rectangle-Copy-36" fill="#107F65" x="0" y="52.7272727" width="22.9444444" height="5.27272727" rx="0.5"></rect>
                        <rect id="Rectangle-Copy-5" fill="#107F65" x="61.6222222" y="0" width="22.9444444" height="5.27272727" rx="0.5"></rect>
                        <rect id="Rectangle-Copy-6" fill="#107F65" x="95.0555556" y="0" width="22.9444444" height="5.27272727" rx="0.5"></rect>
                    </g>
                </g>
                <g id="Group-13" transform="translate(376.500000, 44.500000) rotate(-90.000000) translate(-376.500000, -44.500000) translate(338.000000, -10.000000)">
                    <polygon id="Rectangle-Copy-17" fill="#0062A6" transform="translate(32.300847, 4.268072) rotate(-360.000000) translate(-32.300847, -4.268072) " points="0.652542373 0 63.9491525 0 63.9491525 8.53614458 0.652542373 8.53614458"></polygon>
                    <polygon id="Rectangle-Copy-20" fill="#0062A6" transform="translate(21.533898, 45.635542) rotate(-360.000000) translate(-21.533898, -45.635542) " points="0.652542373 41.3674699 42.4152542 41.3674699 42.4152542 49.9036145 0.652542373 49.9036145"></polygon>
                    <polygon id="Rectangle-Copy-23" fill="#0062A6" transform="translate(34.258475, 87.659639) rotate(-360.000000) translate(-34.258475, -87.659639) " points="0.652542373 83.3915663 67.8644068 83.3915663 67.8644068 91.9277108 0.652542373 91.9277108"></polygon>
                    <polygon id="Rectangle-Copy-18" fill="#722580" transform="translate(38.826271, 12.804217) rotate(-360.000000) translate(-38.826271, -12.804217) " points="0.652542373 8.53614458 77 8.53614458 77 17.0722892 0.652542373 17.0722892"></polygon>
                    <rect id="Rectangle-Copy-21" fill="#722580" transform="translate(25.775424, 54.171687) rotate(-360.000000) translate(-25.775424, -54.171687) " x="0.652542373" y="49.9036145" width="50.2457627" height="8.53614458"></rect>
                    <polygon id="Rectangle-Copy-24" fill="#722580" transform="translate(29.690678, 96.195783) rotate(-360.000000) translate(-29.690678, -96.195783) " points="0.652542373 91.9277108 58.7288136 91.9277108 58.7288136 100.463855 0.652542373 100.463855"></polygon>
                    <polygon id="Rectangle-Copy-19" fill="#107F65" transform="translate(29.690678, 21.340361) rotate(-360.000000) translate(-29.690678, -21.340361) " points="0.652542373 17.0722892 58.7288136 17.0722892 58.7288136 25.6084337 0.652542373 25.6084337"></polygon>
                    <polygon id="Rectangle-Copy-22" fill="#107F65" transform="translate(29.690678, 62.707831) rotate(-360.000000) translate(-29.690678, -62.707831) " points="0.652542373 58.439759 58.7288136 58.439759 58.7288136 66.9759036 0.652542373 66.9759036"></polygon>
                    <polygon id="Rectangle-Copy-25" fill="#107F65" transform="translate(38.826271, 104.731928) rotate(-360.000000) translate(-38.826271, -104.731928) " points="0.652542373 100.463855 77 100.463855 77 109 0.652542373 109"></polygon>
                    <line x1="0.163135593" y1="0.422655103" x2="0.203919492" y2="108.971239" id="Line-3" stroke="#D3D3D3" stroke-linecap="square"></line>
                </g>
                <line x1="0.75" y1="0.25" x2="0.5" y2="84.5" id="Line-3" stroke="#D3D3D3" stroke-linecap="square"></line>
                <line x1="116.747826" y1="83.25" x2="1" y2="84" id="Line-3" stroke="#D3D3D3" stroke-linecap="square"></line>
                <polyline id="Path-5" stroke="#107F65" stroke-width="2" points="8 48.1333333 20.1476274 76 45.7280316 30.6533333 73.7996485 66.6266667 116 0"></polyline>
                <polyline id="Path-5-Copy-2" stroke="#722580" stroke-width="2" points="8 43.3098592 20.1476274 57 44.7869069 36.7183099 73.7996485 50.4084507 116 21"></polyline>
                <polyline id="Path-5-Copy" stroke="#0062A6" stroke-width="2" points="6 54 20.7406983 64 45.7665283 44.5 74.6204923 54.75 117 10"></polyline>
                <g id="Group-9" transform="translate(176.000000, 111.000000)">
                    <g id="Group-5" transform="translate(10.000000, 0.852540)"></g>
                    <g id="Group-8" transform="translate(0.000000, 0.852540)"></g>
                </g>
                <circle id="Oval" stroke="#D3D3D3" fill="#FFFFFF" cx="133" cy="201" r="14.5"></circle>
                <circle id="Oval-Copy-3" stroke="#D3D3D3" fill="#FFFFFF" cx="220" cy="201" r="14.5"></circle>
                <circle id="Oval-Copy-4" stroke="#D3D3D3" fill="#FFFFFF" cx="306" cy="201" r="14.5"></circle>
                <g id="Group-9" transform="translate(124.000000, 194.000000)" stroke="#BBBBBB">
                    <circle id="Oval" cx="6" cy="6" r="5.5"></circle>
                    <line x1="11.2909091" y1="9.25974026" x2="18.6" y2="13.6428571" id="Line" stroke-linecap="square"></line>
                </g>
                <path d="M222.023207,195 C222.102556,195 222.176133,195.01601 222.249711,195.04643 C222.398309,195.112073 222.513724,195.233753 222.574318,195.392257 C222.634911,195.549159 222.633468,195.723674 222.572875,195.88538 L222.572875,195.88538 L218.487156,207.215996 C218.389053,207.435339 218.191403,207.571429 217.962015,207.571429 C217.901421,207.571429 217.848041,207.561822 217.788891,207.541009 L217.788891,207.541009 L217.747053,207.524998 C217.446972,207.395313 217.304145,207.025471 217.422446,206.686049 L217.422446,206.686049 L221.486524,195.405065 C221.5702,195.163307 221.779391,195.004803 222.015994,195 L222.015994,195 Z M225.402825,196.047619 L225.413457,196.063851 C225.525857,196.076837 225.633699,196.125533 225.726352,196.20507 L225.726352,196.20507 L230.782796,200.785766 C230.917979,200.907507 231,201.094176 231,201.282468 C231,201.478876 230.921017,201.665545 230.782796,201.790532 L230.782796,201.790532 L225.735466,206.364735 C225.620029,206.46862 225.47877,206.52381 225.332955,206.52381 C225.188659,206.52381 225.051957,206.471867 224.947153,206.377721 L224.947153,206.377721 L224.939558,206.371228 C224.924369,206.356619 224.90918,206.343633 224.89551,206.327401 L224.89551,206.327401 L224.880321,206.311169 C224.637296,206.004383 224.666155,205.60345 224.933483,205.361592 L224.933483,205.361592 L229.429449,201.282468 L224.938039,197.219576 C224.675268,196.979341 224.641852,196.570292 224.862094,196.287854 C224.971455,196.151504 225.11727,196.071967 225.282831,196.057358 L225.282831,196.057358 L225.402825,196.047619 Z M214.481367,196.047619 L214.712226,196.063859 C214.876257,196.07685 215.023581,196.158049 215.132935,196.296086 C215.360756,196.586775 215.330379,196.98627 215.064589,197.228241 L215.064589,197.228241 L210.573482,201.294646 L215.056995,205.359427 C215.321267,205.601398 215.350124,206.000893 215.125341,206.289959 C215.006874,206.440987 214.841324,206.52381 214.657549,206.52381 C214.505668,206.52381 214.37657,206.473467 214.265697,206.371157 L214.265697,206.371157 L209.21567,201.788331 C209.078978,201.668158 209,201.48465 209,201.289774 C209,201.098146 209.080497,200.913015 209.217189,200.789593 L209.217189,200.789593 L214.259622,196.224631 C214.327968,196.166168 214.40239,196.120697 214.481367,196.094714 L214.481367,196.094714 L214.481367,196.047619 Z" id="Combined-Shape" stroke="#F1F1F1" stroke-width="0.5" fill="#BBBBBB"></path>
                <path d="M300.737116,202.704182 L311.518884,202.704182 L311.518884,194.35826 L300.737116,194.35826 L300.737116,202.704182 Z M313.07687,194.358664 C313.175533,194.358664 313.256,194.278602 313.256,194.17913 C313.256,194.080467 313.175533,194 313.07687,194 L299.17913,194 C299.080467,194 299,194.080467 299,194.17913 C299,194.278602 299.080467,194.358664 299.17913,194.358664 L300.397052,194.358664 L300.397052,202.704182 L299.17913,202.704182 C299.080467,202.704182 299,202.783841 299,202.883717 C299,202.981975 299.080467,203.062442 299.17913,203.062442 L305.94887,203.062442 L305.94887,205.784167 L305.913287,205.784167 L303.316508,208.399547 C303.274455,208.430278 303.248576,208.477587 303.244937,208.529345 C303.241297,208.581103 303.260302,208.632456 303.296694,208.668848 C303.333895,208.706049 303.385248,208.725054 303.437006,208.721415 C303.488359,208.716967 303.536074,208.691492 303.566805,208.649843 L305.94887,206.268182 L305.94887,208.79339 C305.94887,208.892053 306.029337,208.97252 306.128,208.97252 C306.226663,208.97252 306.30713,208.892053 306.30713,208.79339 L306.30713,206.268182 L308.689195,208.649843 C308.760767,208.703219 308.859834,208.696344 308.922914,208.633265 C308.986398,208.570185 308.993676,208.471118 308.939492,208.399547 L306.342713,205.802768 L306.30713,205.802768 L306.30713,203.062442 L313.07687,203.062442 C313.175937,203.062442 313.256,202.981975 313.256,202.883717 C313.256,202.783841 313.175937,202.704182 313.07687,202.704182 L311.877548,202.704182 L311.877548,194.358664 L313.07687,194.358664 Z" id="Fill-1" stroke="#BBBBBB" stroke-width="0.25" fill="#BBBBBB"></path>
            </g>
        </g>
    </g>
</svg>