<?xml version="1.0" encoding="UTF-8"?>
<svg width="328px" height="183px" viewBox="0 0 328 183" version="1.1" xmlns="http://www.w3.org/2000/svg" xmlns:xlink="http://www.w3.org/1999/xlink">
    <title>Group 3 Copy</title>
    <g id="Page-1" stroke="none" stroke-width="1" fill="none" fill-rule="evenodd">
        <g id="Survey-analytics-" transform="translate(-263.000000, -2228.000000)">
            <g id="Group-3-Copy" transform="translate(263.000000, 2228.000000)">
                <g id="Group-2" transform="translate(170.144231, 0.000000)">
                    <g id="Group-17-Copy" fill="#F1F1F1" stroke="#E5E5E5">
                        <rect id="Rectangle" x="0.5" y="0.5" width="156" height="182" rx="1"></rect>
                    </g>
                    <rect id="Rectangle-Copy-17" fill="#107F65" x="18.7462687" y="17.5961538" width="120.679104" height="15.25" rx="0.5"></rect>
                    <rect id="Rectangle-Copy-18" fill="#D3D3D3" x="38.6641791" y="72.7307692" width="100.761194" height="12.9038462" rx="0.5"></rect>
                    <rect id="Rectangle-Copy-21" fill="#0062A6" x="17.5746269" y="72.7307692" width="12.8880597" height="12.9038462" rx="0.5"></rect>
                    <rect id="Rectangle-Copy-22" fill="#0062A6" x="17.5746269" y="103.230769" width="12.8880597" height="12.9038462" rx="0.5"></rect>
                    <rect id="Rectangle-Copy-23" fill="#D3D3D3" x="17.5746269" y="133.730769" width="12.8880597" height="12.9038462" rx="0.5"></rect>
                    <rect id="Rectangle-Copy-19" fill="#D3D3D3" x="38.6641791" y="103.230769" width="100.761194" height="12.9038462" rx="0.5"></rect>
                    <rect id="Rectangle-Copy-20" fill="#D3D3D3" x="38.6641791" y="133.730769" width="100.761194" height="12.9038462" rx="0.5"></rect>
                </g>
                <rect id="Rectangle-Copy-14" fill="#107F65" x="0.144230769" y="18" width="65" height="16" rx="0.5"></rect>
                <rect id="Rectangle-Copy-14" fill="#D3D3D3" x="0.144230769" y="56" width="121" height="8" rx="0.5"></rect>
                <rect id="Rectangle-Copy-15" fill="#D3D3D3" x="0.144230769" y="78" width="121" height="8" rx="0.5"></rect>
            </g>
        </g>
    </g>
</svg>