<?xml version="1.0" encoding="UTF-8"?>
<svg width="365px" height="236px" viewBox="0 0 365 236" version="1.1" xmlns="http://www.w3.org/2000/svg" xmlns:xlink="http://www.w3.org/1999/xlink">
    <title>Group 20</title>
    <g id="Page-1" stroke="none" stroke-width="1" fill="none" fill-rule="evenodd">
        <g id="Group-20" transform="translate(1.000000, 0.000000)">
            <g id="Group-17-Copy" transform="translate(60.000000, 0.000000)" fill="#F1F1F1" stroke="#E5E5E5">
                <rect id="Rectangle" x="0.5" y="0.5" width="220" height="117" rx="1"></rect>
            </g>
            <g id="Group-5" transform="translate(81.000000, 15.000000)">
                <rect id="Rectangle" fill="#D3D3D3" x="54" y="20" width="16" height="8" rx="0.5"></rect>
                <rect id="Rectangle-Copy" fill="#D3D3D3" x="105" y="20" width="16" height="8" rx="0.5"></rect>
                <rect id="Rectangle-Copy-2" fill="#D3D3D3" x="156" y="20" width="16" height="8" rx="0.5"></rect>
                <rect id="Rectangle-Copy-3" fill="#D3D3D3" x="54" y="41" width="16" height="8" rx="0.5"></rect>
                <rect id="Rectangle-Copy-11" fill="#D3D3D3" x="105" y="41" width="16" height="8" rx="0.5"></rect>
                <rect id="Rectangle-Copy-13" fill="#D3D3D3" x="156" y="41" width="16" height="8" rx="0.5"></rect>
                <rect id="Rectangle-Copy-9" fill="#D3D3D3" x="54" y="60" width="16" height="8" rx="0.5"></rect>
                <rect id="Rectangle-Copy-12" fill="#D3D3D3" x="105" y="60" width="16" height="8" rx="0.5"></rect>
                <rect id="Rectangle-Copy-38" fill="#D3D3D3" x="156" y="60" width="16" height="8" rx="0.5"></rect>
                <rect id="Rectangle-Copy-10" fill="#D3D3D3" x="54" y="80" width="16" height="8" rx="0.5"></rect>
                <rect id="Rectangle-Copy-37" fill="#D3D3D3" x="105" y="80" width="16" height="8" rx="0.5"></rect>
                <rect id="Rectangle-Copy-39" fill="#D3D3D3" x="156" y="80" width="16" height="8" rx="0.5"></rect>
                <rect id="Rectangle-Copy-4" fill="#107F65" x="44" y="0" width="35" height="8" rx="0.5"></rect>
                <rect id="Rectangle-Copy-7" fill="#107F65" x="0" y="20" width="35" height="8" rx="0.5"></rect>
                <rect id="Rectangle-Copy-8" fill="#107F65" x="0" y="41" width="35" height="8" rx="0.5"></rect>
                <rect id="Rectangle-Copy-35" fill="#107F65" x="0" y="60" width="35" height="8" rx="0.5"></rect>
                <rect id="Rectangle-Copy-36" fill="#107F65" x="0" y="80" width="35" height="8" rx="0.5"></rect>
                <rect id="Rectangle-Copy-5" fill="#107F65" x="94" y="0" width="35" height="8" rx="0.5"></rect>
                <rect id="Rectangle-Copy-6" fill="#107F65" x="145" y="0" width="35" height="8" rx="0.5"></rect>
            </g>
            <g id="Group-13" transform="translate(246.000000, 69.000000)">
                <polygon id="Rectangle-Copy-17" fill="#0062A6" transform="translate(49.500000, 6.500000) rotate(-360.000000) translate(-49.500000, -6.500000) " points="1 0 98 0 98 13 1 13"></polygon>
                <polygon id="Rectangle-Copy-20" fill="#0062A6" transform="translate(33.000000, 69.500000) rotate(-360.000000) translate(-33.000000, -69.500000) " points="1 63 65 63 65 76 1 76"></polygon>
                <polygon id="Rectangle-Copy-23" fill="#0062A6" transform="translate(52.500000, 133.500000) rotate(-360.000000) translate(-52.500000, -133.500000) " points="1 127 104 127 104 140 1 140"></polygon>
                <polygon id="Rectangle-Copy-18" fill="#722580" transform="translate(59.500000, 19.500000) rotate(-360.000000) translate(-59.500000, -19.500000) " points="1 13 118 13 118 26 1 26"></polygon>
                <rect id="Rectangle-Copy-21" fill="#722580" transform="translate(39.500000, 82.500000) rotate(-360.000000) translate(-39.500000, -82.500000) " x="1" y="76" width="77" height="13"></rect>
                <polygon id="Rectangle-Copy-24" fill="#722580" transform="translate(45.500000, 146.500000) rotate(-360.000000) translate(-45.500000, -146.500000) " points="1 140 90 140 90 153 1 153"></polygon>
                <polygon id="Rectangle-Copy-19" fill="#107F65" transform="translate(45.500000, 32.500000) rotate(-360.000000) translate(-45.500000, -32.500000) " points="1 26 90 26 90 39 1 39"></polygon>
                <polygon id="Rectangle-Copy-22" fill="#107F65" transform="translate(45.500000, 95.500000) rotate(-360.000000) translate(-45.500000, -95.500000) " points="1 89 90 89 90 102 1 102"></polygon>
                <polygon id="Rectangle-Copy-25" fill="#107F65" transform="translate(59.500000, 159.500000) rotate(-360.000000) translate(-59.500000, -159.500000) " points="1 153 118 153 118 166 1 166"></polygon>
                <line x1="0.25" y1="0.643676579" x2="0.3125" y2="165.9562" id="Line-3" stroke="#D3D3D3" stroke-linecap="square"></line>
            </g>
            <line x1="0.75" y1="94.3841463" x2="0.375" y2="220" id="Line-3" stroke="#D3D3D3" stroke-linecap="square"></line>
            <line x1="177.615217" y1="220.5" x2="1" y2="222" id="Line-3" stroke="#D3D3D3" stroke-linecap="square"></line>
            <polyline id="Path-5" stroke="#107F65" stroke-width="3" points="13 167.466667 31.5588752 210 70.6400483 140.786667 113.527241 195.693333 178 94"></polyline>
            <polyline id="Path-5-Copy-2" stroke="#722580" stroke-width="3" points="13 160.084507 31.5588752 181 69.2022188 150.014085 113.527241 170.929577 178 126"></polyline>
            <polyline id="Path-5-Copy" stroke="#0062A6" stroke-width="3" points="9 176.62963 31.4430452 192 69.545435 162.027778 113.476245 177.782407 178 109"></polyline>
        </g>
    </g>
</svg>