<?xml version="1.0" encoding="utf-8"?>
<!-- Generator: Adobe Illustrator 18.1.0, SVG Export Plug-In . SVG Version: 6.00 Build 0)  -->
<svg version="1.1" id="Layer_1" xmlns="http://www.w3.org/2000/svg" xmlns:xlink="http://www.w3.org/1999/xlink" x="0px" y="0px"
	 viewBox="0 0 503.3 40" enable-background="new 0 0 503.3 40" xml:space="preserve">
<g>
	<path fill="#FFFFFF" d="M28,28c0,4.4,0.1,5.1,2.5,5.3l1.4,0.1c0.3,0.2,0.2,0.9-0.1,1.1c-2.4-0.1-3.9-0.1-5.5-0.1
		c-1.7,0-3.2,0-5.9,0.1c-0.3-0.1-0.3-0.8,0-1.1l1.5-0.1c2.4-0.2,2.6-0.8,2.6-5.3V9.1c0-1.3,0-1.4-1.3-1.4h-2.3
		c-1.8,0-4.2,0.1-5.2,1.1c-1,0.9-1.4,1.9-1.9,2.9c-0.3,0.3-0.9,0-1.1-0.3c0.7-1.9,1.3-4.6,1.6-6.3c0.1-0.1,0.7-0.1,0.8,0
		c0.3,1.4,1.7,1.3,3.6,1.3h17.2c2.3,0,2.7-0.1,3.3-1.2c0.2-0.1,0.7,0,0.8,0.1c-0.5,1.7-0.8,5.2-0.6,6.4c-0.2,0.3-0.9,0.3-1.1,0.1
		c-0.1-1.1-0.4-2.6-1.1-3.1c-1-0.7-2.6-1.1-4.9-1.1h-3c-1.3,0-1.2,0-1.2,1.4V28z"/>
	<path fill="#FFFFFF" d="M50.5,20.7c-2,0-2.1,0.1-2.1,1.4v6c0,4.4,0.2,5,2.6,5.3l1.2,0.1c0.3,0.2,0.2,0.9-0.1,1.1
		c-2.3-0.1-3.7-0.1-5.4-0.1c-1.8,0-3.3,0.1-4.9,0.1c-0.3-0.1-0.3-0.8-0.1-1.1l0.7-0.1c2.4-0.4,2.5-0.8,2.5-5.3V12.7
		c0-4.4-0.3-5.2-2.5-5.3l-1.1-0.1c-0.3-0.2-0.2-0.9,0.1-1.1c2.1,0,3.5,0.1,5.3,0.1c1.7,0,3.1,0,4.9-0.1c0.3,0.1,0.3,0.9,0.1,1.1
		l-0.8,0.1c-2.5,0.3-2.5,0.9-2.5,5.3v4.9c0,1.3,0.1,1.4,2.1,1.4h12.1c2,0,2.1,0,2.1-1.4v-4.9c0-4.4-0.1-5.1-2.6-5.3l-0.8-0.1
		c-0.3-0.2-0.2-0.9,0.1-1.1c1.9,0.1,3.4,0.1,5.1,0.1c1.7,0,3.1,0,5-0.1c0.3,0.1,0.3,0.9,0.1,1.1l-0.9,0.1c-2.5,0.3-2.5,0.9-2.5,5.3
		V28c0,4.4,0.1,5,2.5,5.3l1,0.1c0.3,0.2,0.2,0.9-0.1,1.1c-2-0.1-3.5-0.1-5.1-0.1c-1.7,0-3.3,0-5.1,0.1c-0.3-0.1-0.3-0.8-0.1-1.1
		l0.8-0.1c2.6-0.4,2.6-0.8,2.6-5.3v-6c0-1.3-0.1-1.4-2.1-1.4H50.5z"/>
	<path fill="#FFFFFF" d="M78.2,12.7c0-4.4-0.1-5-2.6-5.3l-0.7-0.1c-0.3-0.2-0.2-0.9,0.1-1.1c1.8,0.1,3.3,0.1,5,0.1h8
		c2.7,0,5.2,0,5.7-0.1c0.3,0.7,0.5,3.8,0.7,5.6c-0.2,0.3-0.8,0.3-1.1,0.1c-0.6-2-1-3.5-3.2-4c-0.9-0.2-2.2-0.3-4.1-0.3h-3
		c-1.3,0-1.3,0.1-1.3,1.7v8.5c0,1.2,0.1,1.2,1.4,1.2h2.5c1.8,0,3.1-0.1,3.6-0.3c0.5-0.2,0.8-0.4,1-1.5l0.3-1.7
		c0.2-0.3,0.9-0.3,1.1,0c0,1-0.2,2.7-0.2,4.3c0,1.5,0.2,3.1,0.2,4.1c-0.2,0.3-0.9,0.3-1.1,0l-0.4-1.7c-0.2-0.8-0.5-1.4-1.3-1.6
		c-0.6-0.2-1.6-0.2-3.3-0.2h-2.5c-1.3,0-1.4,0-1.4,1.1v6c0,2.2,0.1,3.7,0.8,4.4c0.5,0.5,1.4,1,5.1,1c3.3,0,4.5-0.2,5.4-0.6
		c0.8-0.4,1.9-1.9,3-4.1c0.3-0.2,0.9-0.1,1.1,0.3c-0.3,1.5-1.4,4.7-1.9,5.9c-3.8-0.1-7.6-0.1-11.4-0.1H80c-1.8,0-3.3,0-5.8,0.1
		c-0.3-0.1-0.3-0.8-0.1-1.1l1.4-0.1c2.4-0.2,2.6-0.8,2.6-5.3V12.7z"/>
	<path fill="#FFFFFF" d="M117.4,20.7c-2,0-2.1,0.1-2.1,1.4v6c0,4.4,0.2,5,2.6,5.3l1.2,0.1c0.3,0.2,0.2,0.9-0.1,1.1
		c-2.3-0.1-3.7-0.1-5.4-0.1c-1.8,0-3.3,0.1-4.9,0.1c-0.3-0.1-0.3-0.8-0.1-1.1l0.7-0.1c2.4-0.4,2.5-0.8,2.5-5.3V12.7
		c0-4.4-0.3-5.2-2.5-5.3l-1.1-0.1c-0.3-0.2-0.2-0.9,0.1-1.1c2.1,0,3.5,0.1,5.3,0.1c1.7,0,3.1,0,4.9-0.1c0.3,0.1,0.3,0.9,0.1,1.1
		l-0.8,0.1c-2.5,0.3-2.5,0.9-2.5,5.3v4.9c0,1.3,0.1,1.4,2.1,1.4h12.1c2,0,2.1,0,2.1-1.4v-4.9c0-4.4-0.1-5.1-2.6-5.3l-0.8-0.1
		c-0.3-0.2-0.2-0.9,0.1-1.1c1.9,0.1,3.4,0.1,5.1,0.1c1.7,0,3.1,0,5-0.1c0.3,0.1,0.3,0.9,0.1,1.1l-0.9,0.1c-2.5,0.3-2.5,0.9-2.5,5.3
		V28c0,4.4,0.1,5,2.5,5.3l1,0.1c0.3,0.2,0.2,0.9-0.1,1.1c-2-0.1-3.5-0.1-5.1-0.1c-1.7,0-3.3,0-5.1,0.1c-0.3-0.1-0.3-0.8-0.1-1.1
		l0.8-0.1c2.6-0.4,2.6-0.8,2.6-5.3v-6c0-1.3-0.1-1.4-2.1-1.4H117.4z"/>
	<path fill="#FFFFFF" d="M165.3,17c0-2.6-0.1-7.5-0.8-8.8c-0.3-0.5-1.1-0.8-2.1-0.9l-1.1-0.1c-0.3-0.3-0.2-0.8,0.1-1
		c1.6,0.1,3.2,0.1,4.8,0.1c1.8,0,2.9,0,4.4-0.1c0.3,0.2,0.3,0.8,0.1,1l-1,0.1c-1.1,0.1-1.9,0.5-2.1,1C167,9.8,167,14.6,167,17v4.8
		c0,3.7-0.6,7.6-3,10.1c-1.8,2-5,3.1-8.1,3.1c-2.9,0-5.8-0.6-7.9-2.3c-2.2-1.9-3.3-5-3.3-10v-10c0-4.4-0.1-5.1-2.5-5.3l-1.1-0.1
		c-0.3-0.2-0.2-0.9,0.1-1c2.1,0.1,3.6,0.1,5.3,0.1c1.7,0,3.1,0,5.2-0.1c0.3,0.1,0.3,0.8,0.1,1l-1,0.1c-2.5,0.2-2.5,0.9-2.5,5.3v9.1
		c0,6.8,2.1,11.3,8.6,11.3c6.1,0,8.5-4.8,8.5-11.3V17z"/>
	<path fill="#FFFFFF" d="M179.3,18.3c0,1.1,0.1,1.1,1.4,1.1h2.9c1.7,0,3.1-0.1,3.6-0.3c0.5-0.2,0.8-0.4,1.1-1.5l0.4-1.7
		c0.2-0.3,0.9-0.3,1.1,0c0,1-0.2,2.7-0.2,4.3c0,1.5,0.2,3.1,0.2,4.1c-0.2,0.3-0.8,0.3-1.1,0l-0.4-1.7c-0.2-0.8-0.6-1.4-1.4-1.6
		c-0.6-0.2-1.7-0.2-3.3-0.2h-2.9c-1.3,0-1.4,0-1.4,1.1V28c0,4.4,0.1,5.1,2.6,5.3l1.4,0.1c0.3,0.2,0.2,0.9-0.1,1.1
		c-2.5-0.1-3.9-0.1-5.6-0.1c-1.9,0-3.3,0-5.3,0.1c-0.3-0.1-0.3-0.8-0.1-1.1l1.1-0.1c2.5-0.3,2.5-0.8,2.5-5.3V12.7
		c0-4.4-0.1-5-2.5-5.3l-0.7-0.1c-0.3-0.2-0.2-0.9,0.1-1.1c1.8,0.1,3.2,0.1,4.9,0.1h7.8c2.7,0,5.2,0,5.7-0.1c0,1.9,0,4,0.1,5.6
		c-0.1,0.3-0.7,0.4-1,0.1c-0.3-1.9-0.8-3.5-3-4c-0.9-0.3-2.3-0.3-4.1-0.3h-2.6c-1.3,0-1.3,0.1-1.3,1.7V18.3z"/>
	<path fill="#FFFFFF" d="M201.3,18.3c0,1.1,0.1,1.1,1.4,1.1h2.9c1.7,0,3.1-0.1,3.6-0.3c0.5-0.2,0.8-0.4,1.1-1.5l0.4-1.7
		c0.2-0.3,0.9-0.3,1.1,0c0,1-0.2,2.7-0.2,4.3c0,1.5,0.2,3.1,0.2,4.1c-0.2,0.3-0.8,0.3-1.1,0l-0.4-1.7c-0.2-0.8-0.6-1.4-1.4-1.6
		c-0.6-0.2-1.7-0.2-3.3-0.2h-2.9c-1.3,0-1.4,0-1.4,1.1V28c0,4.4,0.1,5.1,2.6,5.3l1.4,0.1c0.3,0.2,0.2,0.9-0.1,1.1
		c-2.5-0.1-3.9-0.1-5.6-0.1c-1.9,0-3.3,0-5.3,0.1c-0.3-0.1-0.3-0.8-0.1-1.1l1.1-0.1c2.5-0.3,2.5-0.8,2.5-5.3V12.7
		c0-4.4-0.1-5-2.5-5.3l-0.7-0.1c-0.3-0.2-0.2-0.9,0.1-1.1c1.8,0.1,3.2,0.1,4.9,0.1h7.8c2.7,0,5.2,0,5.7-0.1c0,1.9,0,4,0.1,5.6
		c-0.1,0.3-0.7,0.4-1,0.1c-0.3-1.9-0.8-3.5-3-4c-0.9-0.3-2.3-0.3-4.1-0.3h-2.6c-1.3,0-1.3,0.1-1.3,1.7V18.3z"/>
	<path fill="#FFFFFF" d="M219.7,12.8c0-4.5-0.1-5.2-2.6-5.4l-1.1-0.1c-0.3-0.2-0.2-0.9,0.1-1.1c2.1,0.1,3.6,0.1,5.3,0.1
		c1.7,0,3.1,0,5.3-0.1c0.3,0.1,0.3,0.9,0.1,1.1l-1.1,0.1c-2.5,0.2-2.6,0.9-2.6,5.4v15.1c0,4.5,0.1,5.1,2.6,5.4l1.1,0.1
		c0.3,0.2,0.2,0.9-0.1,1.1c-2.1-0.1-3.6-0.1-5.3-0.1c-1.8,0-3.2,0-5.3,0.1c-0.3-0.1-0.3-0.8-0.1-1.1l1.1-0.1
		c2.5-0.3,2.6-0.9,2.6-5.4V12.8z"/>
	<path fill="#FFFFFF" d="M256,27.1c0,1.3,0,6.3,0.1,7.4c-0.1,0.3-0.3,0.5-0.8,0.5c-0.5-0.7-1.7-2.2-5.4-6.4l-9.8-11.2
		c-1.1-1.3-4-4.8-4.9-5.7h-0.1c-0.2,0.5-0.2,1.5-0.2,2.8v9.2c0,2,0,7.5,0.8,8.8c0.3,0.5,1.1,0.7,2.2,0.8l1.3,0.1
		c0.3,0.3,0.2,0.8-0.1,1.1c-1.9-0.1-3.4-0.1-5-0.1c-1.8,0-2.9,0-4.4,0.1c-0.3-0.2-0.3-0.8-0.1-1.1l1.1-0.1c1-0.1,1.7-0.4,1.9-0.8
		c0.6-1.5,0.6-6.7,0.6-8.7V11.5c0-1.2,0-2.1-0.9-3c-0.6-0.6-1.6-0.9-2.6-1l-0.7-0.1c-0.3-0.3-0.3-0.9,0.1-1.1c1.8,0.1,4,0.1,4.8,0.1
		c0.7,0,1.4,0,1.9-0.1c0.8,2.2,5.8,7.8,7.2,9.3l4.1,4.6c2.9,3.3,5,5.6,7,7.7h0.1c0.2-0.2,0.2-0.9,0.2-1.8V17c0-2,0-7.5-0.8-8.8
		c-0.3-0.4-0.9-0.6-2.6-0.8l-0.7-0.1c-0.3-0.3-0.3-0.9,0.1-1.1c1.9,0.1,3.4,0.1,5,0.1c1.8,0,2.9,0,4.4-0.1c0.3,0.2,0.3,0.8,0.1,1.1
		L259,7.4c-1.4,0.2-2.2,0.6-2.4,0.9c-0.7,1.5-0.6,6.8-0.6,8.7V27.1z"/>
	<path fill="#FFFFFF" d="M287.5,30c0,1.7,0.3,2.7,1,3c0.1,0.1,0.1,0.4,0,0.5c-0.5,0-1.3,0.2-2.1,0.4c-2.2,0.6-5.3,1.1-7.6,1.1
		c-5,0-9.7-1.4-12.9-4.7c-2.5-2.5-3.9-5.9-3.9-9.6c0-3.6,1.2-7.2,3.8-10c2.8-3,7-5,13.4-5c2.4,0,4.7,0.5,5.4,0.6
		c0.8,0.2,2.1,0.5,2.6,0.4c0,1.4,0.3,3.6,0.6,6.1c-0.1,0.3-0.9,0.4-1.1,0.1c-1.2-4.6-4.4-6-8.7-6c-8.2,0-11.8,5.8-11.8,12.2
		c0,8.1,4.2,14.5,12.7,14.5c2.6,0,4.2-0.6,4.7-1.3c0.2-0.3,0.4-1.1,0.4-2.4v-1.7c0-3.6-0.1-3.8-2.8-4.1l-1.9-0.2
		c-0.3-0.2-0.3-0.9,0-1.1c1.2,0.1,3.6,0.1,6.1,0.1c1.7,0,3.1,0,4.5-0.1c0.3,0.2,0.3,0.8,0,1.1l-0.7,0.1c-1.8,0.2-1.8,1.4-1.8,3.6V30
		z"/>
	<path fill="#FFFFFF" d="M306.5,28c0,4.4,0.1,5.1,2.5,5.3l1.4,0.1c0.3,0.2,0.2,0.9-0.1,1.1c-2.4-0.1-3.9-0.1-5.5-0.1
		c-1.7,0-3.2,0-5.9,0.1c-0.3-0.1-0.3-0.8,0-1.1l1.5-0.1c2.4-0.2,2.6-0.8,2.6-5.3V9.1c0-1.3,0-1.4-1.3-1.4h-2.3
		c-1.8,0-4.2,0.1-5.2,1.1c-1,0.9-1.4,1.9-1.9,2.9c-0.3,0.3-0.9,0-1.1-0.3c0.7-1.9,1.3-4.6,1.6-6.3c0.1-0.1,0.7-0.1,0.8,0
		c0.3,1.4,1.7,1.3,3.6,1.3h17.2c2.3,0,2.7-0.1,3.3-1.2c0.2-0.1,0.7,0,0.8,0.1c-0.5,1.7-0.8,5.2-0.6,6.4c-0.2,0.3-0.9,0.3-1.1,0.1
		c-0.1-1.1-0.4-2.6-1.1-3.1c-1-0.7-2.6-1.1-4.9-1.1h-3c-1.3,0-1.2,0-1.2,1.4V28z"/>
	<path fill="#FFFFFF" d="M318.6,20.7c0-8.5,6.4-14.9,15.1-14.9c9.8,0,14.7,7.1,14.7,14.5c0,8.6-6.5,14.8-14.7,14.8
		C324.3,35,318.6,28.3,318.6,20.7z M344.1,21.5c0-7-3.1-14.5-11.2-14.5c-4.4,0-10.1,3-10.1,12.3c0,6.3,3,14.4,11.4,14.4
		C339.3,33.7,344.1,29.9,344.1,21.5z"/>
	<path fill="#FFFFFF" d="M377.7,27.1c0,1.3,0,6.3,0.1,7.4c-0.1,0.3-0.3,0.5-0.8,0.5c-0.5-0.7-1.7-2.2-5.4-6.4l-9.8-11.2
		c-1.1-1.3-4-4.8-4.9-5.7h-0.1c-0.2,0.5-0.2,1.5-0.2,2.8v9.2c0,2,0,7.5,0.8,8.8c0.3,0.5,1.1,0.7,2.2,0.8l1.3,0.1
		c0.3,0.3,0.2,0.8-0.1,1.1c-1.9-0.1-3.4-0.1-5-0.1c-1.8,0-2.9,0-4.4,0.1c-0.3-0.2-0.3-0.8-0.1-1.1l1.1-0.1c1-0.1,1.7-0.4,1.9-0.8
		c0.6-1.5,0.6-6.7,0.6-8.7V11.5c0-1.2,0-2.1-0.9-3c-0.6-0.6-1.6-0.9-2.6-1l-0.7-0.1c-0.3-0.3-0.3-0.9,0.1-1.1c1.8,0.1,4,0.1,4.8,0.1
		c0.7,0,1.4,0,1.9-0.1c0.8,2.2,5.8,7.8,7.2,9.3l4.1,4.6c2.9,3.3,5,5.6,7,7.7h0.1c0.2-0.2,0.2-0.9,0.2-1.8V17c0-2,0-7.5-0.8-8.8
		c-0.3-0.4-0.9-0.6-2.6-0.8l-0.7-0.1c-0.3-0.3-0.3-0.9,0.1-1.1c1.9,0.1,3.4,0.1,5,0.1c1.8,0,2.9,0,4.4-0.1c0.3,0.2,0.3,0.8,0.1,1.1
		l-0.6,0.1c-1.4,0.2-2.2,0.6-2.4,0.9c-0.7,1.5-0.6,6.8-0.6,8.7V27.1z"/>
	<path fill="#FFFFFF" d="M400.4,28c0,4.4,0.1,5,2.8,5.3l1.1,0.1c0.3,0.2,0.2,0.9-0.1,1.1c-2.4-0.1-3.8-0.1-5.5-0.1
		c-1.8,0-3.3,0-5.2,0.1c-0.3-0.1-0.3-0.8-0.1-1.1l0.9-0.1c2.5-0.3,2.5-0.8,2.5-5.3V12.4c0-3.6-0.1-4.3-2-4.5l-1.5-0.2
		c-0.3-0.3-0.3-0.9,0.1-1.1c2.2-0.3,4.9-0.3,8.4-0.3S408,6.7,410,8c1.9,1.2,3.4,3.4,3.4,6.4c0,3.9-2.4,5.8-4.2,6.7
		c-1.9,0.9-4.1,1.3-5.8,1.3c-0.3-0.1-0.3-0.8,0-0.8c4.6-0.8,6.2-3.4,6.2-7.1c0-4.1-2.4-6.8-6.8-6.8c-2.2,0-2.3,0.2-2.3,1.5V28z"/>
	<path fill="#FFFFFF" d="M415.9,20.7c0-8.5,6.4-14.9,15.1-14.9c9.8,0,14.7,7.1,14.7,14.5c0,8.6-6.5,14.8-14.7,14.8
		C421.5,35,415.9,28.3,415.9,20.7z M441.4,21.5c0-7-3.1-14.5-11.2-14.5c-4.4,0-10.1,3-10.1,12.3c0,6.3,3,14.4,11.4,14.4
		C436.6,33.7,441.4,29.9,441.4,21.5z"/>
	<path fill="#FFFFFF" d="M456.2,35c-3.6,0-5.8-1.1-6.6-1.6c-0.5-0.9-1.1-3.9-1.1-5.9c0.2-0.3,0.8-0.4,1-0.1c0.6,2.2,2.4,6.3,7.3,6.3
		c3.6,0,5.3-2.3,5.3-4.9c0-1.9-0.4-3.9-3.5-5.9l-4-2.6c-2.1-1.4-4.6-3.8-4.6-7.3c0-4,3.1-7.3,8.6-7.3c1.3,0,2.8,0.3,3.9,0.6
		c0.6,0.2,1.1,0.3,1.5,0.3c0.4,1,0.8,3.4,0.8,5.2c-0.2,0.3-0.8,0.4-1.1,0.1c-0.6-2-1.7-4.8-5.8-4.8c-4.2,0-5,2.8-5,4.7
		c0,2.5,2,4.2,3.6,5.2L460,19c2.7,1.7,5.3,4.1,5.3,8.1C465.2,31.8,461.7,35,456.2,35z"/>
	<path fill="#FFFFFF" d="M482.2,28c0,4.4,0.1,5.1,2.5,5.3l1.4,0.1c0.3,0.2,0.2,0.9-0.1,1.1c-2.4-0.1-3.9-0.1-5.5-0.1
		c-1.7,0-3.2,0-5.9,0.1c-0.3-0.1-0.3-0.8,0-1.1l1.5-0.1c2.4-0.2,2.6-0.8,2.6-5.3V9.1c0-1.3,0-1.4-1.3-1.4h-2.3
		c-1.8,0-4.2,0.1-5.2,1.1c-1,0.9-1.4,1.9-1.9,2.9c-0.3,0.3-0.9,0-1.1-0.3c0.7-1.9,1.3-4.6,1.6-6.3c0.1-0.1,0.7-0.1,0.8,0
		c0.3,1.4,1.7,1.3,3.6,1.3h17.2c2.3,0,2.7-0.1,3.3-1.2c0.2-0.1,0.7,0,0.8,0.1c-0.5,1.7-0.8,5.2-0.6,6.4c-0.2,0.3-0.9,0.3-1.1,0.1
		c-0.1-1.1-0.4-2.6-1.1-3.1c-1-0.7-2.6-1.1-4.9-1.1h-3c-1.3,0-1.2,0-1.2,1.4V28z"/>
</g>
<g>
</g>
<g>
</g>
<g>
</g>
<g>
</g>
<g>
</g>
<g>
</g>
</svg>
