<svg xmlns="http://www.w3.org/2000/svg" xmlns:xlink="http://www.w3.org/1999/xlink" viewBox="0 0 540.83 118.99"><defs><style>.cls-1{fill:url(#linear-gradient);}.cls-2{fill:url(#linear-gradient-2);}.cls-3{fill:url(#linear-gradient-3);}.cls-4{fill:#4d4d4d;}</style><linearGradient id="linear-gradient" x1="7.89" y1="118.26" x2="25.29" y2="27.9" gradientTransform="matrix(1, -0.02, -0.02, -1, 5.17, 130.79)" gradientUnits="userSpaceOnUse"><stop offset="0.14" stop-color="#005cb9"/><stop offset="0.29" stop-color="#0053af"/><stop offset="0.74" stop-color="#003d93"/><stop offset="1" stop-color="#003489"/></linearGradient><linearGradient id="linear-gradient-2" x1="40.06" y1="5.69" x2="79.12" y2="50.69" gradientTransform="matrix(1, -0.02, -0.02, -1, 5.17, 130.79)" gradientUnits="userSpaceOnUse"><stop offset="0.09" stop-color="#480852"/><stop offset="0.18" stop-color="#5a1367"/><stop offset="0.29" stop-color="#681c76"/><stop offset="0.42" stop-color="#70207f"/><stop offset="0.6" stop-color="#732282"/></linearGradient><linearGradient id="linear-gradient-3" x1="29.05" y1="124.43" x2="96.88" y2="103.56" gradientTransform="matrix(1, -0.02, -0.02, -1, 5.17, 130.79)" gradientUnits="userSpaceOnUse"><stop offset="0.09" stop-color="#004a36"/><stop offset="0.58" stop-color="#007057"/><stop offset="0.85" stop-color="#008065"/></linearGradient></defs><title>Crunch_Hori_colorAsset 1</title><g id="Layer_2" data-name="Layer 2"><g id="Layer_1-2" data-name="Layer 1"><g id="Layer_2-2" data-name="Layer 2"><g id="Layer_1-2-2" data-name="Layer 1-2"><path class="cls-1" d="M46.1,99.09C36.46,88.48,13.58,60.22,16.72,34.35,18,24.18,23,15.35,31.8,8.06,12,20-4.62,44.83,1.17,67.94,5.83,86.6,21.46,104.29,46.1,99.09Z"/><path class="cls-2" d="M21.24,104.36a59,59,0,0,0,47,14.07c14.06-2,30-8.91,39.11-19.58L83.62,83.67C73.33,99.17,51,113.23,21.24,104.36Z"/><path class="cls-3" d="M27,23.7c34.1-15.3,58.31,8.66,58.31,8.66L104.86,10C93,2.64,51.79-13.84,27,23.7Z"/><path class="cls-4" d="M249.18,89,236.35,67.33H226.17V89H216V31h25.44c11.47,0,18.95,7.48,18.95,18.18,0,10.35-6.78,15.91-13.73,17L260.92,89Zm.87-39.82c0-5.57-4.17-9.22-9.91-9.22h-14V58.38h13.91c5.79,0,10-3.66,10-9.22Z"/><path class="cls-4" d="M279.84,65.48V31h10.08V65.14c0,9.06,5,15,14.62,15s14.53-5.9,14.53-15V31h10.08v34.4c0,14.19-8.15,23.6-24.61,23.6S279.84,79.5,279.84,65.48Z"/><path class="cls-4" d="M389.59,89l-30.26-41.4V89H349.16V31H359.6l29.65,40.27V31h10.17V89Z"/><path class="cls-4" d="M418.36,59.5C418.36,42,431.43,30,448.27,30c11.54,0,18.63,6,22.91,12.82l-8.55,4.36a16.93,16.93,0,0,0-14.36-8.29c-11.28,0-19.66,8.63-19.66,20.6S437,80.09,448.27,80.09a16.74,16.74,0,0,0,14.36-8.29l8.55,4.36C466.82,83,459.81,89,448.27,89,431.43,89,418.36,77,418.36,59.5Z"/><path class="cls-4" d="M530.65,89V63.68H500.47V89H490.3V31h10.17V54.72h30.18V31h10.18V89Z"/><path class="cls-4" d="M143.4,59.5C143.4,42,156.48,30,173.31,30c11.54,0,18.63,6,22.91,12.82l-8.55,4.36a16.93,16.93,0,0,0-14.36-8.29c-11.28,0-19.66,8.63-19.66,20.6S162,80.09,173.31,80.09a16.74,16.74,0,0,0,14.36-8.29l8.55,4.36C191.86,83,184.85,89,173.31,89,156.48,89,143.4,77,143.4,59.5Z"/></g></g></g></g></svg>