<?xml version="1.0" encoding="UTF-8"?>
<svg width="320px" height="181px" viewBox="0 0 320 181" version="1.1" xmlns="http://www.w3.org/2000/svg" xmlns:xlink="http://www.w3.org/1999/xlink">
    <title>Group 7</title>
    <defs>
        <rect id="path-1" x="0" y="0" width="225" height="181" rx="2"></rect>
        <mask id="mask-2" maskContentUnits="userSpaceOnUse" maskUnits="objectBoundingBox" x="0" y="0" width="225" height="181" fill="white">
            <use xlink:href="#path-1"></use>
        </mask>
        <polygon id="path-3" points="0.0006 0.309198981 9.68985 0.309198981 9.68985 10 0.0006 10"></polygon>
    </defs>
    <g id="Page-1" stroke="none" stroke-width="1" fill="none" fill-rule="evenodd">
        <g id="dashboards" transform="translate(-836.000000, -857.000000)">
            <g id="Group-7" transform="translate(836.000000, 857.000000)">
                <use id="Rectangle" stroke="#E5E5E5" mask="url(#mask-2)" stroke-width="2" fill="#FFFFFF" stroke-dasharray="4" xlink:href="#path-1"></use>
                <rect id="Rectangle" stroke="#E5E5E5" fill="#FFFFFF" x="240.5" y="1.5" width="79" height="82" rx="1"></rect>
                <g id="Group-17-Copy-4" transform="translate(240.000000, 98.000000)" fill="#FFFFFF" stroke="#E5E5E5">
                    <rect id="Rectangle" x="0.5" y="0.5" width="79" height="82" rx="1"></rect>
                </g>
                <g id="Group-2" transform="translate(9.000000, 10.000000)">
                    <g id="Group-17-Copy-3" fill="#F1F1F1" stroke="#E5E5E5">
                        <rect id="Rectangle" x="0.5" y="0.5" width="158" height="112" rx="1"></rect>
                    </g>
                    <rect id="Rectangle" fill="#D3D3D3" x="54" y="22" width="11" height="5" rx="0.5"></rect>
                    <rect id="Rectangle-Copy" fill="#D3D3D3" x="91" y="22" width="11" height="5" rx="0.5"></rect>
                    <rect id="Rectangle-Copy-2" fill="#D3D3D3" x="127" y="22" width="11" height="5" rx="0.5"></rect>
                    <rect id="Rectangle-Copy-3" fill="#D3D3D3" x="54" y="35" width="11" height="5" rx="0.5"></rect>
                    <rect id="Rectangle-Copy-11" fill="#D3D3D3" x="91" y="35" width="11" height="5" rx="0.5"></rect>
                    <rect id="Rectangle-Copy-13" fill="#D3D3D3" x="127" y="35" width="11" height="5" rx="0.5"></rect>
                    <rect id="Rectangle-Copy-9" fill="#D3D3D3" x="54" y="46" width="11" height="5" rx="0.5"></rect>
                    <rect id="Rectangle-Copy-12" fill="#D3D3D3" x="91" y="46" width="11" height="5" rx="0.5"></rect>
                    <rect id="Rectangle-Copy-38" fill="#D3D3D3" x="127" y="46" width="11" height="5" rx="0.5"></rect>
                    <rect id="Rectangle-Copy-10" fill="#D3D3D3" x="54" y="60" width="11" height="5" rx="0.5"></rect>
                    <rect id="Rectangle-Copy-32" fill="#D3D3D3" x="54" y="71" width="11" height="5" rx="0.5"></rect>
                    <rect id="Rectangle-Copy-64" fill="#D3D3D3" x="54" y="84" width="11" height="5" rx="0.5"></rect>
                    <rect id="Rectangle-Copy-103" fill="#D3D3D3" x="54" y="98" width="11" height="5" rx="0.5"></rect>
                    <rect id="Rectangle-Copy-37" fill="#D3D3D3" x="91" y="60" width="11" height="5" rx="0.5"></rect>
                    <rect id="Rectangle-Copy-40" fill="#D3D3D3" x="91" y="71" width="11" height="5" rx="0.5"></rect>
                    <rect id="Rectangle-Copy-71" fill="#D3D3D3" x="91" y="84" width="11" height="5" rx="0.5"></rect>
                    <rect id="Rectangle-Copy-104" fill="#D3D3D3" x="91" y="98" width="11" height="5" rx="0.5"></rect>
                    <rect id="Rectangle-Copy-39" fill="#D3D3D3" x="127" y="60" width="11" height="5" rx="0.5"></rect>
                    <rect id="Rectangle-Copy-48" fill="#D3D3D3" x="127" y="71" width="11" height="5" rx="0.5"></rect>
                    <rect id="Rectangle-Copy-101" fill="#D3D3D3" x="127" y="84" width="11" height="5" rx="0.5"></rect>
                    <rect id="Rectangle-Copy-105" fill="#D3D3D3" x="127" y="98" width="11" height="5" rx="0.5"></rect>
                    <rect id="Rectangle-Copy-4" fill="#107F65" x="47" y="9" width="25" height="5" rx="0.5"></rect>
                    <rect id="Rectangle-Copy-7" fill="#107F65" x="15" y="22" width="25" height="5" rx="0.5"></rect>
                    <rect id="Rectangle-Copy-8" fill="#107F65" x="15" y="35" width="25" height="5" rx="0.5"></rect>
                    <rect id="Rectangle-Copy-35" fill="#107F65" x="15" y="46" width="25" height="5" rx="0.5"></rect>
                    <rect id="Rectangle-Copy-36" fill="#107F65" x="15" y="60" width="25" height="5" rx="0.5"></rect>
                    <rect id="Rectangle-Copy-56" fill="#107F65" x="15" y="71" width="25" height="5" rx="0.5"></rect>
                    <rect id="Rectangle-Copy-102" fill="#107F65" x="15" y="84" width="25" height="5" rx="0.5"></rect>
                    <rect id="Rectangle-Copy-106" fill="#107F65" x="15" y="98" width="25" height="5" rx="0.5"></rect>
                    <rect id="Rectangle-Copy-5" fill="#107F65" x="82" y="9" width="25" height="5" rx="0.5"></rect>
                    <rect id="Rectangle-Copy-6" fill="#107F65" x="120" y="9" width="25" height="5" rx="0.5"></rect>
                </g>
                <path d="M280.265,17.302 L280.068044,17.3012048 C293.837583,17.3012048 305,28.7179437 305,42.8012048 C305,56.8844659 293.837583,68.3012048 280.068044,68.3012048 L280,68.3 L279.999728,52.7164109 C280.055365,52.7173833 280.111117,52.7178715 280.166981,52.7178715 C285.46716,52.7178715 289.763805,48.3233331 289.763805,42.9023953 C289.763805,37.5152275 285.520526,33.1417109 280.265916,33.0874299 L280.265,17.302 Z" id="Combined-Shape" fill="#722580"></path>
                <path d="M279.735,17.302 L279.734084,33.0874299 C274.479474,33.1417109 270.236195,37.5152275 270.236195,42.9023953 C270.236195,48.3233331 274.53284,52.7178715 279.833019,52.7178715 C279.889046,52.7178715 279.94496,52.7173804 280.000759,52.7164023 L280,68.3 L279.931956,68.3012048 C266.300112,68.3012048 255.223509,57.111659 255.00334,43.2228939 L255,42.8012048 C255,28.7179437 266.162417,17.3012048 279.931956,17.3012048 L279.735,17.302 Z" id="Combined-Shape" fill="#0062A6"></path>
                <text id="38%" font-family="Helvetica" font-size="30" font-weight="normal" line-spacing="21" fill="#D3D3D3">
                    <tspan x="251" y="164">38%</tspan>
                </text>
                <text id="KPI" font-family="ProximaNova-Semibold, Proxima Nova" font-size="12" font-weight="500" fill="#107F65">
                    <tspan x="246" y="114">KPI</tspan>
                </text>
                <g id="Group-6" transform="translate(212.000000, 167.500000) scale(-1, 1) translate(-212.000000, -167.500000) translate(207.000000, 162.000000)">
                    <g id="Group-5" transform="translate(0.000000, 0.505300)">
                        <mask id="mask-4" fill="white">
                            <use xlink:href="#path-3"></use>
                        </mask>
                        <g id="Clip-4"></g>
                    </g>
                </g>
                <g id="resize" transform="translate(171.689526, 127.504624)" fill="#0062A6">
                    <path d="M15.1957475,0 L4.67275636,0 C4.23016979,0 3.8685039,0.36328444 3.8685039,0.805830939 C3.8685039,1.25333132 4.23016979,1.61661576 4.67275636,1.61661576 L13.245394,1.61661576 L0.235330547,14.6288039 C-0.0784435155,14.9442008 -0.0784435155,15.4561016 0.235330547,15.7714986 C0.539195954,16.0736852 1.07096042,16.078639 1.37647727,15.7714986 L14.3865407,2.75600786 L14.3865407,11.3328232 C14.3865407,11.7786723 14.7482066,12.1403055 15.1940961,12.1403055 C15.6366827,12.1403055 16,11.7786723 16,11.3328232 L16,0.805830939 C16,0.36328444 15.6399855,0 15.1957475,0 Z" id="Fill-1" transform="translate(8.000000, 8.000000) rotate(-90.000000) translate(-8.000000, -8.000000) "></path>
                    <path d="M43.6207395,29.2278419 L30.6133344,42.2411519 L30.6133344,33.6674246 C30.6133344,33.2216502 30.2516965,32.8600776 29.8058415,32.8600776 C29.3616379,32.8600776 29,33.2233012 29,33.6674246 L29,44.191002 C29,44.6400785 29.3632892,45 29.8058415,45 L40.3247155,45 C40.7705705,45 41.1322084,44.6384274 41.1322084,44.191002 C41.1322084,43.7452277 40.7705705,43.3836551 40.3247155,43.3836551 L31.7560441,43.3820041 L44.7634492,30.3719962 C45.0788503,30.0566521 45.0788503,29.543186 44.7634492,29.2278419 C44.4596073,28.9224039 43.9295353,28.925706 43.6207395,29.2278419" id="Fill-3" transform="translate(37.000000, 37.000000) rotate(-90.000000) translate(-37.000000, -37.000000) "></path>
                </g>
            </g>
        </g>
    </g>
</svg>