<?xml version="1.0" encoding="UTF-8"?>
<svg width="237px" height="174px" viewBox="0 0 237 174" version="1.1" xmlns="http://www.w3.org/2000/svg" xmlns:xlink="http://www.w3.org/1999/xlink">
    <title>Group</title>
    <g id="Page-1" stroke="none" stroke-width="1" fill="none" fill-rule="evenodd">
        <g id="Group" transform="translate(0.000000, 1.000000)">
            <g id="powerpoint" transform="translate(8.000000, 0.000000)">
                <g id="Group-17-Copy-3" fill="#F1F1F1" fill-rule="nonzero" stroke="#E5E5E5">
                    <rect id="Rectangle" x="0.475138122" y="0.475138122" width="209.060773" height="171.049724" rx="1"></rect>
                </g>
                <polygon id="Rectangle-Copy-17" fill="#0062A6" fill-rule="nonzero" transform="translate(39.436464, 90.276243) rotate(-90.000000) translate(-39.436464, -90.276243) " points="-10.4530387 83.6243094 89.3259669 83.6243094 89.3259669 96.9281768 -10.4530387 96.9281768"></polygon>
                <polygon id="Rectangle-Copy-20" fill="#0062A6" fill-rule="nonzero" transform="translate(92.176796, 101.204420) rotate(-90.000000) translate(-92.176796, -101.204420) " points="52.7403315 94.5524862 131.61326 94.5524862 131.61326 107.856354 52.7403315 107.856354"></polygon>
                <polygon id="Rectangle-Copy-23" fill="#0062A6" fill-rule="nonzero" transform="translate(144.917127, 90.751381) rotate(-90.000000) translate(-144.917127, -90.751381) " points="95.5027624 84.0994475 194.331492 84.0994475 194.331492 97.4033149 95.5027624 97.4033149"></polygon>
                <polygon id="Rectangle-Copy-18" fill="#722580" fill-rule="nonzero" transform="translate(52.265193, 83.149171) rotate(-90.000000) translate(-52.265193, -83.149171) " points="-5.22651934 76.4972376 109.756906 76.4972376 109.756906 89.801105 -5.22651934 89.801105"></polygon>
                <polygon id="Rectangle-Copy-21" fill="#722580" fill-rule="nonzero" transform="translate(105.480663, 96.453039) rotate(-90.000000) translate(-105.480663, -96.453039) " points="61.2928177 89.801105 149.668508 89.801105 149.668508 103.104972 61.2928177 103.104972"></polygon>
                <polygon id="Rectangle-Copy-24" fill="#722580" fill-rule="nonzero" transform="translate(158.220994, 95.977901) rotate(-90.000000) translate(-158.220994, -95.977901) " points="114.033149 89.3259669 202.40884 89.3259669 202.40884 102.629834 114.033149 102.629834"></polygon>
                <polygon id="Rectangle-Copy-19" fill="#0062A6" fill-rule="nonzero" transform="translate(65.093923, 92.176796) rotate(-90.000000) translate(-65.093923, -92.176796) " points="17.1049724 85.5248619 113.082873 85.5248619 113.082873 98.8287293 17.1049724 98.8287293"></polygon>
                <polygon id="Rectangle-Copy-22" fill="#0062A6" fill-rule="nonzero" transform="translate(118.309392, 92.176796) rotate(-90.000000) translate(-118.309392, -92.176796) " points="70.320442 85.5248619 166.298343 85.5248619 166.298343 98.8287293 70.320442 98.8287293"></polygon>
                <polygon id="Rectangle-Copy-25" fill="#0062A6" fill-rule="nonzero" transform="translate(171.524862, 83.624309) rotate(-90.000000) translate(-171.524862, -83.624309) " points="114.983425 76.9723757 228.066298 76.9723757 228.066298 90.2762431 114.983425 90.2762431"></polygon>
                <line x1="105.36294" y1="68.4198881" x2="105.598388" y2="212.86188" id="Line-3" stroke="#D3D3D3" stroke-linecap="square" transform="translate(105.480664, 140.640884) rotate(-90.000000) translate(-105.480664, -140.640884) "></line>
                <rect id="Rectangle-Copy-128" fill="#107F65" fill-rule="nonzero" x="153.944751" y="112.132597" width="66.519337" height="41.8121547" rx="1"></rect>
                <g id=".pptx-copy" transform="translate(166.298343, 119.734807)" fill="#FFFFFF" fill-rule="nonzero" font-family="ProximaNova-Regular, Proxima Nova" font-size="20" font-weight="normal">
                    <text id=".pptx">
                        <tspan x="0" y="20">.pptx</tspan>
                    </text>
                </g>
            </g>
            <rect id="Rectangle" x="0" y="0.475138122" width="237" height="171.524862"></rect>
        </g>
    </g>
</svg>