<?xml version="1.0" encoding="UTF-8"?>
<svg width="16px" height="16px" viewBox="0 0 16 16" version="1.1" xmlns="http://www.w3.org/2000/svg" xmlns:xlink="http://www.w3.org/1999/xlink">
    <title>Group 3</title>
    <defs>
        <polygon id="path-1" points="0 0 16 0 16 16 0 16"></polygon>
    </defs>
    <g id="Page-1" stroke="none" stroke-width="1" fill="none" fill-rule="evenodd">
        <g id="About_01" transform="translate(-1029.000000, -960.000000)">
            <g id="Group-3" transform="translate(1029.000000, 960.000000)">
                <mask id="mask-2" fill="white">
                    <use xlink:href="#path-1"></use>
                </mask>
                <g id="Clip-2"></g>
                <path d="M3.24276925,5.65731228 C3.24276925,3.10004827 5.37670603,1.0193753 8.00056573,1.0193753 C10.623294,1.0193753 12.7583622,3.10004827 12.7583622,5.65731228 C12.7583622,8.21457629 10.623294,10.2963525 8.00056573,10.2963525 C5.37670603,10.2963525 3.24276925,8.21457629 3.24276925,5.65731228 M7.99943427,11.3157278 C12.0172548,11.3157278 14.9545294,14.3970213 14.9545294,16 L16,16 C16,14.2171964 13.7495227,11.6808936 10.6198996,10.7034407 C12.5071777,9.76791009 13.8027014,7.85823623 13.8027014,5.65731228 C13.8027014,2.53740605 11.2003394,0 8.00056573,0 C4.80079202,0 2.19729864,2.53740605 2.19729864,5.65731228 C2.19729864,7.85823623 3.49282229,9.76791009 5.38010042,10.7034407 C2.25047734,11.6797904 0,14.2160932 0,16 L1.04547062,16 C1.04547062,14.3970213 3.98274521,11.3157278 7.99943427,11.3157278" id="Fill-1" fill="#000000" mask="url(#mask-2)"></path>
            </g>
        </g>
    </g>
</svg>