<?xml version="1.0" encoding="utf-8"?>
<!-- Generator: Adobe Illustrator 24.3.0, SVG Export Plug-In . SVG Version: 6.00 Build 0)  -->
<svg version="1.1" id="Layer_1" xmlns="http://www.w3.org/2000/svg" xmlns:xlink="http://www.w3.org/1999/xlink" x="0px" y="0px"
	 viewBox="0 0 16 18.9" style="enable-background:new 0 0 16 18.9;" xml:space="preserve">
<style type="text/css">
	.st0{fill-rule:evenodd;clip-rule:evenodd;fill:#1D1D26;}
</style>
<g id="About_01" transform="translate(-741.000000, -959.000000)">
	<path id="case-studies" class="st0" d="M756.7,959c0.2,0,0.3,0.1,0.3,0.4l0,0l0,13.6v0c0,0,0,0.1,0,0.1l0,0v0c0,0,0,0.1-0.1,0.1
		l0,0l-4.7,4.5c0,0-0.1,0.1-0.1,0.1l0,0h0c0,0-0.1,0-0.1,0l0,0h-10.6c-0.2,0-0.3-0.1-0.3-0.4l0,0l0-18.1c0-0.2,0.1-0.4,0.3-0.4l0,0
		H756.7z M756.3,959.7h-14.6l0,3.9v0.1h0v13.5h9.9V973c0-0.2,0.1-0.4,0.3-0.4l0,0h4.3L756.3,959.7z M755.8,973.4h-3.5v3.3
		L755.8,973.4z M750.4,966.7c0.2,0,0.4,0.1,0.4,0.3c0,0.2-0.2,0.3-0.4,0.3l0,0h-5.9c-0.2,0-0.4-0.1-0.4-0.3c0-0.2,0.2-0.3,0.4-0.3
		l0,0H750.4z M753.5,964.8c0.2,0,0.4,0.1,0.4,0.3c0,0.2-0.2,0.3-0.4,0.3l0,0h-9.1c-0.2,0-0.4-0.1-0.4-0.3c0-0.2,0.2-0.3,0.4-0.3l0,0
		H753.5z M753.5,962.7c0.2,0,0.4,0.1,0.4,0.3c0,0.2-0.2,0.3-0.4,0.3l0,0h-9.1c-0.2,0-0.4-0.1-0.4-0.3c0-0.2,0.2-0.3,0.4-0.3l0,0
		H753.5z"/>
</g>
</svg>
