<?xml version="1.0" encoding="utf-8"?>
<!-- Generator: Adobe Illustrator 25.4.2, SVG Export Plug-In . SVG Version: 6.00 Build 0)  -->
<svg version="1.1" id="Layer_1" xmlns="http://www.w3.org/2000/svg" xmlns:xlink="http://www.w3.org/1999/xlink" x="0px" y="0px"
	 viewBox="0 0 16 18.9" style="enable-background:new 0 0 16 18.9;" xml:space="preserve">
<style type="text/css">
	.st0{fill-rule:evenodd;clip-rule:evenodd;fill:#0064A4;}
</style>
<g id="About_01" transform="translate(-741.000000, -959.000000)">
	<path id="case-studies" class="st0" d="M756.7,959c0.2,0,0.3,0.1,0.3,0.4l0,0V973l0,0v0.1l0,0l0,0c0,0,0,0.1-0.1,0.1l0,0l-4.7,4.5
		l-0.1,0.1l0,0l0,0H752l0,0h-10.6c-0.2,0-0.3-0.1-0.3-0.4l0,0v-18.1c0-0.2,0.1-0.4,0.3-0.4l0,0h15.3V959z M756.3,959.7h-14.6v3.9
		v0.1l0,0v13.5h9.9V973c0-0.2,0.1-0.4,0.3-0.4l0,0h4.3L756.3,959.7z M755.8,973.4h-3.5v3.3L755.8,973.4z M750.4,966.7
		c0.2,0,0.4,0.1,0.4,0.3s-0.2,0.3-0.4,0.3l0,0h-5.9c-0.2,0-0.4-0.1-0.4-0.3s0.2-0.3,0.4-0.3l0,0H750.4z M753.5,964.8
		c0.2,0,0.4,0.1,0.4,0.3s-0.2,0.3-0.4,0.3l0,0h-9.1c-0.2,0-0.4-0.1-0.4-0.3s0.2-0.3,0.4-0.3l0,0H753.5z M753.5,962.7
		c0.2,0,0.4,0.1,0.4,0.3s-0.2,0.3-0.4,0.3l0,0h-9.1c-0.2,0-0.4-0.1-0.4-0.3s0.2-0.3,0.4-0.3l0,0H753.5z"/>
</g>
</svg>
