<?xml version="1.0" encoding="UTF-8"?>
<svg width="14px" height="14px" viewBox="0 0 14 14" version="1.1" xmlns="http://www.w3.org/2000/svg" xmlns:xlink="http://www.w3.org/1999/xlink">
    <title>icon/display-controller/horizontal-bars</title>
    <defs>
        <path d="M14,10.5 L14,14 L0,14 L0,10.5 L14,10.5 Z M0.875,13.125 L13.125,13.125 L13.125,11.375 L0.875,11.375 L0.875,13.125 Z M0,0 L10.5,0 L10.5,3.5 L0,3.5 L0,0 Z M9.625,0.875 L0.875,0.875 L0.875,2.625 L9.625,2.625 L9.625,0.875 Z M0,5.25 L6.125,5.25 L6.125,8.75 L0,8.75 L0,5.25 Z M5.25,6.125 L0.875,6.125 L0.875,7.875 L5.25,7.875 L5.25,6.125 Z" id="path-1"></path>
    </defs>
    <g id="Page-1" stroke="none" stroke-width="1" fill="none" fill-rule="evenodd">
        <g id="CrunchBox-page-redesign-prposal-Copy" transform="translate(-212.000000, -1220.000000)">
            <g id="icon/display-controller/horizontal-bars" transform="translate(219.000000, 1227.000000) rotate(-90.000000) translate(-219.000000, -1227.000000) translate(212.000000, 1220.000000)">
                <mask id="mask-2" fill="white">
                    <use xlink:href="#path-1"></use>
                </mask>
                <use id="юде" fill="#1D1D26" fill-rule="nonzero" xlink:href="#path-1"></use>
            </g>
        </g>
    </g>
</svg>