<?xml version="1.0" encoding="UTF-8"?>
<svg width="24px" height="14px" viewBox="0 0 24 14" version="1.1" xmlns="http://www.w3.org/2000/svg" xmlns:xlink="http://www.w3.org/1999/xlink">
    <title>Path</title>
    <g id="Page-1" stroke="none" stroke-width="1" fill="none" fill-rule="evenodd">
        <g id="600X300-v2-Copy" transform="translate(-35.000000, -35.000000)" fill="#FFFFFF">
            <path d="M56.807,48.971 L36.981,48.971 C36.371,48.971 35.864,48.518 35.779,47.931 L58.009,47.931 C57.925,48.518 57.418,48.971 56.807,48.971 M37.419,46.66 L37.419,36.27 C37.419,35.993 37.645,35.768 37.923,35.768 L55.868,35.768 C56.145,35.768 56.371,35.993 56.371,36.27 L56.371,46.661 C56.371,46.938 56.145,47.164 55.868,47.164 L46.992,47.163 L37.923,47.163 C37.645,47.163 37.419,46.937 37.419,46.66 M58.406,45.7279327 L57.033,45.7279327 C57.1,45.5912206 57.139,45.4421603 57.139,45.2842798 L57.139,36.1201574 C57.139,35.5027478 56.569,35.000882 55.868,35.000882 L46.992,35 L37.923,35 C37.222,35 36.652,35.5018658 36.652,36.1192754 L36.652,45.2842798 C36.652,45.4421603 36.69,45.5912206 36.756,45.7279327 L35.384,45.7279327 C35.171,45.7279327 35,45.878757 35,46.0657439 L35,46.2509668 C35,47.2150078 35.889,48 36.981,48 L56.807,48 C57.9,48 58.789,47.2150078 58.789,46.2509668 L58.789,46.0657439 C58.789,45.878757 58.618,45.7279327 58.406,45.7279327" id="Laptop"></path>
        </g>
    </g>
</svg>