<?xml version="1.0" encoding="utf-8"?>
<!-- Generator: Adobe Illustrator 25.2.3, SVG Export Plug-In . SVG Version: 6.00 Build 0)  -->
<svg version="1.1" id="Layer_1" xmlns="http://www.w3.org/2000/svg" xmlns:xlink="http://www.w3.org/1999/xlink" x="0px" y="0px"
	 viewBox="0 0 25.1 21.2" style="enable-background:new 0 0 25.1 21.2;" xml:space="preserve">
<style type="text/css">
	.st0{fill:#0064A4;}
</style>
<g id="Layer_2_1_">
	<g id="Layer_1-2">
		<path class="st0" d="M20.9,1.6V0h-3.3v1.6h-10V0H4.3v1.6H0v19.7h25.1V1.6H20.9z M18.5,3.1V0.9h1.4v2.2L18.5,3.1z M7.6,4.1V2.5h10
			v1.6h3.3V2.5h3.4v2.2H0.9V2.5h3.4v1.6H7.6z M6.6,0.9v2.2H5.2V0.9H6.6z M0.9,20.3V5.6h23.3v14.7H0.9z"/>
		<polygon class="st0" points="22.3,12.4 19.1,12.4 19.1,7.3 18.1,7.3 18.1,12.4 13.3,12.4 13.3,7.3 12.3,7.3 12.3,12.4 7.6,12.4 
			7.6,7.3 6.6,7.3 6.6,12.4 3.3,12.4 3.3,13.4 6.6,13.4 6.6,18.3 7.6,18.3 7.6,13.4 12.3,13.4 12.3,18.3 13.3,18.3 13.3,13.4 
			18.1,13.4 18.1,18.3 19.1,18.3 19.1,13.4 22.3,13.4 		"/>
	</g>
</g>
</svg>
