<svg xmlns="http://www.w3.org/2000/svg" viewBox="0 0 25.14 21.24"><g id="Layer_2" data-name="Layer 2"><g id="Layer_1-2" data-name="Layer 1"><path d="M20.86,1.56V0H17.58V1.56h-10V0H4.29V1.56H0V21.24H25.14V1.56ZM18.51,3.11V.91h1.41v2.2ZM7.57,4.05V2.49h10V4.05h3.28V2.49h3.37V4.67H.93V2.46H4.29V4.05ZM6.63.91v2.2H5.22V.91ZM.93,20.31V5.6h23.3V20.31Z"/><polygon points="22.32 12.42 19.07 12.42 19.07 7.32 18.07 7.32 18.07 12.42 13.32 12.42 13.32 7.32 12.32 7.32 12.32 12.42 7.57 12.42 7.57 7.32 6.57 7.32 6.57 12.42 3.32 12.42 3.32 13.42 6.57 13.42 6.57 18.32 7.57 18.32 7.57 13.42 12.32 13.42 12.32 18.32 13.32 18.32 13.32 13.42 18.07 13.42 18.07 18.32 19.07 18.32 19.07 13.42 22.32 13.42 22.32 12.42"/></g></g></svg>