<svg xmlns="http://www.w3.org/2000/svg" viewBox="0 0 12.5 18.91"><g id="Layer_2" data-name="Layer 2"><g id="Layer_1-2" data-name="Layer 1"><path d="M10.67,1.83a6.25,6.25,0,0,0-8.84,0A6.33,6.33,0,0,0,0,6.25c0,4.5,5.66,12.16,5.9,12.48a.43.43,0,0,0,.7,0c.24-.32,5.9-8,5.9-12.48A6.21,6.21,0,0,0,10.67,1.83Zm1,4.42c0,3.58-4.25,9.87-5.39,11.48C5.12,16.12.87,9.83.87,6.25a5.39,5.39,0,0,1,10.77,0Z"/><path d="M6.39,3.79H6.25a2.59,2.59,0,1,0,.14,0ZM7.86,6.25A1.61,1.61,0,1,1,5.12,5.12a1.58,1.58,0,0,1,1.13-.47,1.67,1.67,0,0,1,.62.12A1.6,1.6,0,0,1,7.86,6.25Z"/></g></g></svg>