<svg xmlns="http://www.w3.org/2000/svg" viewBox="0 0 15.88 25.81"><g id="Layer_2" data-name="Layer 2"><g id="Layer_1-2" data-name="Layer 1"><path d="M6.24,2.69h0a.85.85,0,0,1,0-.22A.85.85,0,0,0,6.24,2.69Z"/><path d="M7.09,23.11h0a.88.88,0,0,1,.25-.6A.88.88,0,0,0,7.09,23.11Z"/><path d="M14.18,24.82H1.7a.58.58,0,0,1-.57-.57.58.58,0,0,0,.57.57H14.18a.58.58,0,0,0,.57-.57A.58.58,0,0,1,14.18,24.82Z"/><path d="M8.54,22.51a.84.84,0,0,1,.25.6h0A.84.84,0,0,0,8.54,22.51Z"/><path d="M9.08,2.27H6.81a.43.43,0,1,0,0,.85H9.08a.43.43,0,0,0,0-.85Z"/><path d="M9.6,2.47a.57.57,0,0,1,0,.22h0A.57.57,0,0,0,9.6,2.47Z"/><path d="M.75.15A1.69,1.69,0,0,0,0,1.56,1.69,1.69,0,0,1,.75.15Z"/><path d="M14.18,0H1.7A1.56,1.56,0,0,0,.14,1.56V24.25A1.56,1.56,0,0,0,1.7,25.81H14.18a1.56,1.56,0,0,0,1.56-1.56V1.56A1.56,1.56,0,0,0,14.18,0Zm.71,21.41v2.84a.71.71,0,0,1-.71.71H1.7A.71.71,0,0,1,1,24.25v-3h13.9Zm0-15.88V20.42H1v-15h13.9Zm0-1.13v.14H1v-3A.71.71,0,0,1,1.7.85H14.18a.71.71,0,0,1,.71.71Z"/><path d="M7.23,23.11a.71.71,0,1,0,.71-.7A.71.71,0,0,0,7.23,23.11Z"/><rect x="1.13" y="4.4" width="13.61"/><path d="M15.88,1.56A1.69,1.69,0,0,0,15.13.15,1.69,1.69,0,0,1,15.88,1.56Z"/></g></g></svg>