<?xml version="1.0" encoding="utf-8"?>
<!-- Generator: Adobe Illustrator 25.4.2, SVG Export Plug-In . SVG Version: 6.00 Build 0)  -->
<svg version="1.1" id="Layer_1" xmlns="http://www.w3.org/2000/svg" xmlns:xlink="http://www.w3.org/1999/xlink" x="0px" y="0px"
	 viewBox="0 0 26 15.8" style="enable-background:new 0 0 26 15.8;" xml:space="preserve">
<style type="text/css">
	.st0{fill-rule:evenodd;clip-rule:evenodd;fill:#1D1D26;}
	.st1{fill:none;}
	.st2{fill:#1D1D26;}
</style>
<g>
	<path id="Combined-Shape_00000015344279630612947570000012347983261905677219_" class="st0" d="M11.3,2.9c0.1,0,0.2,0,0.3,0.1l0,0
		l6.2,4c0.3,0.2,0.3,0.6,0.1,0.9c0,0,0,0-0.1,0.1l0,0l-6.2,4.1c-0.1,0.1-0.3,0.1-0.5,0s-0.3-0.3-0.3-0.5l0,0V3.5
		C10.8,3.2,11,2.9,11.3,2.9z M11.8,4.4v6.2l4.7-3.1L11.8,4.4z"/>
	<g id="Path_188">
		<path class="st1" d="M1.2,0h23.5c0.6,0,1.1,0.5,1.1,1.2v12.7c0,0.6-0.5,1.1-1.1,1.2H1.2c-0.6,0-1.1-0.5-1.1-1.2l0,0V1.2
			C0.1,0.5,0.6,0,1.2,0z"/>
		<path class="st2" d="M1.2,1.1L1.2,1.1v12.8V14h23.5c0,0,0,0,0-0.1V1.2V1.1H1.2 M1.2,0h23.5c0.6,0,1.1,0.5,1.1,1.2v12.7
			c0,0.6-0.5,1.2-1.1,1.2H1.2c-0.6,0-1.1-0.5-1.1-1.2V1.2C0.1,0.5,0.6,0,1.2,0z"/>
	</g>
</g>
</svg>
