<?xml version="1.0" encoding="UTF-8"?>
<svg width="26px" height="20px" viewBox="0 0 26 20" version="1.1" xmlns="http://www.w3.org/2000/svg" xmlns:xlink="http://www.w3.org/1999/xlink">
    <title>Group 8 Copy 2</title>
    <g id="Page-1" stroke="none" stroke-width="1" fill="none" fill-rule="evenodd">
        <g id="Resources-page-opt-02-Copy-5" transform="translate(-560.000000, -850.000000)" fill="#1D1D26">
            <g id="Group-12" transform="translate(173.000000, 716.000000)">
                <g id="Group-11">
                    <g id="Group-8-Copy-2" transform="translate(387.000000, 134.000000)">
                        <path d="M2.51444476,17 C3.11080326,17 3.65316183,17.3534299 3.89607416,17.9003635 L3.89607416,17.9003635 L3.92866635,17.9735764 L24.4684764,17.9735764 C24.7616314,17.9735764 25,18.2096579 25,18.5 C25,18.7902556 24.7616314,19.0264236 24.4684764,19.0264236 L24.4684764,19.0264236 L3.92866635,19.0264236 L3.89607416,19.0996365 C3.65316183,19.6465701 3.11080326,20 2.51444476,20 C1.67936811,20 1,19.3271505 1,18.5 C1,17.6728495 1.67936811,17 2.51444476,17 Z M26,0 L26,15 L0,15 L0,0 L26,0 Z M24.9354704,1.03012976 L1.0643546,1.03012976 L1.0643546,13.9699549 L24.9354704,13.9699549 L24.9354704,1.03012976 Z M10.4437834,3.00095522 C10.5371466,2.99453461 10.6342314,3.02056885 10.7176434,3.07641932 L10.7176434,3.07641932 L16.7855235,7.03432692 C16.9178825,7.1204334 17,7.30249714 17,7.5097156 C17,7.71684609 16.9178825,7.8989978 16.7854426,7.98510427 L16.7854426,7.98510427 L10.717967,11.942836 C10.5911096,12.0252484 10.4232338,12.0182121 10.2692735,11.923926 C10.1046339,11.8232192 10.0014813,11.6499508 10.0000522,11.4727245 L10.0000522,11.4727245 L10.0000522,3.55506228 C9.99622255,3.28091122 10.2034986,3.02215201 10.4437834,3.00095522 Z M10.9653714,4.50135401 L10.9653714,10.5176374 L15.5789214,7.51499281 L10.9653714,4.50135401 Z" id="Combined-Shape"></path>
                    </g>
                </g>
            </g>
        </g>
    </g>
</svg>