<?xml version="1.0" encoding="UTF-8"?>
<svg width="25px" height="23px" viewBox="0 0 25 23" version="1.1" xmlns="http://www.w3.org/2000/svg" xmlns:xlink="http://www.w3.org/1999/xlink">
    <title>Fill 1</title>
    <g id="Page-1" stroke="none" stroke-width="1" fill="none" fill-rule="evenodd">
        <g id="Resources-page-opt-02-Copy-5" transform="translate(-930.000000, -1036.000000)" fill="#1D1D26">
            <g id="Group-12" transform="translate(173.000000, 716.000000)">
                <g id="Group-11">
                    <g id="Group-9" transform="translate(743.000000, 190.000000)">
                        <path d="M15.0155867,147.077474 L37.9864133,147.077474 L37.9864133,131.01492 L15.0155867,131.01492 L15.0155867,147.077474 Z M28.01088,139.034447 L25.9092897,137.657442 L25.9092897,140.411451 L28.01088,139.034447 Z M25.7159557,136.352688 L29.1944673,138.623195 C29.5088017,138.816529 29.4844683,139.275531 29.1944673,139.468865 L25.6924556,141.739456 C25.3545378,141.957207 24.9199531,141.715039 24.9199531,141.329288 L24.9199531,136.739522 C24.9199531,136.329354 25.4033713,136.087104 25.7168724,136.352771 L25.7159557,136.352688 Z M26.488375,134.516682 C24.0001167,134.516682 21.9718599,136.546022 21.9718599,139.033197 C21.9718599,141.521455 24.0012,143.549712 26.488375,143.549712 C29.0001333,143.549712 31.00489,141.520455 31.00489,139.033197 C31.00489,136.544938 28.9999667,134.516682 26.488375,134.516682 L26.488375,134.516682 Z M26.488375,133.502012 C29.5558852,133.502012 32.0196434,135.990353 32.0196434,139.033363 C32.0196434,142.07729 29.5557185,144.564632 26.488375,144.564632 C23.4443648,144.564632 20.9816066,142.076374 20.9816066,139.033363 C20.9816066,135.989353 23.4455315,133.502012 26.488375,133.502012 L26.488375,133.502012 Z M14.507835,130 L38.493165,130 C38.7831659,130 39,130.217834 39,130.506918 L39,147.559642 C39,147.849726 38.7822493,148.066477 38.493165,148.066477 L26.9951267,148.066477 L26.9951267,151.08607 L30.0146367,151.08607 C30.2802209,151.08607 30.5214717,151.303821 30.5214717,151.592822 C30.5214717,151.858406 30.2802209,152.07624 30.0146367,152.07624 L22.9853633,152.07624 C22.6953623,152.07624 22.4785283,151.858406 22.4785283,151.592822 C22.4785283,151.302738 22.696279,151.08607 22.9853633,151.08607 L26.0048733,151.08607 L26.0048733,148.066477 L14.506835,148.066477 C14.2167507,148.066477 14,147.848726 14,147.559642 L14,130.506918 C14,130.216834 14.2177507,130 14.506835,130 L14.507835,130 Z" id="Fill-1"></path>
                    </g>
                </g>
            </g>
        </g>
    </g>
</svg>