<?xml version="1.0" encoding="utf-8"?>
<!-- Generator: Adobe Illustrator 24.1.2, SVG Export Plug-In . SVG Version: 6.00 Build 0)  -->
<svg version="1.1" id="Layer_1" xmlns="http://www.w3.org/2000/svg" xmlns:xlink="http://www.w3.org/1999/xlink" x="0px" y="0px"
	 viewBox="0 0 25 23" style="enable-background:new 0 0 25 23;" xml:space="preserve">
<style type="text/css">
	.st0{fill:#FFFFFF;}
</style>
<g id="Page-1">
	<g id="Resources-page-opt-02-Copy-5" transform="translate(-930.000000, -1036.000000)">
		<g id="Group-12" transform="translate(173.000000, 716.000000)">
			<g id="Group-11">
				<g id="Group-9" transform="translate(743.000000, 190.000000)">
					<path id="Fill-1" class="st0" d="M15,147.1h23V131H15V147.1z M28,139l-2.1-1.4v2.8L28,139z M25.7,136.4l3.5,2.3
						c0.3,0.2,0.3,0.7,0,0.8l-3.5,2.3c-0.3,0.2-0.8,0-0.8-0.4v-4.6C24.9,136.3,25.4,136.1,25.7,136.4L25.7,136.4z M26.5,134.5
						c-2.5,0-4.5,2-4.5,4.5c0,2.5,2,4.5,4.5,4.5c2.5,0,4.5-2,4.5-4.5C31,136.5,29,134.5,26.5,134.5L26.5,134.5z M26.5,133.5
						c3.1,0,5.5,2.5,5.5,5.5c0,3-2.5,5.5-5.5,5.5c-3,0-5.5-2.5-5.5-5.5C21,136,23.4,133.5,26.5,133.5L26.5,133.5z M14.5,130h24
						c0.3,0,0.5,0.2,0.5,0.5v17.1c0,0.3-0.2,0.5-0.5,0.5H27v3h3c0.3,0,0.5,0.2,0.5,0.5c0,0.3-0.2,0.5-0.5,0.5h-7
						c-0.3,0-0.5-0.2-0.5-0.5c0-0.3,0.2-0.5,0.5-0.5h3v-3H14.5c-0.3,0-0.5-0.2-0.5-0.5v-17.1C14,130.2,14.2,130,14.5,130L14.5,130z"
						/>
				</g>
			</g>
		</g>
	</g>
</g>
</svg>
