<?xml version="1.0" encoding="utf-8"?>
<!-- Generator: Adobe Illustrator 24.1.2, SVG Export Plug-In . SVG Version: 6.00 Build 0)  -->
<svg version="1.1" id="Layer_1" xmlns="http://www.w3.org/2000/svg" xmlns:xlink="http://www.w3.org/1999/xlink" x="0px" y="0px"
	 viewBox="0 0 22 26.1" style="enable-background:new 0 0 22 26.1;" xml:space="preserve">
<style type="text/css">
	.st0{filter:url(#Adobe_OpacityMaskFilter);}
	.st1{fill-rule:evenodd;clip-rule:evenodd;fill:#FFFFFF;}
	.st2{mask:url(#mask-2_1_);fill-rule:evenodd;clip-rule:evenodd;fill:#1D1D26;stroke:#1D1D26;stroke-width:0.25;}
</style>
<g id="Page-1">
	<g id="Resources-page-opt-02-Copy-5" transform="translate(-931.000000, -840.000000)">
		<g id="Group-12" transform="translate(173.000000, 716.000000)">
			<g id="Group-11">
				<g id="Group-3-Copy-2" transform="translate(758.000000, 124.000000)">
					<g id="Clip-2">
					</g>
					<defs>
						<filter id="Adobe_OpacityMaskFilter" filterUnits="userSpaceOnUse" x="-0.1" y="0.7" width="22.2" height="25.2">
							<feColorMatrix  type="matrix" values="1 0 0 0 0  0 1 0 0 0  0 0 1 0 0  0 0 0 1 0"/>
						</filter>
					</defs>
					<mask maskUnits="userSpaceOnUse" x="-0.1" y="0.7" width="22.2" height="25.2" id="mask-2_1_">
						<g class="st0">
							<polygon id="path-1_1_" class="st1" points="0,-4.2 22,-4.2 22,25.8 0,25.8 							"/>
						</g>
					</mask>
					<path id="Fill-1" class="st2" d="M21.2,20.1h-4.8c-0.2,0-0.4,0.2-0.4,0.4V25H5V10.3h0v-0.1l0-4.8h16.3L21.2,20.1z M16.8,24.5
						v-3.6h3.9L16.8,24.5z M0.8,21.2V6.5h0V6.4l0-4.8h16.3v3.1H4.6C4.3,4.6,4.2,4.8,4.2,5v16.2H0.8z M21.6,4.6h-3.8V1.2
						c0-0.2-0.2-0.4-0.4-0.4H0.4C0.2,0.8,0,0.9,0,1.2v20.4c0,0.2,0.2,0.4,0.4,0.4h3.8v3.5c0,0.2,0.2,0.4,0.4,0.4h11.8h0
						c0,0,0.1,0,0.1,0h0c0,0,0.1,0,0.1-0.1l5.2-4.9c0,0,0-0.1,0.1-0.1v0c0,0,0-0.1,0-0.1v0L22,5C22,4.8,21.8,4.6,21.6,4.6L21.6,4.6z
						"/>
				</g>
			</g>
		</g>
	</g>
</g>
</svg>
