<?xml version="1.0" encoding="UTF-8"?>
<svg width="221px" height="181px" viewBox="0 0 221 181" version="1.1" xmlns="http://www.w3.org/2000/svg" xmlns:xlink="http://www.w3.org/1999/xlink">
    <title>Group 11</title>
    <g id="Page-1" stroke="none" stroke-width="1" fill="none" fill-rule="evenodd">
        <g id="Group-11" transform="translate(0.000000, 0.000000)">
            <polygon id="Rectangle-Copy-131" fill="#0062A6" transform="translate(40.500000, 110.500000) rotate(-90.000000) translate(-40.500000, -110.500000) " points="-8 104 89 104 89 117 -8 117"></polygon>
            <polygon id="Rectangle-Copy-132" fill="#0062A6" transform="translate(103.500000, 127.000000) rotate(-90.000000) translate(-103.500000, -127.000000) " points="71.5 120.5 135.5 120.5 135.5 133.5 71.5 133.5"></polygon>
            <polygon id="Rectangle-Copy-133" fill="#0062A6" transform="translate(167.500000, 107.500000) rotate(-90.000000) translate(-167.500000, -107.500000) " points="116 101 219 101 219 114 116 114"></polygon>
            <polygon id="Rectangle-Copy-134" fill="#722580" transform="translate(53.500000, 100.500000) rotate(-90.000000) translate(-53.500000, -100.500000) " points="-5 94 112 94 112 107 -5 107"></polygon>
            <rect id="Rectangle-Copy-135" fill="#722580" transform="translate(116.500000, 120.500000) rotate(-90.000000) translate(-116.500000, -120.500000) " x="78" y="114" width="77" height="13"></rect>
            <polygon id="Rectangle-Copy-136" fill="#722580" transform="translate(180.500000, 114.500000) rotate(-90.000000) translate(-180.500000, -114.500000) " points="136 108 225 108 225 121 136 121"></polygon>
            <polygon id="Rectangle-Copy-137" fill="#107F65" transform="translate(66.500000, 114.500000) rotate(-90.000000) translate(-66.500000, -114.500000) " points="22 108 111 108 111 121 22 121"></polygon>
            <polygon id="Rectangle-Copy-138" fill="#107F65" transform="translate(129.500000, 114.500000) rotate(-90.000000) translate(-129.500000, -114.500000) " points="85 108 174 108 174 121 85 121"></polygon>
            <polygon id="Rectangle-Copy-139" fill="#107F65" transform="translate(193.500000, 100.500000) rotate(-90.000000) translate(-193.500000, -100.500000) " points="135 94 252 94 252 107 135 107"></polygon>
            <g id="Group-17-Copy-3" transform="translate(-0.000000, 0.000000)" fill="#F1F1F1" stroke="#E5E5E5">
                <rect id="Rectangle" x="0.5" y="0.5" width="220" height="180" rx="1"></rect>
            </g>
            <rect id="Rectangle" fill="#107F65" x="-9.09494702e-13" y="0" width="221" height="14"></rect>
            <rect id="Rectangle" fill="#0062A6" x="193" y="0" width="28" height="14"></rect>
            <g id="Group-23" transform="translate(28.000000, 32.000000)">
                <line x1="0" y1="117.53125" x2="165.312523" y2="117.46875" id="Line-3-Copy" stroke="#D3D3D3" stroke-linecap="square"></line>
                <g id="Group-13-Copy-4" transform="translate(83.000000, 59.000000) rotate(-90.000000) translate(-83.000000, -59.000000) translate(24.000000, -24.000000)">
                    <polygon id="Rectangle-Copy-17" fill="#0062A6" transform="translate(49.500000, 6.500000) rotate(-360.000000) translate(-49.500000, -6.500000) " points="1 0 98 0 98 13 1 13"></polygon>
                    <polygon id="Rectangle-Copy-20" fill="#0062A6" transform="translate(33.000000, 69.500000) rotate(-360.000000) translate(-33.000000, -69.500000) " points="1 63 65 63 65 76 1 76"></polygon>
                    <polygon id="Rectangle-Copy-23" fill="#0062A6" transform="translate(52.500000, 133.500000) rotate(-360.000000) translate(-52.500000, -133.500000) " points="1 127 104 127 104 140 1 140"></polygon>
                    <polygon id="Rectangle-Copy-18" fill="#722580" transform="translate(59.500000, 19.500000) rotate(-360.000000) translate(-59.500000, -19.500000) " points="1 13 118 13 118 26 1 26"></polygon>
                    <rect id="Rectangle-Copy-21" fill="#722580" transform="translate(39.500000, 82.500000) rotate(-360.000000) translate(-39.500000, -82.500000) " x="1" y="76" width="77" height="13"></rect>
                    <polygon id="Rectangle-Copy-24" fill="#722580" transform="translate(45.500000, 146.500000) rotate(-360.000000) translate(-45.500000, -146.500000) " points="1 140 90 140 90 153 1 153"></polygon>
                    <polygon id="Rectangle-Copy-19" fill="#107F65" transform="translate(45.500000, 32.500000) rotate(-360.000000) translate(-45.500000, -32.500000) " points="1 26 90 26 90 39 1 39"></polygon>
                    <polygon id="Rectangle-Copy-22" fill="#107F65" transform="translate(45.500000, 95.500000) rotate(-360.000000) translate(-45.500000, -95.500000) " points="1 89 90 89 90 102 1 102"></polygon>
                    <polygon id="Rectangle-Copy-25" fill="#107F65" transform="translate(59.500000, 159.500000) rotate(-360.000000) translate(-59.500000, -159.500000) " points="1 153 118 153 118 166 1 166"></polygon>
                    <line x1="0.25" y1="0.643676579" x2="0.3125" y2="165.9562" id="Line-3" stroke="#D3D3D3" stroke-linecap="square"></line>
                </g>
            </g>
            <g id="Group-24" transform="translate(141.000000, 163.000000)" fill="#D8D8D8">
                <circle id="Oval" cx="61.5" cy="4.5" r="4.5"></circle>
                <circle id="Oval-Copy-9" cx="47.5" cy="4.5" r="4.5"></circle>
                <circle id="Oval-Copy-10" cx="33.5" cy="4.5" r="4.5"></circle>
                <circle id="Oval-Copy-11" cx="18.5" cy="4.5" r="4.5"></circle>
                <circle id="Oval-Copy-12" cx="4.5" cy="4.5" r="4.5"></circle>
            </g>
        </g>
    </g>
</svg>