<?xml version="1.0" encoding="UTF-8"?>
<svg width="317px" height="212px" viewBox="0 0 317 212" version="1.1" xmlns="http://www.w3.org/2000/svg" xmlns:xlink="http://www.w3.org/1999/xlink">
    <title>Group 25</title>
    <g id="Page-1" stroke="none" stroke-width="1" fill="none" fill-rule="evenodd">
        <g id="visualisation-&amp;-delivery" transform="translate(-801.000000, -899.000000)">
            <g id="Group-25" transform="translate(802.000000, 899.000000)">
                <line x1="0.75" y1="89.3323171" x2="0.375" y2="198" id="Line-3" stroke="#D3D3D3" stroke-linecap="square"></line>
                <line x1="154.665217" y1="198.5" x2="1" y2="200" id="Line-3" stroke="#D3D3D3" stroke-linecap="square"></line>
                <polyline id="Path-5" stroke="#107F65" stroke-width="3" points="11 151.966667 27.0843585 189 60.9547086 128.736667 98.1236087 176.543333 154 88"></polyline>
                <polyline id="Path-5-Copy-2" stroke="#722580" stroke-width="3" points="11 145.746479 27.0843585 164 59.7085896 136.957746 98.1236087 155.211268 154 116"></polyline>
                <polyline id="Path-5-Copy" stroke="#0062A6" stroke-width="3" points="8 160.666667 27.5214654 174 60.6637808 148 98.8757871 161.666667 155 102"></polyline>
                <g id="Group-17-Copy" transform="translate(52.000000, 7.000000)" fill="#F1F1F1" stroke="#E5E5E5">
                    <rect id="Rectangle" x="0.5" y="0.5" width="191" height="101" rx="1"></rect>
                </g>
                <g id="Group-5" transform="translate(70.000000, 20.000000)">
                    <rect id="Rectangle" fill="#D3D3D3" x="46.8" y="17.2727273" width="13.8666667" height="6.90909091" rx="0.5"></rect>
                    <rect id="Rectangle-Copy" fill="#D3D3D3" x="91" y="17.2727273" width="13.8666667" height="6.90909091" rx="0.5"></rect>
                    <rect id="Rectangle-Copy-2" fill="#D3D3D3" x="135.2" y="17.2727273" width="13.8666667" height="6.90909091" rx="0.5"></rect>
                    <rect id="Rectangle-Copy-3" fill="#D3D3D3" x="46.8" y="35.4090909" width="13.8666667" height="6.90909091" rx="0.5"></rect>
                    <rect id="Rectangle-Copy-11" fill="#D3D3D3" x="91" y="35.4090909" width="13.8666667" height="6.90909091" rx="0.5"></rect>
                    <rect id="Rectangle-Copy-13" fill="#D3D3D3" x="135.2" y="35.4090909" width="13.8666667" height="6.90909091" rx="0.5"></rect>
                    <rect id="Rectangle-Copy-9" fill="#D3D3D3" x="46.8" y="51.8181818" width="13.8666667" height="6.90909091" rx="0.5"></rect>
                    <rect id="Rectangle-Copy-12" fill="#D3D3D3" x="91" y="51.8181818" width="13.8666667" height="6.90909091" rx="0.5"></rect>
                    <rect id="Rectangle-Copy-38" fill="#D3D3D3" x="135.2" y="51.8181818" width="13.8666667" height="6.90909091" rx="0.5"></rect>
                    <rect id="Rectangle-Copy-10" fill="#D3D3D3" x="46.8" y="69.0909091" width="13.8666667" height="6.90909091" rx="0.5"></rect>
                    <rect id="Rectangle-Copy-37" fill="#D3D3D3" x="91" y="69.0909091" width="13.8666667" height="6.90909091" rx="0.5"></rect>
                    <rect id="Rectangle-Copy-39" fill="#D3D3D3" x="135.2" y="69.0909091" width="13.8666667" height="6.90909091" rx="0.5"></rect>
                    <rect id="Rectangle-Copy-4" fill="#107F65" x="38.1333333" y="0" width="30.3333333" height="6.90909091" rx="0.5"></rect>
                    <rect id="Rectangle-Copy-7" fill="#107F65" x="0" y="17.2727273" width="30.3333333" height="6.90909091" rx="0.5"></rect>
                    <rect id="Rectangle-Copy-8" fill="#107F65" x="0" y="35.4090909" width="30.3333333" height="6.90909091" rx="0.5"></rect>
                    <rect id="Rectangle-Copy-35" fill="#107F65" x="0" y="51.8181818" width="30.3333333" height="6.90909091" rx="0.5"></rect>
                    <rect id="Rectangle-Copy-36" fill="#107F65" x="0" y="69.0909091" width="30.3333333" height="6.90909091" rx="0.5"></rect>
                    <rect id="Rectangle-Copy-5" fill="#107F65" x="81.4666667" y="0" width="30.3333333" height="6.90909091" rx="0.5"></rect>
                    <rect id="Rectangle-Copy-6" fill="#107F65" x="125.666667" y="0" width="30.3333333" height="6.90909091" rx="0.5"></rect>
                </g>
                <polygon id="Rectangle-Copy-17" fill="#0062A6" transform="translate(257.000000, 72.500000) rotate(-360.000000) translate(-257.000000, -72.500000) " points="215 67 299 67 299 78 215 78"></polygon>
                <polygon id="Rectangle-Copy-20" fill="#0062A6" transform="translate(242.000000, 127.500000) rotate(-360.000000) translate(-242.000000, -127.500000) " points="214 122 270 122 270 133 214 133"></polygon>
                <polygon id="Rectangle-Copy-23" fill="#0062A6" transform="translate(259.500000, 182.500000) rotate(-360.000000) translate(-259.500000, -182.500000) " points="215 177 304 177 304 188 215 188"></polygon>
                <polygon id="Rectangle-Copy-18" fill="#722580" transform="translate(265.000000, 83.500000) rotate(-360.000000) translate(-265.000000, -83.500000) " points="214 78 316 78 316 89 214 89"></polygon>
                <rect id="Rectangle-Copy-21" fill="#722580" transform="translate(247.500000, 138.500000) rotate(-360.000000) translate(-247.500000, -138.500000) " x="214" y="133" width="67" height="11"></rect>
                <polygon id="Rectangle-Copy-24" fill="#722580" transform="translate(253.500000, 194.500000) rotate(-360.000000) translate(-253.500000, -194.500000) " points="215 189 292 189 292 200 215 200"></polygon>
                <polygon id="Rectangle-Copy-19" fill="#107F65" transform="translate(253.500000, 95.500000) rotate(-360.000000) translate(-253.500000, -95.500000) " points="215 90 292 90 292 101 215 101"></polygon>
                <polygon id="Rectangle-Copy-22" fill="#107F65" transform="translate(253.500000, 149.500000) rotate(-360.000000) translate(-253.500000, -149.500000) " points="215 144 292 144 292 155 215 155"></polygon>
                <polygon id="Rectangle-Copy-25" fill="#107F65" transform="translate(265.000000, 205.500000) rotate(-360.000000) translate(-265.000000, -205.500000) " points="214 200 316 200 316 211 214 211"></polygon>
                <line x1="213.25" y1="67.55837" x2="213.3125" y2="210.962004" id="Line-3" stroke="#D3D3D3" stroke-linecap="square"></line>
                <g id="Group-8" transform="translate(5.000000, 0.000000)">
                    <g id="Group-17-Copy-2" fill="#F1F1F1" stroke="#E5E5E5">
                        <rect id="Rectangle" x="0.5" y="0.5" width="58" height="31.3015873" rx="1"></rect>
                    </g>
                    <g id="Group-7" transform="translate(0.000000, 25.317460)">
                        <path d="M29.0372686,24.0008115 L29.0372686,24.0021905 C27.8671811,26.2679532 25.5323919,28.6274905 22.9525442,28.7929753 C22.8488655,28.7998705 22.79366,28.8053867 22.737108,28.8053867 L16.7789523,28.8026286 L16.1070609,28.8067657 C15.8700811,28.8081448 15.6304084,28.8095238 15.3920822,28.8095238 C14.2233411,28.8095238 13.0451748,28.7667736 11.9666476,28.4592477 C10.5649662,28.0593261 9.61166131,27.0236671 8.60180441,25.9259513 C8.345974,25.6446271 8.09552949,25.3770933 7.8383526,25.1136967 L1.87885043,19.0073078 C1.22580964,18.3398524 0.867647059,17.4489926 0.867647059,16.5029712 C0.867647059,15.5569498 1.22580964,14.667469 1.87885043,13.9986346 L2.0256163,13.8496983 C2.67731062,13.1808639 3.54578755,12.8126603 4.46946999,12.8126603 C5.39315243,12.8126603 6.26566879,13.1863801 6.92948139,13.8662468 C7.05470365,13.9917394 7.24321027,14.0275945 7.41286623,13.9600215 C7.57713628,13.8883114 7.68350788,13.7242057 7.68350788,13.5394143 L7.6821614,3.73857733 C7.6821614,2.22852858 8.88052492,0.999803971 10.354916,0.999803971 C11.6381075,0.999803971 12.7422177,1.94030922 12.9791974,3.23522775 L12.9832369,5.40721568 C12.9832369,5.452724 12.9926622,5.5009904 13.0128593,5.55891008 L13.0276706,5.65406384 L13.0276706,5.90780719 C13.0276706,6.15879246 13.226949,6.36426942 13.4733541,6.36426942 C13.7184127,6.36426942 13.9176911,6.15879246 13.9176911,5.90780719 L13.9176911,3.73719829 C13.9176911,3.55930214 13.9015334,3.38416406 13.8772968,3.21316311 L13.8746039,2.73739432 C13.8746039,1.22734556 15.0729674,0 16.5473585,0 C18.0217495,0 19.2201131,1.22734556 19.2201131,2.73739432 L19.2201131,6.40701966 C19.2201131,6.53389133 19.2699327,6.65110973 19.3601466,6.73523117 C19.6913796,7.21375803 20.2191982,6.9434662 20.2191982,6.53664941 L20.2191982,3.64618165 C20.2191982,2.36643257 21.2357874,1.3252574 22.485317,1.3252574 C23.7361931,1.3252574 24.7527824,2.36643257 24.7527824,3.64618165 L24.7527824,5.42790128 C24.7123881,5.66923328 24.6935374,5.85540367 24.6935374,6.04019503 L24.6935374,7.37372667 C24.6935374,7.53645338 24.7783654,7.68263162 24.9183989,7.76537402 C25.2913727,8.02877065 25.6441494,7.75572074 25.6441494,7.41096075 L25.6535747,5.54374064 C25.8743968,4.66667123 26.644581,4.05299844 27.5238297,4.05299844 C28.594278,4.05299844 29.4641014,4.9452373 29.4641014,6.04157407 L29.4641014,13.4015103 C29.4641014,13.4428815 29.4721803,13.4801156 29.4802591,13.5173497 L29.485645,20.3891058 C29.485645,20.6069941 29.488338,20.8166082 29.4923774,21.0248432 C29.5125746,22.1101477 29.5287323,23.0465158 29.0372686,24.0008115" id="Fill-1" fill="#FFFFFF"></path>
                        <path d="M28.7504903,24.1383603 L28.7504903,24.1396965 C27.5929044,26.3351862 25.283061,28.6215422 22.7307773,28.7818945 C22.6282064,28.7885758 22.5735907,28.7939209 22.5176429,28.7939209 L16.6231464,28.7912484 L15.9584336,28.7952572 C15.7239859,28.7965934 15.4868739,28.7979297 15.2510941,28.7979297 C14.0948403,28.7979297 12.9292618,28.7565054 11.8622581,28.4585174 C10.4755528,28.0709995 9.53243332,27.0674616 8.5333661,26.0037916 C8.28026908,25.7311927 8.03250041,25.4719566 7.77807129,25.2167292 L1.88224263,19.2997308 C1.23617917,18.6529767 0.881843328,17.789747 0.881843328,16.8730666 C0.881843328,15.9563862 1.23617917,15.0944928 1.88224263,14.4464024 L2.0274404,14.3020854 C2.67217178,13.653995 3.53136958,13.2972112 4.44518306,13.2972112 C5.35899654,13.2972112 6.22219061,13.6593401 6.8789108,14.3181206 C7.00279513,14.4397211 7.18928768,14.474464 7.35713097,14.4089869 C7.5196459,14.3395009 7.62488098,14.1804849 7.62488098,14.0014249 L7.62354889,4.50456225 C7.62354889,3.04134787 8.80910865,1.85073234 10.2677468,1.85073234 C11.5372282,1.85073234 12.6295417,2.76206769 12.8639895,4.01682412 L12.8679857,6.12144754 C12.8679857,6.16554442 12.8773104,6.21231382 12.8972917,6.26843712 L12.9119447,6.36063967 L12.9119447,6.60651313 C12.9119447,6.84971406 13.1090939,7.04881812 13.3528663,7.04881812 C13.5953067,7.04881812 13.7924559,6.84971406 13.7924559,6.60651313 L13.7924559,4.50322598 C13.7924559,4.3308473 13.7764708,4.16114116 13.7524932,3.99544382 L13.7498291,3.53443107 C13.7498291,2.0712167 14.9353888,0.881937433 16.3940269,0.881937433 C17.8526651,0.881937433 19.0382248,2.0712167 19.0382248,3.53443107 L19.0382248,7.09024245 C19.0382248,7.21317918 19.0875122,7.32676203 19.1767622,7.40827443 C19.5044562,7.87195972 20.0266353,7.61005103 20.0266353,7.21585172 L20.0266353,4.41503224 C20.0266353,3.17497476 21.032363,2.16609179 22.2685422,2.16609179 C23.5060534,2.16609179 24.5117811,3.17497476 24.5117811,4.41503224 L24.5117811,6.14149158 C24.4718184,6.37533862 24.4531691,6.55573492 24.4531691,6.73479494 L24.4531691,8.02696691 C24.4531691,8.18464663 24.5370908,8.32629113 24.6756281,8.40646726 C25.0446169,8.6616946 25.3936244,8.39711337 25.3936244,8.06304616 L25.402949,6.25373816 C25.6214117,5.40387118 26.383367,4.80923155 27.2532215,4.80923155 C28.3122328,4.80923155 29.1727627,5.67379748 29.1727627,6.73613121 L29.1727627,13.867798 C29.1727627,13.9078861 29.1807552,13.9439653 29.1887477,13.9800446 L29.1940761,20.6386722 C29.1940761,20.8498027 29.1967403,21.0529155 29.2007366,21.2546921 C29.2207179,22.3063357 29.236703,23.2136622 28.7504903,24.1383603 L28.7504903,24.1383603 Z M30.3676471,21.2346481 L30.083912,21.2399932 C30.0812478,21.0435616 30.0799157,20.8431213 30.0799157,20.6373359 L30.0799157,12.4179463 C30.0799157,12.3778582 30.0719232,12.341779 30.0639306,12.3056997 L30.0586023,6.73345867 C30.0586023,5.18338682 28.8024418,3.92328531 27.2572178,3.92328531 C26.7510237,3.92328531 26.250158,4.0649298 25.8105685,4.33218357 L25.4242625,4.56736689 L25.3816356,4.11704429 C25.2284453,2.50015899 23.8923594,1.28148181 22.2725384,1.28148181 C21.4466429,1.28148181 20.6673704,1.6035226 20.0772547,2.18880836 L19.7868592,2.47744242 L19.6190159,2.10328715 C19.0515457,0.824477873 17.7873927,0 16.3993553,0 C15.056609,0 13.8484037,0.750983087 13.2462992,1.96164265 L13.0691313,2.3197627 L12.7907245,2.03380117 C12.1193514,1.34695899 11.2255192,0.968794907 10.2717431,0.968794907 C8.32689221,0.968794907 6.74570183,2.55628229 6.74570183,4.50589852 L6.74570183,13.052674 L6.33808241,12.8535699 C5.74397044,12.5622633 5.1072316,12.4152738 4.44518306,12.4152738 C3.2982539,12.4152738 2.21792922,12.8629238 1.40402246,13.6767115 L1.26015678,13.8223649 C0.447582112,14.6374888 0,15.7198666 0,16.8730666 C0,18.0249303 0.447582112,19.1073081 1.25882469,19.9251046 L7.15864962,25.842103 C7.39842575,26.0826314 7.63154143,26.3325137 7.86465711,26.5797234 C8.9316609,27.7168882 10.003993,28.8580618 11.6264782,29.3097207 C12.8559969,29.654478 14.1534522,29.6825397 15.2710754,29.6825397 L22.5203071,29.6771946 C22.5722586,29.6771946 22.622878,29.6745221 22.6734974,29.6718495 L22.7480944,29.6678407 C25.8825013,29.4700729 28.3535276,26.7881814 29.5310948,24.5512673 C30.1198784,23.4341466 30.1038933,22.3704766 30.0852441,21.2453382 L30.3676471,21.2346481 Z" id="Fill-1" fill="#E5E5E5"></path>
                    </g>
                    <text id="Age" font-family="ProximaNova-Regular, Proxima Nova" font-size="18" font-weight="normal" line-spacing="21" fill="#D3D3D3">
                        <tspan x="12.1470588" y="24.6507937">Age</tspan>
                    </text>
                </g>
            </g>
        </g>
    </g>
</svg>