<?xml version="1.0" encoding="UTF-8"?>
<svg width="322px" height="267px" viewBox="0 0 322 267" version="1.1" xmlns="http://www.w3.org/2000/svg" xmlns:xlink="http://www.w3.org/1999/xlink">
    <title>Group 10</title>
    <g id="Page-1" stroke="none" stroke-width="1" fill="none" fill-rule="evenodd">
        <g id="Group-10">
            <g id="Group-6-Copy" transform="translate(0.000000, 86.000000)">
                <g id="Group-17-Copy-4" fill="#F1F1F1" stroke="#E5E5E5">
                    <rect id="Rectangle" x="0.5" y="0.5" width="220" height="180" rx="1"></rect>
                </g>
                <g id="Group-4" transform="translate(21.000000, 16.000000)">
                    <rect id="Rectangle" fill="#D3D3D3" x="54" y="20" width="16" height="8" rx="0.5"></rect>
                    <rect id="Rectangle-Copy" fill="#D3D3D3" x="105" y="20" width="16" height="8" rx="0.5"></rect>
                    <rect id="Rectangle-Copy-2" fill="#D3D3D3" x="156" y="20" width="16" height="8" rx="0.5"></rect>
                    <rect id="Rectangle-Copy-3" fill="#D3D3D3" x="54" y="41" width="16" height="8" rx="0.5"></rect>
                    <rect id="Rectangle-Copy-11" fill="#D3D3D3" x="105" y="41" width="16" height="8" rx="0.5"></rect>
                    <rect id="Rectangle-Copy-13" fill="#D3D3D3" x="156" y="41" width="16" height="8" rx="0.5"></rect>
                    <rect id="Rectangle-Copy-9" fill="#D3D3D3" x="54" y="60" width="16" height="8" rx="0.5"></rect>
                    <rect id="Rectangle-Copy-12" fill="#D3D3D3" x="105" y="60" width="16" height="8" rx="0.5"></rect>
                    <rect id="Rectangle-Copy-38" fill="#D3D3D3" x="156" y="60" width="16" height="8" rx="0.5"></rect>
                    <rect id="Rectangle-Copy-10" fill="#D3D3D3" x="54" y="80" width="16" height="8" rx="0.5"></rect>
                    <rect id="Rectangle-Copy-32" fill="#D3D3D3" x="54" y="99" width="16" height="8" rx="0.5"></rect>
                    <rect id="Rectangle-Copy-64" fill="#D3D3D3" x="54" y="120" width="16" height="8" rx="0.5"></rect>
                    <rect id="Rectangle-Copy-103" fill="#D3D3D3" x="54" y="141" width="16" height="8" rx="0.5"></rect>
                    <rect id="Rectangle-Copy-37" fill="#D3D3D3" x="105" y="80" width="16" height="8" rx="0.5"></rect>
                    <rect id="Rectangle-Copy-40" fill="#D3D3D3" x="105" y="99" width="16" height="8" rx="0.5"></rect>
                    <rect id="Rectangle-Copy-71" fill="#D3D3D3" x="105" y="120" width="16" height="8" rx="0.5"></rect>
                    <rect id="Rectangle-Copy-104" fill="#D3D3D3" x="105" y="141" width="16" height="8" rx="0.5"></rect>
                    <rect id="Rectangle-Copy-39" fill="#D3D3D3" x="156" y="80" width="16" height="8" rx="0.5"></rect>
                    <rect id="Rectangle-Copy-48" fill="#D3D3D3" x="156" y="99" width="16" height="8" rx="0.5"></rect>
                    <rect id="Rectangle-Copy-101" fill="#D3D3D3" x="156" y="120" width="16" height="8" rx="0.5"></rect>
                    <rect id="Rectangle-Copy-105" fill="#D3D3D3" x="156" y="141" width="16" height="8" rx="0.5"></rect>
                    <rect id="Rectangle-Copy-4" fill="#107F65" x="44" y="0" width="35" height="8" rx="0.5"></rect>
                    <rect id="Rectangle-Copy-7" fill="#107F65" x="0" y="20" width="35" height="8" rx="0.5"></rect>
                    <rect id="Rectangle-Copy-8" fill="#107F65" x="0" y="41" width="35" height="8" rx="0.5"></rect>
                    <rect id="Rectangle-Copy-35" fill="#107F65" x="0" y="60" width="35" height="8" rx="0.5"></rect>
                    <rect id="Rectangle-Copy-36" fill="#107F65" x="0" y="80" width="35" height="8" rx="0.5"></rect>
                    <rect id="Rectangle-Copy-56" fill="#107F65" x="0" y="99" width="35" height="8" rx="0.5"></rect>
                    <rect id="Rectangle-Copy-102" fill="#107F65" x="0" y="120" width="35" height="8" rx="0.5"></rect>
                    <rect id="Rectangle-Copy-106" fill="#107F65" x="0" y="141" width="35" height="8" rx="0.5"></rect>
                    <rect id="Rectangle-Copy-5" fill="#107F65" x="94" y="0" width="35" height="8" rx="0.5"></rect>
                    <rect id="Rectangle-Copy-6" fill="#107F65" x="145" y="0" width="35" height="8" rx="0.5"></rect>
                </g>
                <rect id="Rectangle-Copy-129" fill="#107F65" x="166" y="128" width="70" height="44" rx="1"></rect>
                <text id=".xlsx" font-family="ProximaNova-Regular, Proxima Nova" font-size="20" font-weight="normal" fill="#FFFFFF">
                    <tspan x="183" y="156">.xlsx</tspan>
                </text>
            </g>
            <g id="Group-5-Copy" transform="translate(90.000000, 0.000000)">
                <g id="Group-17-Copy-3" fill="#F1F1F1" stroke="#E5E5E5">
                    <rect id="Rectangle" x="0.5" y="0.5" width="220" height="180" rx="1"></rect>
                </g>
                <rect id="Rectangle" fill="#D8D8D8" x="33" y="124" width="155" height="6"></rect>
                <rect id="Rectangle-Copy-2" fill="#D8D8D8" x="33" y="137" width="99" height="6"></rect>
                <rect id="Rectangle-Copy-3" fill="#D8D8D8" x="33" y="150" width="135" height="6"></rect>
                <g id="Group-13-Copy-3" transform="translate(33.000000, 26.000000)">
                    <g id="Group-13-Copy" transform="translate(77.500000, 42.000000) rotate(-90.000000) translate(-77.500000, -42.000000) translate(36.000000, -35.000000)">
                        <polygon id="Rectangle-Copy-17" fill="#0062A6" transform="translate(34.000000, 7.500000) rotate(-360.000000) translate(-34.000000, -7.500000) " points="0.5 0.5 67.5 0.5 67.5 14.5 0.5 14.5"></polygon>
                        <polygon id="Rectangle-Copy-20" fill="#0062A6" transform="translate(23.000000, 63.000000) rotate(-360.000000) translate(-23.000000, -63.000000) " points="1 56 45 56 45 70 1 70"></polygon>
                        <polygon id="Rectangle-Copy-23" fill="#0062A6" transform="translate(37.000000, 118.500000) rotate(-360.000000) translate(-37.000000, -118.500000) " points="1.5 111.5 72.5 111.5 72.5 125.5 1.5 125.5"></polygon>
                        <polygon id="Rectangle-Copy-18" fill="#722580" transform="translate(42.000000, 20.500000) rotate(-360.000000) translate(-42.000000, -20.500000) " points="1.5 13.5 82.5 13.5 82.5 27.5 1.5 27.5"></polygon>
                        <rect id="Rectangle-Copy-21" fill="#722580" transform="translate(28.000000, 77.000000) rotate(-360.000000) translate(-28.000000, -77.000000) " x="1" y="70" width="54" height="14"></rect>
                        <polygon id="Rectangle-Copy-24" fill="#722580" transform="translate(32.000000, 132.500000) rotate(-360.000000) translate(-32.000000, -132.500000) " points="0.5 125.5 63.5 125.5 63.5 139.5 0.5 139.5"></polygon>
                        <polygon id="Rectangle-Copy-19" fill="#0062A6" transform="translate(32.000000, 33.500000) rotate(-360.000000) translate(-32.000000, -33.500000) " points="0.5 26.5 63.5 26.5 63.5 40.5 0.5 40.5"></polygon>
                        <polygon id="Rectangle-Copy-22" fill="#0062A6" transform="translate(32.000000, 90.500000) rotate(-360.000000) translate(-32.000000, -90.500000) " points="0.5 83.5 63.5 83.5 63.5 97.5 0.5 97.5"></polygon>
                        <polygon id="Rectangle-Copy-25" fill="#0062A6" transform="translate(42.000000, 146.500000) rotate(-360.000000) translate(-42.000000, -146.500000) " points="1.5 139.5 82.5 139.5 82.5 153.5 1.5 153.5"></polygon>
                        <line x1="0.876116109" y1="1.5" x2="1.12388389" y2="153.500003" id="Line-3" stroke="#D3D3D3" stroke-linecap="square"></line>
                    </g>
                </g>
                <rect id="Rectangle-Copy-128" fill="#107F65" x="162" y="128" width="70" height="44" rx="1"></rect>
                <text id=".pptx-copy" font-family="ProximaNova-Regular, Proxima Nova" font-size="20" font-weight="normal" fill="#FFFFFF">
                    <tspan x="175" y="156">.pptx</tspan>
                </text>
            </g>
        </g>
    </g>
</svg>